SplineFontDB: 3.1
FontName: Untitled1
FullName: Untitled1
FamilyName: Untitled1
Weight: Regular
Copyright: Copyright (c) 2019, jhudson
UComments: "2019-7-21: Created with FontForge (http://fontforge.org)"
Version: 001.000
ItalicAngle: 0
UnderlinePosition: -204
UnderlineWidth: 102
Ascent: 1598
Descent: 450
InvalidEm: 0
LayerCount: 2
Layer: 0 0 "Back" 1
Layer: 1 0 "Fore" 0
XUID: [1021 221 1603365728 5794228]
FSType: 0
OS2Version: 0
OS2_WeightWidthSlopeOnly: 0
OS2_UseTypoMetrics: 1
CreationTime: 1563748784
ModificationTime: 1564712709
PfmFamily: 17
TTFWeight: 400
TTFWidth: 5
LineGap: 184
VLineGap: 0
OS2TypoAscent: 0
OS2TypoAOffset: 1
OS2TypoDescent: 0
OS2TypoDOffset: 1
OS2TypoLinegap: 184
OS2WinAscent: 0
OS2WinAOffset: 1
OS2WinDescent: 0
OS2WinDOffset: 1
HheadAscent: 0
HheadAOffset: 1
HheadDescent: 0
HheadDOffset: 1
OS2Vendor: 'PfEd'
Lookup: 258 0 0 "kerning" { "kerning-1" [150,0,2] "kerning-2" [307,30,4] } ['kern' ('DFLT' <'dflt' > 'latn' <'dflt' > ) ]
MarkAttachClasses: 1
DEI: 91125
KernClass2: 31 21 "kerning-2"
 50 A Agrave Aacute Acircumflex Atilde Adieresis Aring
 15 C Euro Ccedilla
 55 zero D G O Q Ograve Oacute Ocircumflex Otilde Odieresis
 3 F P
 56 H I J M N U d Ntilde Ugrave Uacute Ucircumflex Udieresis
 1 L
 1 T
 1 W
 18 Y Ydieresis Yacute
 1 V
 8 Z Zcaron
 8 S Scaron
 1 R
 1 K
 37 E Egrave Eacute Ecircumflex Edieresis
 1 B
 1 X
 86 b e o p egrave eacute ecircumflex edieresis ograve oacute ocircumflex otilde odieresis
 15 c cent ccedilla
 1 f
 41 i j l igrave iacute icircumflex idieresis
 3 k x
 107 a g h m n q s u agrave aacute acircumflex atilde adieresis aring ntilde ugrave uacute ucircumflex udieresis
 1 r
 1 t
 22 v w y yacute ydieresis
 8 z zcaron
 27 comma period quotesinglbase
 5 slash
 9 parenleft
 53 A Agrave Aacute Acircumflex Atilde Adieresis Aring AE
 190 B D E F H I K L M N P R U X Z b h i k l Zcaron Egrave Eacute Ecircumflex Edieresis Igrave Iacute Icircumflex Idieresis Ugrave Uacute Ucircumflex Udieresis igrave iacute icircumflex idieresis

StartChar: A
Encoding: 65 65 0
Width: 1511
VWidth: 0
Flags: HMWO
LayerCount: 2
UndoRedoHistory
Layer: 1
Undoes
UndoOperation
Index: 0
Type: 1
WasModified: 0
WasOrder2: 0
Layer: 2
Width: 1511
VWidth: 0
LBearingChange: 0
UnicodeEnc: 0
InstructionsLength: 0
SplineSet
785 1142 m 5
 891 1106 l 5
 1357 -93 l 1
 1038 -93 l 1
 1001 7 l 1
 1212 7 l 1
 785 1142 l 5
653 898 m 1
 706 757 l 1
 609 499 l 1
 502 499 l 1
 653 898 l 1
427 300 m 1
 896 300 l 1
 931 200 l 1
 496 200 l 1
 386 -93 l 1
 86 -93 l 1
 86 7 l 1
 316 7 l 1
 427 300 l 1
EndSplineSet
EndUndoOperation
UndoOperation
Index: 1
Type: 1
WasModified: 1
WasOrder2: 0
Layer: 2
Width: 1511
VWidth: 0
LBearingChange: 0
UnicodeEnc: 0
InstructionsLength: 0
SplineSet
784.581054688 1141.65625 m 5
 891.475585938 1105.87695312 l 5
 1356.56640625 -93 l 5
 1038 -93 l 5
 1001.34960938 6.99609375 l 5
 1211.94921875 6.99609375 l 5
 784.581054688 1141.65625 l 5
652.579101562 897.817382812 m 5
 706.161132812 756.553710938 l 5
 608.76953125 499 l 5
 502.29296875 499 l 5
 652.579101562 897.817382812 l 5
427.076171875 300.2421875 m 5
 896.36328125 300.2421875 l 5
 931.025390625 200.24609375 l 5
 496.23046875 200.24609375 l 5
 385.568359375 -93 l 5
 85.671875 -93 l 5
 85.671875 6.99609375 l 5
 316.421875 6.99609375 l 5
 427.076171875 300.2421875 l 5
EndSplineSet
EndUndoOperation
EndUndoes
Redoes
EndRedoes
EndUndoRedoHistory
Fore
SplineSet
772 1172 m 5
 878 1136 l 5
 1357 -93 l 1
 1038 -93 l 1
 1001 7 l 1
 1212 7 l 1
 772 1172 l 5
653 898 m 1
 706 757 l 1
 609 499 l 1
 502 499 l 1
 653 898 l 1
427 300 m 1
 896 300 l 1
 931 200 l 1
 496 200 l 1
 386 -93 l 1
 86 -93 l 1
 86 7 l 1
 316 7 l 1
 427 300 l 1
EndSplineSet
EndChar

StartChar: B
Encoding: 66 66 1
Width: 1162
VWidth: 0
Flags: HMW
LayerCount: 2
UndoRedoHistory
Layer: 1
Undoes
UndoOperation
Index: 0
Type: 1
WasModified: 1
WasOrder2: 0
Layer: 2
Width: 1162
VWidth: 0
LBearingChange: 0
UnicodeEnc: 0
InstructionsLength: 0
SplineSet
839.641601562 697.9375 m 1
 891.795898438 759.69921875 923 849.928710938 923 937 c 4
 923 1028.734375 887.110351562 1114.46875 829.297851562 1178.296875 c 5
 830 1179 l 5
 929 1080.015625 l 5
 986.984375 1016 1023 930.015625 1023 838 c 4
 1023 751 992 661 940 599.015625 c 1
 1012 527 1057 407 1057 298 c 0
 1057 196 1018 102 954 31.015625 c 0
 890 -38 770 -99 657 -99 c 2
 203.984375 -99 l 1
 105 0 l 1
 106 1 l 1
 558 1 l 2
 670.672851562 1 790.469726562 61.890625 854.266601562 130.688476562 c 0
 918.094726562 201.485351562 957 295.25 957 397 c 0
 957 505.342773438 912.18359375 627.122070312 839.641601562 697.9375 c 1
675.453125 950 m 5
 675.453125 950 662.073242188 949.90625 660.245117188 950 c 6
 452 950 l 5
 452 813 l 1
 418.666992188 813 385.333007812 813 352 813 c 1
 352 1049 l 5
 353 1049 l 5
 571.046875 1049 l 4
 627.560546875 1046.18457031 670.903320312 1005.57519531 676.409179688 950 c 5
 675.453125 950 l 5
704.87890625 464 m 1
 690.0703125 466.213867188 676.200195312 464 660 464 c 2
 452 464 l 1
 452 247 l 1
 418.666992188 247 385.333007812 247 352 247 c 1
 352 567 l 1
 421.666992188 567 491.333007812 567 561 567 c 0
 630.290039062 567 686.755859375 526.405273438 704.87890625 464 c 1
EndSplineSet
EndUndoOperation
UndoOperation
Index: 1
Type: 1
WasModified: 1
WasOrder2: 0
Layer: 2
Width: 1162
VWidth: 0
LBearingChange: 0
UnicodeEnc: 0
InstructionsLength: 0
SplineSet
839.641601562 697.9375 m 1
 891.795898438 759.69921875 923 839.928710938 923 927 c 4
 923 1018.734375 887.110351562 1104.46875 829.297851562 1168.296875 c 5
 830 1169 l 5
 929 1070.015625 l 5
 986.984375 1006 1023 920.015625 1023 828 c 4
 1023 741 992 661 940 599.015625 c 1
 1012 527 1057 407 1057 298 c 0
 1057 196 1018 102 954 31.015625 c 0
 890 -38 770 -99 657 -99 c 2
 203.984375 -99 l 1
 105 0 l 1
 106 1 l 1
 558 1 l 2
 670.672851562 1 790.469726562 61.890625 854.266601562 130.688476562 c 0
 918.094726562 201.485351562 957 295.25 957 397 c 0
 957 505.342773438 912.18359375 627.122070312 839.641601562 697.9375 c 1
675.453125 940 m 5
 675.453125 940 662.073242188 939.90625 660.245117188 940 c 6
 452 940 l 5
 452 813 l 1
 418.666992188 813 385.333007812 813 352 813 c 1
 352 1039 l 5
 353 1039 l 5
 571.046875 1039 l 4
 627.560546875 1036.18457031 670.903320312 995.575195312 676.409179688 940 c 5
 675.453125 940 l 5
704.87890625 464 m 1
 690.0703125 466.213867188 676.200195312 464 660 464 c 2
 452 464 l 1
 452 247 l 1
 418.666992188 247 385.333007812 247 352 247 c 1
 352 567 l 1
 421.666992188 567 491.333007812 567 561 567 c 0
 630.290039062 567 686.755859375 526.405273438 704.87890625 464 c 1
EndSplineSet
EndUndoOperation
UndoOperation
Index: 2
Type: 1
WasModified: 1
WasOrder2: 0
Layer: 2
Width: 1162
VWidth: 0
LBearingChange: 0
UnicodeEnc: 0
InstructionsLength: 0
SplineSet
839.641601562 687.9375 m 5
 891.795898438 749.69921875 923 829.928710938 923 917 c 4
 923 1008.734375 887.110351562 1094.46875 829.297851562 1158.296875 c 5
 830 1159 l 5
 929 1060.015625 l 5
 986.984375 996 1023 910.015625 1023 818 c 4
 1023 731 992 651 940 589.015625 c 5
 1012 517 1057 407 1057 298 c 0
 1057 196 1018 102 954 31.015625 c 0
 890 -38 770 -99 657 -99 c 2
 203.984375 -99 l 1
 105 0 l 1
 106 1 l 1
 558 1 l 2
 670.672851562 1 790.469726562 61.890625 854.266601562 130.688476562 c 0
 918.094726562 201.485351562 957 295.25 957 397 c 0
 957 505.342773438 912.18359375 617.122070312 839.641601562 687.9375 c 5
675.453125 930 m 5
 675.453125 930 662.073242188 929.90625 660.245117188 930 c 6
 452 930 l 5
 452 803 l 5
 418.666992188 803 385.333007812 803 352 803 c 5
 352 1029 l 5
 353 1029 l 5
 571.046875 1029 l 4
 627.560546875 1026.18457031 670.903320312 985.575195312 676.409179688 930 c 5
 675.453125 930 l 5
704.87890625 454 m 5
 690.0703125 456.213867188 676.200195312 454 660 454 c 6
 452 454 l 5
 452 247 l 1
 418.666992188 247 385.333007812 247 352 247 c 1
 352 557 l 5
 421.666992188 557 491.333007812 557 561 557 c 4
 630.290039062 557 686.755859375 516.405273438 704.87890625 454 c 5
EndSplineSet
EndUndoOperation
UndoOperation
Index: 3
Type: 1
WasModified: 1
WasOrder2: 0
Layer: 2
Width: 1162
VWidth: 0
LBearingChange: 0
UnicodeEnc: 0
InstructionsLength: 0
SplineSet
839.641601562 677.9375 m 5
 891.795898438 739.69921875 923 819.928710938 923 907 c 4
 923 998.734375 887.110351562 1084.46875 829.297851562 1148.296875 c 5
 830 1149 l 5
 929 1050.015625 l 5
 986.984375 986 1023 900.015625 1023 808 c 4
 1023 721 992 641 940 579.015625 c 5
 1012 507 1057 407 1057 298 c 0
 1057 196 1018 102 954 31.015625 c 0
 890 -38 770 -99 657 -99 c 2
 203.984375 -99 l 1
 105 0 l 1
 106 1 l 1
 558 1 l 2
 670.672851562 1 790.469726562 61.890625 854.266601562 130.688476562 c 0
 918.094726562 201.485351562 957 295.25 957 397 c 0
 957 505.342773438 912.18359375 607.122070312 839.641601562 677.9375 c 5
675.453125 920 m 5
 675.453125 920 662.073242188 919.90625 660.245117188 920 c 6
 452 920 l 5
 452 793 l 5
 418.666992188 793 385.333007812 793 352 793 c 5
 352 1019 l 5
 353 1019 l 5
 571.046875 1019 l 4
 627.560546875 1016.18457031 670.903320312 975.575195312 676.409179688 920 c 5
 675.453125 920 l 5
704.87890625 444 m 5
 690.0703125 446.213867188 676.200195312 444 660 444 c 6
 452 444 l 5
 452 247 l 1
 418.666992188 247 385.333007812 247 352 247 c 1
 352 547 l 5
 421.666992188 547 491.333007812 547 561 547 c 4
 630.290039062 547 686.755859375 506.405273438 704.87890625 444 c 5
EndSplineSet
EndUndoOperation
UndoOperation
Index: 4
Type: 1
WasModified: 1
WasOrder2: 0
Layer: 2
Width: 1162
VWidth: 0
LBearingChange: 0
UnicodeEnc: 0
InstructionsLength: 0
SplineSet
839.641601562 687.9375 m 5
 891.795898438 749.69921875 923 829.928710938 923 917 c 4
 923 1008.734375 887.110351562 1094.46875 829.297851562 1158.296875 c 5
 830 1159 l 5
 929 1060.015625 l 5
 986.984375 996 1023 910.015625 1023 818 c 4
 1023 731 992 651 940 589.015625 c 5
 1012 517 1057 407 1057 298 c 0
 1057 196 1018 102 954 31.015625 c 0
 890 -38 770 -99 657 -99 c 2
 203.984375 -99 l 1
 105 0 l 1
 106 1 l 1
 558 1 l 2
 670.672851562 1 790.469726562 61.890625 854.266601562 130.688476562 c 0
 918.094726562 201.485351562 957 295.25 957 397 c 0
 957 505.342773438 912.18359375 617.122070312 839.641601562 687.9375 c 5
675.453125 930 m 5
 675.453125 930 662.073242188 929.90625 660.245117188 930 c 6
 452 930 l 5
 452 803 l 5
 418.666992188 803 385.333007812 803 352 803 c 5
 352 1029 l 5
 353 1029 l 5
 571.046875 1029 l 4
 627.560546875 1026.18457031 670.903320312 985.575195312 676.409179688 930 c 5
 675.453125 930 l 5
704.87890625 444 m 1
 690.0703125 446.213867188 676.200195312 444 660 444 c 2
 452 444 l 1
 452 247 l 1
 418.666992188 247 385.333007812 247 352 247 c 1
 352 547 l 1
 421.666992188 547 491.333007812 547 561 547 c 0
 630.290039062 547 686.755859375 506.405273438 704.87890625 444 c 1
EndSplineSet
EndUndoOperation
UndoOperation
Index: 5
Type: 1
WasModified: 1
WasOrder2: 0
Layer: 2
Width: 1162
VWidth: 0
LBearingChange: 0
UnicodeEnc: 0
InstructionsLength: 0
SplineSet
839.641601562 697.9375 m 5
 891.795898438 759.69921875 923 839.928710938 923 927 c 4
 923 1018.734375 887.110351562 1104.46875 829.297851562 1168.296875 c 5
 830 1169 l 5
 929 1070.015625 l 5
 986.984375 1006 1023 920.015625 1023 828 c 4
 1023 741 992 661 940 599.015625 c 5
 1012 527 1057 407 1057 298 c 0
 1057 196 1018 102 954 31.015625 c 0
 890 -38 770 -99 657 -99 c 2
 203.984375 -99 l 1
 105 0 l 1
 106 1 l 1
 558 1 l 2
 670.672851562 1 790.469726562 61.890625 854.266601562 130.688476562 c 0
 918.094726562 201.485351562 957 295.25 957 397 c 0
 957 505.342773438 912.18359375 627.122070312 839.641601562 697.9375 c 5
675.453125 940 m 5
 675.453125 940 662.073242188 939.90625 660.245117188 940 c 6
 452 940 l 5
 452 813 l 5
 418.666992188 813 385.333007812 813 352 813 c 5
 352 1039 l 5
 353 1039 l 5
 571.046875 1039 l 4
 627.560546875 1036.18457031 670.903320312 995.575195312 676.409179688 940 c 5
 675.453125 940 l 5
704.87890625 444 m 1
 690.0703125 446.213867188 676.200195312 444 660 444 c 2
 452 444 l 1
 452 247 l 1
 418.666992188 247 385.333007812 247 352 247 c 1
 352 547 l 1
 421.666992188 547 491.333007812 547 561 547 c 0
 630.290039062 547 686.755859375 506.405273438 704.87890625 444 c 1
EndSplineSet
EndUndoOperation
UndoOperation
Index: 6
Type: 1
WasModified: 1
WasOrder2: 0
Layer: 2
Width: 1162
VWidth: 0
LBearingChange: 0
UnicodeEnc: 0
InstructionsLength: 0
SplineSet
839.641601562 707.9375 m 5
 891.795898438 769.69921875 923 849.928710938 923 937 c 4
 923 1028.734375 887.110351562 1114.46875 829.297851562 1178.296875 c 5
 830 1179 l 5
 929 1080.015625 l 5
 986.984375 1016 1023 930.015625 1023 838 c 4
 1023 751 992 671 940 609.015625 c 5
 1012 537 1057 407 1057 298 c 0
 1057 196 1018 102 954 31.015625 c 0
 890 -38 770 -99 657 -99 c 2
 203.984375 -99 l 1
 105 0 l 1
 106 1 l 1
 558 1 l 2
 670.672851562 1 790.469726562 61.890625 854.266601562 130.688476562 c 0
 918.094726562 201.485351562 957 295.25 957 397 c 0
 957 505.342773438 912.18359375 637.122070312 839.641601562 707.9375 c 5
675.453125 950 m 5
 675.453125 950 662.073242188 949.90625 660.245117188 950 c 6
 452 950 l 5
 452 823 l 5
 418.666992188 823 385.333007812 823 352 823 c 5
 352 1049 l 5
 353 1049 l 5
 571.046875 1049 l 4
 627.560546875 1046.18457031 670.903320312 1005.57519531 676.409179688 950 c 5
 675.453125 950 l 5
704.87890625 444 m 1
 690.0703125 446.213867188 676.200195312 444 660 444 c 2
 452 444 l 1
 452 247 l 1
 418.666992188 247 385.333007812 247 352 247 c 1
 352 547 l 1
 421.666992188 547 491.333007812 547 561 547 c 0
 630.290039062 547 686.755859375 506.405273438 704.87890625 444 c 1
EndSplineSet
EndUndoOperation
UndoOperation
Index: 7
Type: 1
WasModified: 1
WasOrder2: 0
Layer: 2
Width: 1162
VWidth: 0
LBearingChange: 0
UnicodeEnc: 0
InstructionsLength: 0
SplineSet
839.641601562 697.9375 m 5
 891.795898438 759.69921875 923 839.928710938 923 927 c 4
 923 1018.734375 887.110351562 1104.46875 829.297851562 1168.296875 c 5
 830 1169 l 5
 929 1070.015625 l 5
 986.984375 1006 1023 920.015625 1023 828 c 4
 1023 741 992 661 940 599.015625 c 5
 1012 527 1057 407 1057 298 c 0
 1057 196 1018 102 954 31.015625 c 0
 890 -38 770 -99 657 -99 c 2
 203.984375 -99 l 1
 105 0 l 1
 106 1 l 1
 558 1 l 2
 670.672851562 1 790.469726562 61.890625 854.266601562 130.688476562 c 0
 918.094726562 201.485351562 957 295.25 957 397 c 0
 957 505.342773438 912.18359375 627.122070312 839.641601562 697.9375 c 5
675.453125 940 m 5
 675.453125 940 662.073242188 939.90625 660.245117188 940 c 6
 452 940 l 5
 452 813 l 5
 418.666992188 813 385.333007812 813 352 813 c 5
 352 1039 l 5
 353 1039 l 5
 571.046875 1039 l 4
 627.560546875 1036.18457031 670.903320312 995.575195312 676.409179688 940 c 5
 675.453125 940 l 5
704.87890625 444 m 1
 690.0703125 446.213867188 676.200195312 444 660 444 c 2
 452 444 l 1
 452 247 l 1
 418.666992188 247 385.333007812 247 352 247 c 1
 352 547 l 1
 421.666992188 547 491.333007812 547 561 547 c 0
 630.290039062 547 686.755859375 506.405273438 704.87890625 444 c 1
EndSplineSet
EndUndoOperation
UndoOperation
Index: 8
Type: 1
WasModified: 1
WasOrder2: 0
Layer: 2
Width: 1162
VWidth: 0
LBearingChange: 0
UnicodeEnc: 0
InstructionsLength: 0
SplineSet
839.641601562 687.9375 m 5
 891.795898438 749.69921875 923 829.928710938 923 917 c 4
 923 1008.734375 887.110351562 1094.46875 829.297851562 1158.296875 c 5
 830 1159 l 5
 929 1060.015625 l 5
 986.984375 996 1023 910.015625 1023 818 c 4
 1023 731 992 651 940 589.015625 c 5
 1012 517 1057 407 1057 298 c 0
 1057 196 1018 102 954 31.015625 c 0
 890 -38 770 -99 657 -99 c 2
 203.984375 -99 l 1
 105 0 l 1
 106 1 l 1
 558 1 l 2
 670.672851562 1 790.469726562 61.890625 854.266601562 130.688476562 c 0
 918.094726562 201.485351562 957 295.25 957 397 c 0
 957 505.342773438 912.18359375 617.122070312 839.641601562 687.9375 c 5
675.453125 930 m 5
 675.453125 930 662.073242188 929.90625 660.245117188 930 c 6
 452 930 l 5
 452 803 l 5
 418.666992188 803 385.333007812 803 352 803 c 5
 352 1029 l 5
 353 1029 l 5
 571.046875 1029 l 4
 627.560546875 1026.18457031 670.903320312 985.575195312 676.409179688 930 c 5
 675.453125 930 l 5
704.87890625 444 m 1
 690.0703125 446.213867188 676.200195312 444 660 444 c 2
 452 444 l 1
 452 247 l 1
 418.666992188 247 385.333007812 247 352 247 c 1
 352 547 l 1
 421.666992188 547 491.333007812 547 561 547 c 0
 630.290039062 547 686.755859375 506.405273438 704.87890625 444 c 1
EndSplineSet
EndUndoOperation
UndoOperation
Index: 9
Type: 1
WasModified: 0
WasOrder2: 0
Layer: 2
Width: 1162
VWidth: 0
LBearingChange: 0
UnicodeEnc: 0
InstructionsLength: 0
SplineSet
839.641601562 677.9375 m 5
 891.795898438 739.69921875 923 819.928710938 923 907 c 4
 923 998.734375 887.110351562 1084.46875 829.297851562 1148.296875 c 5
 830 1149 l 5
 929 1050.015625 l 5
 986.984375 986 1023 900.015625 1023 808 c 4
 1023 721 992 641 940 579.015625 c 5
 1012 507 1057 407 1057 298 c 0
 1057 196 1018 102 954 31.015625 c 0
 890 -38 770 -99 657 -99 c 2
 203.984375 -99 l 1
 105 0 l 1
 106 1 l 1
 558 1 l 2
 670.672851562 1 790.469726562 61.890625 854.266601562 130.688476562 c 0
 918.094726562 201.485351562 957 295.25 957 397 c 0
 957 505.342773438 912.18359375 607.122070312 839.641601562 677.9375 c 5
675.453125 920 m 5
 675.453125 920 662.073242188 919.90625 660.245117188 920 c 6
 452 920 l 5
 452 793 l 5
 418.666992188 793 385.333007812 793 352 793 c 5
 352 1019 l 5
 353 1019 l 5
 571.046875 1019 l 4
 627.560546875 1016.18457031 670.903320312 975.575195312 676.409179688 920 c 5
 675.453125 920 l 5
704.87890625 444 m 1
 690.0703125 446.213867188 676.200195312 444 660 444 c 2
 452 444 l 1
 452 247 l 1
 418.666992188 247 385.333007812 247 352 247 c 1
 352 547 l 1
 421.666992188 547 491.333007812 547 561 547 c 0
 630.290039062 547 686.755859375 506.405273438 704.87890625 444 c 1
EndSplineSet
EndUndoOperation
UndoOperation
Index: 10
Type: 7
WasModified: 1
WasOrder2: 0
Layer: 2
Width: 1131
EndUndoOperation
EndUndoes
Redoes
EndRedoes
EndUndoRedoHistory
Fore
SplineSet
839.641601562 697.9375 m 1
 891.795898438 759.69921875 923 859.928710938 923 947 c 4
 923 1038.734375 887.110351562 1124.46875 829.297851562 1188.296875 c 5
 830 1189 l 5
 929 1090.015625 l 5
 986.984375 1026 1023 940.015625 1023 848 c 4
 1023 761 992 661 940 599.015625 c 1
 1012 527 1057 407 1057 298 c 0
 1057 196 1018 102 954 31.015625 c 0
 890 -38 770 -99 657 -99 c 2
 203.984375 -99 l 1
 105 0 l 1
 106 1 l 1
 558 1 l 2
 670.672851562 1 790.469726562 61.890625 854.266601562 130.688476562 c 0
 918.094726562 201.485351562 957 295.25 957 397 c 0
 957 505.342773438 912.18359375 627.122070312 839.641601562 697.9375 c 1
675.453125 960 m 5
 675.453125 960 662.073242188 959.90625 660.245117188 960 c 6
 452 960 l 5
 452 813 l 1
 418.666992188 813 385.333007812 813 352 813 c 1
 352 1059 l 5
 353 1059 l 5
 571.046875 1059 l 4
 627.560546875 1056.18457031 670.903320312 1015.57519531 676.409179688 960 c 5
 675.453125 960 l 5
704.87890625 464 m 1
 690.0703125 466.213867188 676.200195312 464 660 464 c 2
 452 464 l 1
 452 247 l 1
 418.666992188 247 385.333007812 247 352 247 c 1
 352 567 l 1
 421.666992188 567 491.333007812 567 561 567 c 0
 630.290039062 567 686.755859375 526.405273438 704.87890625 464 c 1
EndSplineSet
EndChar

StartChar: C
Encoding: 67 67 2
Width: 1173
VWidth: 0
Flags: HMW
LayerCount: 2
UndoRedoHistory
Layer: 1
Undoes
UndoOperation
Index: 0
Type: 1
WasModified: 1
WasOrder2: 0
Layer: 2
Width: 1173
VWidth: 0
LBearingChange: 0
UnicodeEnc: 0
InstructionsLength: 0
SplineSet
162.801757812 149.72265625 m 1
 238.353515625 75.2861328125 329.874023438 26.1337890625 425.446289062 7.2509765625 c 0
 446.918945312 2.1708984375 468.53125 0 490 0 c 0
 542.212890625 0 593.573242188 12.8408203125 640.002929688 27.8974609375 c 0
 755.719726562 65.8564453125 855.5625 130.993164062 916.819335938 210.318359375 c 1
 949.963867188 176.997070312 983.24609375 143.80078125 1016.47851562 110.5625 c 1
 913.495117188 -23.421875 769.495117188 -101.4375 612.478515625 -101.4375 c 0
 484.448242188 -101.4375 357.198242188 -46.109375 258.041015625 53.046875 c 2
 159.041015625 152.046875 l 1
 162.801757812 149.72265625 l 1
986.495117188 1018.56152344 m 5
 801.495117188 852.561523438 l 5
 771.916992188 882.139648438 l 5
 720.703125 927.62109375 667.1328125 946.561523438 613.478515625 946.561523438 c 4
 532.494140625 946.561523438 460.495117188 909.561523438 397.495117188 822.561523438 c 4
 340.495117188 743.577148438 313.479492188 638.561523438 313.479492188 533.5625 c 4
 313.495117188 432.092773438 339.057617188 341.920898438 389.603515625 267.526367188 c 5
 360.479492188 288.578125 l 5
 268.775390625 363.979492188 213.495117188 489.96484375 213.495117188 632.560546875 c 4
 213.495117188 737.716796875 240.526367188 842.935546875 297.698242188 922.155273438 c 4
 360.838867188 1009.34277344 433.166992188 1046.56054688 514.5546875 1046.56054688 c 4
 578.596679688 1046.56054688 642.419921875 1019.75878906 702.573242188 952.966796875 c 5
 763.471679688 1008.64355469 826.137695312 1062.40039062 886.819335938 1118.31152344 c 5
 919.975585938 1084.99804688 953.2578125 1051.79882812 986.495117188 1018.56152344 c 5
EndSplineSet
EndUndoOperation
EndUndoes
Redoes
EndRedoes
EndUndoRedoHistory
Fore
SplineSet
162.801757812 149.72265625 m 1
 238.353515625 75.2861328125 329.874023438 26.1337890625 425.446289062 7.2509765625 c 0
 446.918945312 2.1708984375 468.53125 0 490 0 c 0
 542.212890625 0 593.573242188 12.8408203125 640.002929688 27.8974609375 c 0
 755.719726562 65.8564453125 855.5625 130.993164062 916.819335938 210.318359375 c 1
 949.963867188 176.997070312 983.24609375 143.80078125 1016.47851562 110.5625 c 1
 913.495117188 -23.421875 769.495117188 -101.4375 612.478515625 -101.4375 c 0
 484.448242188 -101.4375 357.198242188 -46.109375 258.041015625 53.046875 c 2
 159.041015625 152.046875 l 1
 162.801757812 149.72265625 l 1
986.495117188 1017.56152344 m 1
 801.495117188 851.561523438 l 1
 771.916992188 881.139648438 l 1
 720.703125 926.62109375 667.1328125 945.561523438 613.478515625 945.561523438 c 0
 532.494140625 945.561523438 460.495117188 908.561523438 397.495117188 821.561523438 c 0
 340.495117188 742.577148438 313.479492188 637.561523438 313.479492188 532.5625 c 0
 313.495117188 431.092773438 339.057617188 340.920898438 389.603515625 266.526367188 c 1
 360.479492188 287.578125 l 1
 268.775390625 362.979492188 213.495117188 488.96484375 213.495117188 631.560546875 c 0
 213.495117188 736.716796875 240.526367188 841.935546875 297.698242188 921.155273438 c 0
 360.838867188 1008.34277344 433.166992188 1045.56054688 514.5546875 1045.56054688 c 0
 578.596679688 1045.56054688 642.419921875 1018.75878906 702.573242188 951.966796875 c 1
 763.471679688 1007.64355469 826.137695312 1061.40039062 886.819335938 1117.31152344 c 1
 919.975585938 1083.99804688 953.2578125 1050.79882812 986.495117188 1017.56152344 c 1
EndSplineSet
EndChar

StartChar: D
Encoding: 68 68 3
Width: 1279
VWidth: 0
Flags: HMW
LayerCount: 2
UndoRedoHistory
Layer: 1
Undoes
UndoOperation
Index: 0
Type: 1
WasModified: 0
WasOrder2: 0
Layer: 2
Width: 1279
VWidth: 0
LBearingChange: 0
UnicodeEnc: 0
InstructionsLength: 0
SplineSet
105 0 m 1
 237.854492188 0 370.708007812 0 503.5625 0 c 0
 825.90625 0 1073.5625 372.453125 1073.5625 711 c 5
 1053.37792969 890.77734375 988.73828125 1074.77441406 883.75390625 1184.40820312 c 5
 915.954101562 1153.12207031 949.98828125 1117.99316406 982.5 1085.09472656 c 4
 1099.98730469 966.208984375 1173.5625 795.782226562 1173.54785156 612.015625 c 4
 1173.56347656 273 925.563476562 -100 602.563476562 -100 c 2
 204.547851562 -100 l 1
 171.388671875 -66.6435546875 137.815429688 -33.7001953125 105 0 c 1
452.484375 246 m 1
 419.176757812 246 385.870117188 246 352.5625 246 c 1
 352.5625 1099 l 5
 402.895507812 1099 453.229492188 1099 503.5625 1099 c 4
 603.233398438 1099 696.374023438 1042.859375 756.975585938 952.439453125 c 5
 756.124023438 951.90625 l 5
 709.749023438 982.109375 657.124023438 999 602.546875 999 c 6
 452.5625 999 l 5
 452.5625 267.829101562 l 1
 452.484375 246 l 1
EndSplineSet
EndUndoOperation
UndoOperation
Index: 1
Type: 1
WasModified: 1
WasOrder2: 0
Layer: 2
Width: 1279
VWidth: 0
LBearingChange: 0
UnicodeEnc: 0
InstructionsLength: 0
SplineSet
105 0 m 1
 237.854492188 0 370.708007812 0 503.5625 0 c 0
 825.90625 0 1073.5625 362.453125 1073.5625 701 c 5
 1053.37792969 880.77734375 988.73828125 1064.77441406 883.75390625 1174.40820312 c 5
 915.954101562 1143.12207031 949.98828125 1107.99316406 982.5 1075.09472656 c 4
 1099.98730469 956.208984375 1173.5625 785.782226562 1173.54785156 602.015625 c 4
 1173.56347656 263 925.563476562 -100 602.563476562 -100 c 2
 204.547851562 -100 l 1
 171.388671875 -66.6435546875 137.815429688 -33.7001953125 105 0 c 1
452.484375 246 m 1
 419.176757812 246 385.870117188 246 352.5625 246 c 1
 352.5625 1089 l 5
 402.895507812 1089 453.229492188 1089 503.5625 1089 c 4
 603.233398438 1089 696.374023438 1032.859375 756.975585938 942.439453125 c 5
 756.124023438 941.90625 l 5
 709.749023438 972.109375 657.124023438 989 602.546875 989 c 6
 452.5625 989 l 5
 452.5625 267.829101562 l 1
 452.484375 246 l 1
EndSplineSet
EndUndoOperation
UndoOperation
Index: 2
Type: 1
WasModified: 1
WasOrder2: 0
Layer: 2
Width: 1279
VWidth: 0
LBearingChange: 0
UnicodeEnc: 0
InstructionsLength: 0
SplineSet
105 0 m 1
 237.854492188 0 370.708007812 0 503.5625 0 c 0
 825.90625 0 1073.5625 352.453125 1073.5625 691 c 5
 1053.37792969 870.77734375 988.73828125 1054.77441406 883.75390625 1164.40820312 c 5
 915.954101562 1133.12207031 949.98828125 1097.99316406 982.5 1065.09472656 c 4
 1099.98730469 946.208984375 1173.5625 775.782226562 1173.54785156 592.015625 c 4
 1173.56347656 253 925.563476562 -100 602.563476562 -100 c 2
 204.547851562 -100 l 1
 171.388671875 -66.6435546875 137.815429688 -33.7001953125 105 0 c 1
452.484375 246 m 1
 419.176757812 246 385.870117188 246 352.5625 246 c 1
 352.5625 1079 l 5
 402.895507812 1079 453.229492188 1079 503.5625 1079 c 4
 603.233398438 1079 696.374023438 1022.859375 756.975585938 932.439453125 c 5
 756.124023438 931.90625 l 5
 709.749023438 962.109375 657.124023438 979 602.546875 979 c 6
 452.5625 979 l 5
 452.5625 267.829101562 l 1
 452.484375 246 l 1
EndSplineSet
EndUndoOperation
UndoOperation
Index: 3
Type: 1
WasModified: 1
WasOrder2: 0
Layer: 2
Width: 1279
VWidth: 0
LBearingChange: 0
UnicodeEnc: 0
InstructionsLength: 0
SplineSet
105 0 m 1
 237.854492188 0 370.708007812 0 503.5625 0 c 0
 825.90625 0 1073.5625 342.453125 1073.5625 681 c 5
 1053.37792969 860.77734375 988.73828125 1044.77441406 883.75390625 1154.40820312 c 5
 915.954101562 1123.12207031 949.98828125 1087.99316406 982.5 1055.09472656 c 4
 1099.98730469 936.208984375 1173.5625 765.782226562 1173.54785156 582.015625 c 4
 1173.56347656 243 925.563476562 -100 602.563476562 -100 c 2
 204.547851562 -100 l 1
 171.388671875 -66.6435546875 137.815429688 -33.7001953125 105 0 c 1
452.484375 246 m 1
 419.176757812 246 385.870117188 246 352.5625 246 c 1
 352.5625 1069 l 5
 402.895507812 1069 453.229492188 1069 503.5625 1069 c 4
 603.233398438 1069 696.374023438 1012.859375 756.975585938 922.439453125 c 5
 756.124023438 921.90625 l 5
 709.749023438 952.109375 657.124023438 969 602.546875 969 c 6
 452.5625 969 l 5
 452.5625 267.829101562 l 1
 452.484375 246 l 1
EndSplineSet
EndUndoOperation
UndoOperation
Index: 4
Type: 1
WasModified: 1
WasOrder2: 0
Layer: 2
Width: 1279
VWidth: 0
LBearingChange: 0
UnicodeEnc: 0
InstructionsLength: 0
SplineSet
105 0 m 1
 237.854492188 0 370.708007812 0 503.5625 0 c 0
 825.90625 0 1073.5625 332.453125 1073.5625 671 c 5
 1053.37792969 850.77734375 988.73828125 1034.77441406 883.75390625 1144.40820312 c 5
 915.954101562 1113.12207031 949.98828125 1077.99316406 982.5 1045.09472656 c 4
 1099.98730469 926.208984375 1173.5625 755.782226562 1173.54785156 572.015625 c 4
 1173.56347656 233 925.563476562 -100 602.563476562 -100 c 2
 204.547851562 -100 l 1
 171.388671875 -66.6435546875 137.815429688 -33.7001953125 105 0 c 1
452.484375 246 m 1
 419.176757812 246 385.870117188 246 352.5625 246 c 1
 352.5625 1059 l 5
 402.895507812 1059 453.229492188 1059 503.5625 1059 c 4
 603.233398438 1059 696.374023438 1002.859375 756.975585938 912.439453125 c 5
 756.124023438 911.90625 l 5
 709.749023438 942.109375 657.124023438 959 602.546875 959 c 6
 452.5625 959 l 5
 452.5625 267.829101562 l 1
 452.484375 246 l 1
EndSplineSet
EndUndoOperation
UndoOperation
Index: 5
Type: 1
WasModified: 1
WasOrder2: 0
Layer: 2
Width: 1279
VWidth: 0
LBearingChange: 0
UnicodeEnc: 0
InstructionsLength: 0
SplineSet
105 0 m 1
 237.854492188 0 370.708007812 0 503.5625 0 c 0
 825.90625 0 1073.5625 322.453125 1073.5625 661 c 5
 1053.37792969 840.77734375 988.73828125 1024.77441406 883.75390625 1134.40820312 c 5
 915.954101562 1103.12207031 949.98828125 1067.99316406 982.5 1035.09472656 c 4
 1099.98730469 916.208984375 1173.5625 745.782226562 1173.54785156 562.015625 c 4
 1173.56347656 223 925.563476562 -100 602.563476562 -100 c 2
 204.547851562 -100 l 1
 171.388671875 -66.6435546875 137.815429688 -33.7001953125 105 0 c 1
452.484375 246 m 1
 419.176757812 246 385.870117188 246 352.5625 246 c 1
 352.5625 1049 l 5
 402.895507812 1049 453.229492188 1049 503.5625 1049 c 4
 603.233398438 1049 696.374023438 992.859375 756.975585938 902.439453125 c 5
 756.124023438 901.90625 l 5
 709.749023438 932.109375 657.124023438 949 602.546875 949 c 6
 452.5625 949 l 5
 452.5625 267.829101562 l 1
 452.484375 246 l 1
EndSplineSet
EndUndoOperation
UndoOperation
Index: 6
Type: 1
WasModified: 1
WasOrder2: 0
Layer: 2
Width: 1279
VWidth: 0
LBearingChange: 0
UnicodeEnc: 0
InstructionsLength: 0
SplineSet
105 0 m 1
 237.854492188 0 370.708007812 0 503.5625 0 c 0
 825.90625 0 1073.5625 312.453125 1073.5625 651 c 5
 1053.37792969 830.77734375 988.73828125 1014.77441406 883.75390625 1124.40820312 c 5
 915.954101562 1093.12207031 949.98828125 1057.99316406 982.5 1025.09472656 c 4
 1099.98730469 906.208984375 1173.5625 735.782226562 1173.54785156 552.015625 c 4
 1173.56347656 213 925.563476562 -100 602.563476562 -100 c 2
 204.547851562 -100 l 1
 171.388671875 -66.6435546875 137.815429688 -33.7001953125 105 0 c 1
452.484375 246 m 1
 419.176757812 246 385.870117188 246 352.5625 246 c 1
 352.5625 1039 l 5
 402.895507812 1039 453.229492188 1039 503.5625 1039 c 4
 603.233398438 1039 696.374023438 982.859375 756.975585938 892.439453125 c 5
 756.124023438 891.90625 l 5
 709.749023438 922.109375 657.124023438 939 602.546875 939 c 6
 452.5625 939 l 5
 452.5625 267.829101562 l 1
 452.484375 246 l 1
EndSplineSet
EndUndoOperation
UndoOperation
Index: 7
Type: 1
WasModified: 1
WasOrder2: 0
Layer: 2
Width: 1279
VWidth: 0
LBearingChange: 0
UnicodeEnc: 0
InstructionsLength: 0
SplineSet
105 0 m 1
 237.854492188 0 370.708007812 0 503.5625 0 c 0
 825.90625 0 1073.5625 302.453125 1073.5625 641 c 5
 1053.37792969 820.77734375 988.73828125 1004.77441406 883.75390625 1114.40820312 c 5
 915.954101562 1083.12207031 949.98828125 1047.99316406 982.5 1015.09472656 c 4
 1099.98730469 896.208984375 1173.5625 725.782226562 1173.54785156 542.015625 c 4
 1173.56347656 203 925.563476562 -100 602.563476562 -100 c 2
 204.547851562 -100 l 1
 171.388671875 -66.6435546875 137.815429688 -33.7001953125 105 0 c 1
452.484375 246 m 1
 419.176757812 246 385.870117188 246 352.5625 246 c 1
 352.5625 1029 l 5
 402.895507812 1029 453.229492188 1029 503.5625 1029 c 4
 603.233398438 1029 696.374023438 972.859375 756.975585938 882.439453125 c 5
 756.124023438 881.90625 l 5
 709.749023438 912.109375 657.124023438 929 602.546875 929 c 6
 452.5625 929 l 5
 452.5625 267.829101562 l 1
 452.484375 246 l 1
EndSplineSet
EndUndoOperation
UndoOperation
Index: 8
Type: 1
WasModified: 1
WasOrder2: 0
Layer: 2
Width: 1279
VWidth: 0
LBearingChange: 0
UnicodeEnc: 0
InstructionsLength: 0
SplineSet
105 0 m 1
 237.854492188 0 370.708007812 0 503.5625 0 c 0
 825.90625 0 1073.5625 292.453125 1073.5625 631 c 5
 1053.37792969 810.77734375 988.73828125 994.774414062 883.75390625 1104.40820312 c 5
 915.954101562 1073.12207031 949.98828125 1037.99316406 982.5 1005.09472656 c 4
 1099.98730469 886.208984375 1173.5625 715.782226562 1173.54785156 532.015625 c 4
 1173.56347656 193 925.563476562 -100 602.563476562 -100 c 2
 204.547851562 -100 l 1
 171.388671875 -66.6435546875 137.815429688 -33.7001953125 105 0 c 1
452.484375 246 m 1
 419.176757812 246 385.870117188 246 352.5625 246 c 1
 352.5625 1019 l 5
 402.895507812 1019 453.229492188 1019 503.5625 1019 c 4
 603.233398438 1019 696.374023438 962.859375 756.975585938 872.439453125 c 5
 756.124023438 871.90625 l 5
 709.749023438 902.109375 657.124023438 919 602.546875 919 c 6
 452.5625 919 l 5
 452.5625 267.829101562 l 1
 452.484375 246 l 1
EndSplineSet
EndUndoOperation
UndoOperation
Index: 9
Type: 1
WasModified: 0
WasOrder2: 0
Layer: 2
Width: 1279
VWidth: 0
LBearingChange: 0
UnicodeEnc: 0
InstructionsLength: 0
SplineSet
105 0 m 1
 237.854492188 0 370.708007812 0 503.5625 0 c 0
 825.90625 0 1073.5625 291.453125 1073.5625 630 c 5
 1053.37792969 809.77734375 988.73828125 993.774414062 883.75390625 1103.40820312 c 5
 915.954101562 1072.12207031 949.98828125 1036.99316406 982.5 1004.09472656 c 4
 1099.98730469 885.208984375 1173.5625 714.782226562 1173.54785156 531.015625 c 4
 1173.56347656 192 925.563476562 -100 602.563476562 -100 c 2
 204.547851562 -100 l 1
 171.388671875 -66.6435546875 137.815429688 -33.7001953125 105 0 c 1
452.484375 246 m 1
 419.176757812 246 385.870117188 246 352.5625 246 c 1
 352.5625 1018 l 5
 402.895507812 1018 453.229492188 1018 503.5625 1018 c 4
 603.233398438 1018 696.374023438 961.859375 756.975585938 871.439453125 c 5
 756.124023438 870.90625 l 5
 709.749023438 901.109375 657.124023438 918 602.546875 918 c 6
 452.5625 918 l 5
 452.5625 267.829101562 l 1
 452.484375 246 l 1
EndSplineSet
EndUndoOperation
UndoOperation
Index: 10
Type: 7
WasModified: 1
WasOrder2: 0
Layer: 2
Width: 1248
EndUndoOperation
EndUndoes
Redoes
EndRedoes
EndUndoRedoHistory
Fore
SplineSet
105 0 m 1
 237.854492188 0 370.708007812 0 503.5625 0 c 0
 825.90625 0 1073.5625 362.453125 1073.5625 701 c 5
 1053.37792969 880.77734375 988.73828125 1064.77441406 883.75390625 1174.40820312 c 5
 915.954101562 1143.12207031 949.98828125 1107.99316406 982.5 1075.09472656 c 4
 1099.98730469 956.208984375 1173.5625 785.782226562 1173.54785156 602.015625 c 4
 1173.56347656 263 925.563476562 -100 602.563476562 -100 c 2
 204.547851562 -100 l 1
 171.388671875 -66.6435546875 137.815429688 -33.7001953125 105 0 c 1
452.484375 246 m 1
 419.176757812 246 385.870117188 246 352.5625 246 c 1
 352.5625 1089 l 5
 402.895507812 1089 453.229492188 1089 503.5625 1089 c 4
 603.233398438 1089 696.374023438 1032.859375 756.975585938 942.439453125 c 5
 756.124023438 941.90625 l 5
 709.749023438 972.109375 657.124023438 989 602.546875 989 c 6
 452.5625 989 l 5
 452.5625 267.829101562 l 1
 452.484375 246 l 1
EndSplineSet
EndChar

StartChar: E
Encoding: 69 69 4
Width: 1153
VWidth: 0
Flags: HMW
LayerCount: 2
UndoRedoHistory
Layer: 1
Undoes
UndoOperation
Index: 0
Type: 1
WasModified: 1
WasOrder2: 0
Layer: 2
Width: 1153
VWidth: 0
LBearingChange: 0
UnicodeEnc: 0
InstructionsLength: 0
SplineSet
948.984375 196 m 1
 1047.984375 97.015625 l 1
 1047.984375 -100.000976562 l 1
 203.984375 -100.000976562 l 1
 105 -1.0009765625 l 1
 106.000976562 0 l 1
 948.984375 0 l 1
 948.984375 82.3330078125 948.984375 113.666992188 948.984375 196 c 1
452.000976562 686 m 5
 418.66796875 686 385.333984375 686 352.000976562 686 c 5
 352.000976562 961 l 1
 550.66796875 961 749.333984375 961 948.000976562 961 c 1
 948.000976562 1172 l 1
 949.000976562 1173 l 1
 1048.00097656 1074 l 1
 1048.00097656 861 l 1
 452.000976562 861 l 1
 452.000976562 810 452.000976562 737 452.000976562 686 c 5
785.984375 687 m 5
 884.984375 588 l 5
 884.984375 370 l 1
 452 370 l 1
 452 195 l 1
 352 195 l 1
 352 470 l 1
 785.984375 470 l 1
 785.984375 552.333007812 785.984375 604.666992188 785.984375 687 c 5
EndSplineSet
EndUndoOperation
UndoOperation
Index: 1
Type: 1
WasModified: 1
WasOrder2: 0
Layer: 2
Width: 1153
VWidth: 0
LBearingChange: 0
UnicodeEnc: 0
InstructionsLength: 0
SplineSet
948.984375 206 m 5
 1047.984375 107.015625 l 5
 1047.984375 -100.000976562 l 1
 203.984375 -100.000976562 l 1
 105 -1.0009765625 l 1
 106.000976562 0 l 1
 948.984375 0 l 1
 948.984375 82.3330078125 948.984375 123.666992188 948.984375 206 c 5
452.000976562 686 m 1
 418.66796875 686 385.333984375 686 352.000976562 686 c 1
 352.000976562 961 l 1
 550.66796875 961 749.333984375 961 948.000976562 961 c 1
 948.000976562 1172 l 1
 949.000976562 1173 l 1
 1048.00097656 1074 l 1
 1048.00097656 861 l 1
 452.000976562 861 l 1
 452.000976562 810 452.000976562 737 452.000976562 686 c 1
785.984375 687 m 1
 884.984375 588 l 1
 884.984375 370 l 1
 452 370 l 1
 452 205 l 5
 352 205 l 5
 352 470 l 1
 785.984375 470 l 1
 785.984375 552.333007812 785.984375 604.666992188 785.984375 687 c 1
EndSplineSet
EndUndoOperation
UndoOperation
Index: 2
Type: 1
WasModified: 1
WasOrder2: 0
Layer: 2
Width: 1153
VWidth: 0
LBearingChange: 0
UnicodeEnc: 0
InstructionsLength: 0
SplineSet
948.984375 206 m 1
 1047.984375 107.015625 l 1
 1047.984375 -100.000976562 l 1
 203.984375 -100.000976562 l 1
 105 -1.0009765625 l 1
 106.000976562 0 l 1
 948.984375 0 l 1
 948.984375 82.3330078125 948.984375 123.666992188 948.984375 206 c 1
452.000976562 696 m 5
 418.66796875 696 385.333984375 696 352.000976562 696 c 5
 352.000976562 961 l 1
 550.66796875 961 749.333984375 961 948.000976562 961 c 1
 948.000976562 1172 l 1
 949.000976562 1173 l 1
 1048.00097656 1074 l 1
 1048.00097656 861 l 1
 452.000976562 861 l 1
 452.000976562 810 452.000976562 747 452.000976562 696 c 5
785.984375 697 m 5
 884.984375 598 l 5
 884.984375 380 l 5
 452 380 l 5
 452 205 l 1
 352 205 l 1
 352 480 l 5
 785.984375 480 l 5
 785.984375 562.333007812 785.984375 614.666992188 785.984375 697 c 5
EndSplineSet
EndUndoOperation
UndoOperation
Index: 3
Type: 1
WasModified: 1
WasOrder2: 0
Layer: 2
Width: 1153
VWidth: 0
LBearingChange: 0
UnicodeEnc: 0
InstructionsLength: 0
SplineSet
948.984375 206 m 1
 1047.984375 107.015625 l 1
 1047.984375 -100.000976562 l 1
 203.984375 -100.000976562 l 1
 105 -1.0009765625 l 1
 106.000976562 0 l 1
 948.984375 0 l 1
 948.984375 82.3330078125 948.984375 123.666992188 948.984375 206 c 1
452.000976562 706 m 5
 418.66796875 706 385.333984375 706 352.000976562 706 c 5
 352.000976562 961 l 1
 550.66796875 961 749.333984375 961 948.000976562 961 c 1
 948.000976562 1172 l 1
 949.000976562 1173 l 1
 1048.00097656 1074 l 1
 1048.00097656 861 l 1
 452.000976562 861 l 1
 452.000976562 810 452.000976562 757 452.000976562 706 c 5
785.984375 707 m 5
 884.984375 608 l 5
 884.984375 390 l 5
 452 390 l 5
 452 205 l 1
 352 205 l 1
 352 490 l 5
 785.984375 490 l 5
 785.984375 572.333007812 785.984375 624.666992188 785.984375 707 c 5
EndSplineSet
EndUndoOperation
UndoOperation
Index: 4
Type: 1
WasModified: 1
WasOrder2: 0
Layer: 2
Width: 1153
VWidth: 0
LBearingChange: 0
UnicodeEnc: 0
InstructionsLength: 0
SplineSet
948.984375 206 m 1
 1047.984375 107.015625 l 1
 1047.984375 -100.000976562 l 1
 203.984375 -100.000976562 l 1
 105 -1.0009765625 l 1
 106.000976562 0 l 1
 948.984375 0 l 1
 948.984375 82.3330078125 948.984375 123.666992188 948.984375 206 c 1
452.000976562 716 m 5
 418.66796875 716 385.333984375 716 352.000976562 716 c 5
 352.000976562 961 l 1
 550.66796875 961 749.333984375 961 948.000976562 961 c 1
 948.000976562 1172 l 1
 949.000976562 1173 l 1
 1048.00097656 1074 l 1
 1048.00097656 861 l 1
 452.000976562 861 l 1
 452.000976562 810 452.000976562 767 452.000976562 716 c 5
785.984375 717 m 5
 884.984375 618 l 5
 884.984375 400 l 5
 452 400 l 5
 452 205 l 1
 352 205 l 1
 352 500 l 5
 785.984375 500 l 5
 785.984375 582.333007812 785.984375 634.666992188 785.984375 717 c 5
EndSplineSet
EndUndoOperation
UndoOperation
Index: 5
Type: 1
WasModified: 1
WasOrder2: 0
Layer: 2
Width: 1153
VWidth: 0
LBearingChange: 0
UnicodeEnc: 0
InstructionsLength: 0
SplineSet
948.984375 206 m 1
 1047.984375 107.015625 l 1
 1047.984375 -100.000976562 l 1
 203.984375 -100.000976562 l 1
 105 -1.0009765625 l 1
 106.000976562 0 l 1
 948.984375 0 l 1
 948.984375 82.3330078125 948.984375 123.666992188 948.984375 206 c 1
452.000976562 716 m 1
 418.66796875 716 385.333984375 716 352.000976562 716 c 1
 352.000976562 971 l 5
 550.66796875 971 749.333984375 971 948.000976562 971 c 5
 948.000976562 1172 l 1
 949.000976562 1173 l 1
 1048.00097656 1074 l 1
 1048.00097656 871 l 5
 452.000976562 871 l 5
 452.000976562 820 452.000976562 767 452.000976562 716 c 1
785.984375 717 m 1
 884.984375 618 l 1
 884.984375 400 l 1
 452 400 l 1
 452 205 l 1
 352 205 l 1
 352 500 l 1
 785.984375 500 l 1
 785.984375 582.333007812 785.984375 634.666992188 785.984375 717 c 1
EndSplineSet
EndUndoOperation
UndoOperation
Index: 6
Type: 1
WasModified: 1
WasOrder2: 0
Layer: 2
Width: 1153
VWidth: 0
LBearingChange: 0
UnicodeEnc: 0
InstructionsLength: 0
SplineSet
948.984375 206 m 1
 1047.984375 107.015625 l 1
 1047.984375 -100.000976562 l 1
 203.984375 -100.000976562 l 1
 105 -1.0009765625 l 1
 106.000976562 0 l 1
 948.984375 0 l 1
 948.984375 82.3330078125 948.984375 123.666992188 948.984375 206 c 1
452.000976562 716 m 1
 418.66796875 716 385.333984375 716 352.000976562 716 c 1
 352.000976562 981 l 5
 550.66796875 981 749.333984375 981 948.000976562 981 c 5
 948.000976562 1172 l 1
 949.000976562 1173 l 1
 1048.00097656 1074 l 1
 1048.00097656 881 l 5
 452.000976562 881 l 5
 452.000976562 830 452.000976562 767 452.000976562 716 c 1
785.984375 717 m 1
 884.984375 618 l 1
 884.984375 400 l 1
 452 400 l 1
 452 205 l 1
 352 205 l 1
 352 500 l 1
 785.984375 500 l 1
 785.984375 582.333007812 785.984375 634.666992188 785.984375 717 c 1
EndSplineSet
EndUndoOperation
UndoOperation
Index: 7
Type: 1
WasModified: 1
WasOrder2: 0
Layer: 2
Width: 1153
VWidth: 0
LBearingChange: 0
UnicodeEnc: 0
InstructionsLength: 0
SplineSet
948.984375 206 m 1
 1047.984375 107.015625 l 1
 1047.984375 -100.000976562 l 1
 203.984375 -100.000976562 l 1
 105 -1.0009765625 l 1
 106.000976562 0 l 1
 948.984375 0 l 1
 948.984375 82.3330078125 948.984375 123.666992188 948.984375 206 c 1
452.000976562 716 m 1
 418.66796875 716 385.333984375 716 352.000976562 716 c 1
 352.000976562 991 l 5
 550.66796875 991 749.333984375 991 948.000976562 991 c 5
 948.000976562 1172 l 1
 949.000976562 1173 l 1
 1048.00097656 1074 l 1
 1048.00097656 891 l 5
 452.000976562 891 l 5
 452.000976562 840 452.000976562 767 452.000976562 716 c 1
785.984375 717 m 1
 884.984375 618 l 1
 884.984375 400 l 1
 452 400 l 1
 452 205 l 1
 352 205 l 1
 352 500 l 1
 785.984375 500 l 1
 785.984375 582.333007812 785.984375 634.666992188 785.984375 717 c 1
EndSplineSet
EndUndoOperation
UndoOperation
Index: 8
Type: 1
WasModified: 1
WasOrder2: 0
Layer: 2
Width: 1153
VWidth: 0
LBearingChange: 0
UnicodeEnc: 0
InstructionsLength: 0
SplineSet
948.984375 206 m 1
 1047.984375 107.015625 l 1
 1047.984375 -100.000976562 l 1
 203.984375 -100.000976562 l 1
 105 -1.0009765625 l 1
 106.000976562 0 l 1
 948.984375 0 l 1
 948.984375 82.3330078125 948.984375 123.666992188 948.984375 206 c 1
452.000976562 716 m 1
 418.66796875 716 385.333984375 716 352.000976562 716 c 1
 352.000976562 991 l 1
 550.66796875 991 749.333984375 991 948.000976562 991 c 1
 948.000976562 1182 l 5
 949.000976562 1183 l 5
 1048.00097656 1084 l 5
 1048.00097656 891 l 1
 452.000976562 891 l 1
 452.000976562 840 452.000976562 767 452.000976562 716 c 1
785.984375 717 m 1
 884.984375 618 l 1
 884.984375 400 l 1
 452 400 l 1
 452 205 l 1
 352 205 l 1
 352 500 l 1
 785.984375 500 l 1
 785.984375 582.333007812 785.984375 634.666992188 785.984375 717 c 1
EndSplineSet
EndUndoOperation
UndoOperation
Index: 9
Type: 1
WasModified: 1
WasOrder2: 0
Layer: 2
Width: 1153
VWidth: 0
LBearingChange: 0
UnicodeEnc: 0
InstructionsLength: 0
SplineSet
948.984375 206 m 1
 1047.984375 107.015625 l 1
 1047.984375 -100.000976562 l 1
 203.984375 -100.000976562 l 1
 105 -1.0009765625 l 1
 106.000976562 0 l 1
 948.984375 0 l 1
 948.984375 82.3330078125 948.984375 123.666992188 948.984375 206 c 1
452.000976562 716 m 1
 418.66796875 716 385.333984375 716 352.000976562 716 c 1
 352.000976562 991 l 1
 550.66796875 991 749.333984375 991 948.000976562 991 c 1
 948.000976562 1192 l 5
 949.000976562 1193 l 5
 1048.00097656 1094 l 5
 1048.00097656 891 l 1
 452.000976562 891 l 1
 452.000976562 840 452.000976562 767 452.000976562 716 c 1
785.984375 717 m 1
 884.984375 618 l 1
 884.984375 400 l 1
 452 400 l 1
 452 205 l 1
 352 205 l 1
 352 500 l 1
 785.984375 500 l 1
 785.984375 582.333007812 785.984375 634.666992188 785.984375 717 c 1
EndSplineSet
EndUndoOperation
UndoOperation
Index: 10
Type: 1
WasModified: 1
WasOrder2: 0
Layer: 2
Width: 1153
VWidth: 0
LBearingChange: 0
UnicodeEnc: 0
InstructionsLength: 0
SplineSet
948.984375 206 m 1
 1047.984375 107.015625 l 1
 1047.984375 -100.000976562 l 1
 203.984375 -100.000976562 l 1
 105 -1.0009765625 l 1
 106.000976562 0 l 1
 948.984375 0 l 1
 948.984375 82.3330078125 948.984375 123.666992188 948.984375 206 c 1
452.000976562 716 m 1
 418.66796875 716 385.333984375 716 352.000976562 716 c 1
 352.000976562 991 l 1
 550.66796875 991 749.333984375 991 948.000976562 991 c 1
 948.000976562 1202 l 5
 949.000976562 1203 l 5
 1048.00097656 1104 l 5
 1048.00097656 891 l 1
 452.000976562 891 l 1
 452.000976562 840 452.000976562 767 452.000976562 716 c 1
785.984375 717 m 1
 884.984375 618 l 1
 884.984375 400 l 1
 452 400 l 1
 452 205 l 1
 352 205 l 1
 352 500 l 1
 785.984375 500 l 1
 785.984375 582.333007812 785.984375 634.666992188 785.984375 717 c 1
EndSplineSet
EndUndoOperation
UndoOperation
Index: 11
Type: 1
WasModified: 1
WasOrder2: 0
Layer: 2
Width: 1153
VWidth: 0
LBearingChange: 0
UnicodeEnc: 0
InstructionsLength: 0
SplineSet
948.984375 206 m 1
 1047.984375 107.015625 l 1
 1047.984375 -100.000976562 l 1
 203.984375 -100.000976562 l 1
 105 -1.0009765625 l 1
 106.000976562 0 l 1
 948.984375 0 l 1
 948.984375 82.3330078125 948.984375 123.666992188 948.984375 206 c 1
452.000976562 726 m 5
 418.66796875 726 385.333984375 726 352.000976562 726 c 5
 352.000976562 991 l 1
 550.66796875 991 749.333984375 991 948.000976562 991 c 1
 948.000976562 1202 l 1
 949.000976562 1203 l 1
 1048.00097656 1104 l 1
 1048.00097656 891 l 1
 452.000976562 891 l 1
 452.000976562 840 452.000976562 777 452.000976562 726 c 5
785.984375 717 m 1
 884.984375 618 l 1
 884.984375 400 l 1
 452 400 l 1
 452 205 l 1
 352 205 l 1
 352 500 l 1
 785.984375 500 l 1
 785.984375 582.333007812 785.984375 634.666992188 785.984375 717 c 1
EndSplineSet
EndUndoOperation
UndoOperation
Index: 12
Type: 1
WasModified: 1
WasOrder2: 0
Layer: 2
Width: 1153
VWidth: 0
LBearingChange: 0
UnicodeEnc: 0
InstructionsLength: 0
SplineSet
948.984375 206 m 1
 1047.984375 107.015625 l 1
 1047.984375 -100.000976562 l 1
 203.984375 -100.000976562 l 1
 105 -1.0009765625 l 1
 106.000976562 0 l 1
 948.984375 0 l 1
 948.984375 82.3330078125 948.984375 123.666992188 948.984375 206 c 1
452.000976562 736 m 5
 418.66796875 736 385.333984375 736 352.000976562 736 c 5
 352.000976562 991 l 1
 550.66796875 991 749.333984375 991 948.000976562 991 c 1
 948.000976562 1202 l 1
 949.000976562 1203 l 1
 1048.00097656 1104 l 1
 1048.00097656 891 l 1
 452.000976562 891 l 1
 452.000976562 840 452.000976562 787 452.000976562 736 c 5
785.984375 717 m 1
 884.984375 618 l 1
 884.984375 400 l 1
 452 400 l 1
 452 205 l 1
 352 205 l 1
 352 500 l 1
 785.984375 500 l 1
 785.984375 582.333007812 785.984375 634.666992188 785.984375 717 c 1
EndSplineSet
EndUndoOperation
UndoOperation
Index: 13
Type: 1
WasModified: 1
WasOrder2: 0
Layer: 2
Width: 1153
VWidth: 0
LBearingChange: 0
UnicodeEnc: 0
InstructionsLength: 0
SplineSet
948.984375 206 m 1
 1047.984375 107.015625 l 1
 1047.984375 -100.000976562 l 1
 203.984375 -100.000976562 l 1
 105 -1.0009765625 l 1
 106.000976562 0 l 1
 948.984375 0 l 1
 948.984375 82.3330078125 948.984375 123.666992188 948.984375 206 c 1
452.000976562 746 m 5
 418.66796875 746 385.333984375 746 352.000976562 746 c 5
 352.000976562 991 l 1
 550.66796875 991 749.333984375 991 948.000976562 991 c 1
 948.000976562 1202 l 1
 949.000976562 1203 l 1
 1048.00097656 1104 l 1
 1048.00097656 891 l 1
 452.000976562 891 l 1
 452.000976562 840 452.000976562 797 452.000976562 746 c 5
785.984375 717 m 1
 884.984375 618 l 1
 884.984375 400 l 1
 452 400 l 1
 452 205 l 1
 352 205 l 1
 352 500 l 1
 785.984375 500 l 1
 785.984375 582.333007812 785.984375 634.666992188 785.984375 717 c 1
EndSplineSet
EndUndoOperation
UndoOperation
Index: 14
Type: 1
WasModified: 1
WasOrder2: 0
Layer: 2
Width: 1153
VWidth: 0
LBearingChange: 0
UnicodeEnc: 0
InstructionsLength: 0
SplineSet
948.984375 206 m 1
 1047.984375 107.015625 l 1
 1047.984375 -100.000976562 l 1
 203.984375 -100.000976562 l 1
 105 -1.0009765625 l 1
 106.000976562 0 l 1
 948.984375 0 l 1
 948.984375 82.3330078125 948.984375 123.666992188 948.984375 206 c 1
452.000976562 746 m 1
 418.66796875 746 385.333984375 746 352.000976562 746 c 1
 352.000976562 991 l 1
 550.66796875 991 749.333984375 991 948.000976562 991 c 1
 948.000976562 1202 l 1
 949.000976562 1203 l 1
 1048.00097656 1104 l 1
 1048.00097656 891 l 1
 452.000976562 891 l 1
 452.000976562 840 452.000976562 797 452.000976562 746 c 1
785.984375 717 m 1
 884.984375 618 l 1
 884.984375 400 l 1
 452 400 l 1
 452 215 l 5
 352 215 l 5
 352 500 l 1
 785.984375 500 l 1
 785.984375 582.333007812 785.984375 634.666992188 785.984375 717 c 1
EndSplineSet
EndUndoOperation
UndoOperation
Index: 15
Type: 1
WasModified: 1
WasOrder2: 0
Layer: 2
Width: 1153
VWidth: 0
LBearingChange: 0
UnicodeEnc: 0
InstructionsLength: 0
SplineSet
948.984375 206 m 1
 1047.984375 107.015625 l 1
 1047.984375 -100.000976562 l 1
 203.984375 -100.000976562 l 1
 105 -1.0009765625 l 1
 106.000976562 0 l 1
 948.984375 0 l 1
 948.984375 82.3330078125 948.984375 123.666992188 948.984375 206 c 1
452.000976562 746 m 1
 418.66796875 746 385.333984375 746 352.000976562 746 c 1
 352.000976562 991 l 1
 550.66796875 991 749.333984375 991 948.000976562 991 c 1
 948.000976562 1202 l 1
 949.000976562 1203 l 1
 1048.00097656 1104 l 1
 1048.00097656 891 l 1
 452.000976562 891 l 1
 452.000976562 840 452.000976562 797 452.000976562 746 c 1
785.984375 717 m 1
 884.984375 618 l 1
 884.984375 400 l 1
 452 400 l 1
 452 225 l 5
 352 225 l 5
 352 500 l 1
 785.984375 500 l 1
 785.984375 582.333007812 785.984375 634.666992188 785.984375 717 c 1
EndSplineSet
EndUndoOperation
UndoOperation
Index: 16
Type: 1
WasModified: 1
WasOrder2: 0
Layer: 2
Width: 1153
VWidth: 0
LBearingChange: 0
UnicodeEnc: 0
InstructionsLength: 0
SplineSet
948.984375 206 m 1
 1047.984375 107.015625 l 1
 1047.984375 -100.000976562 l 1
 203.984375 -100.000976562 l 1
 105 -1.0009765625 l 1
 106.000976562 0 l 1
 948.984375 0 l 1
 948.984375 82.3330078125 948.984375 123.666992188 948.984375 206 c 1
452.000976562 746 m 1
 418.66796875 746 385.333984375 746 352.000976562 746 c 1
 352.000976562 991 l 1
 550.66796875 991 749.333984375 991 948.000976562 991 c 1
 948.000976562 1202 l 1
 949.000976562 1203 l 1
 1048.00097656 1104 l 1
 1048.00097656 891 l 1
 452.000976562 891 l 1
 452.000976562 840 452.000976562 797 452.000976562 746 c 1
785.984375 717 m 1
 884.984375 618 l 1
 884.984375 400 l 1
 452 400 l 1
 452 235 l 5
 352 235 l 5
 352 500 l 1
 785.984375 500 l 1
 785.984375 582.333007812 785.984375 634.666992188 785.984375 717 c 1
EndSplineSet
EndUndoOperation
UndoOperation
Index: 17
Type: 1
WasModified: 1
WasOrder2: 0
Layer: 2
Width: 1153
VWidth: 0
LBearingChange: 0
UnicodeEnc: 0
InstructionsLength: 0
SplineSet
948.984375 216 m 5
 1047.984375 117.015625 l 5
 1047.984375 -100.000976562 l 1
 203.984375 -100.000976562 l 1
 105 -1.0009765625 l 1
 106.000976562 0 l 1
 948.984375 0 l 1
 948.984375 82.3330078125 948.984375 133.666992188 948.984375 216 c 5
452.000976562 746 m 1
 418.66796875 746 385.333984375 746 352.000976562 746 c 1
 352.000976562 991 l 1
 550.66796875 991 749.333984375 991 948.000976562 991 c 1
 948.000976562 1202 l 1
 949.000976562 1203 l 1
 1048.00097656 1104 l 1
 1048.00097656 891 l 1
 452.000976562 891 l 1
 452.000976562 840 452.000976562 797 452.000976562 746 c 1
785.984375 717 m 1
 884.984375 618 l 1
 884.984375 400 l 1
 452 400 l 1
 452 235 l 1
 352 235 l 1
 352 500 l 1
 785.984375 500 l 1
 785.984375 582.333007812 785.984375 634.666992188 785.984375 717 c 1
EndSplineSet
EndUndoOperation
UndoOperation
Index: 18
Type: 1
WasModified: 1
WasOrder2: 0
Layer: 2
Width: 1153
VWidth: 0
LBearingChange: 0
UnicodeEnc: 0
InstructionsLength: 0
SplineSet
948.984375 226 m 5
 1047.984375 127.015625 l 5
 1047.984375 -100.000976562 l 1
 203.984375 -100.000976562 l 1
 105 -1.0009765625 l 1
 106.000976562 0 l 1
 948.984375 0 l 1
 948.984375 82.3330078125 948.984375 143.666992188 948.984375 226 c 5
452.000976562 746 m 1
 418.66796875 746 385.333984375 746 352.000976562 746 c 1
 352.000976562 991 l 1
 550.66796875 991 749.333984375 991 948.000976562 991 c 1
 948.000976562 1202 l 1
 949.000976562 1203 l 1
 1048.00097656 1104 l 1
 1048.00097656 891 l 1
 452.000976562 891 l 1
 452.000976562 840 452.000976562 797 452.000976562 746 c 1
785.984375 717 m 1
 884.984375 618 l 1
 884.984375 400 l 1
 452 400 l 1
 452 235 l 1
 352 235 l 1
 352 500 l 1
 785.984375 500 l 1
 785.984375 582.333007812 785.984375 634.666992188 785.984375 717 c 1
EndSplineSet
EndUndoOperation
UndoOperation
Index: 19
Type: 1
WasModified: 1
WasOrder2: 0
Layer: 2
Width: 1153
VWidth: 0
LBearingChange: 0
UnicodeEnc: 0
InstructionsLength: 0
SplineSet
948.984375 236 m 5
 1047.984375 137.015625 l 5
 1047.984375 -100.000976562 l 1
 203.984375 -100.000976562 l 1
 105 -1.0009765625 l 1
 106.000976562 0 l 1
 948.984375 0 l 1
 948.984375 82.3330078125 948.984375 153.666992188 948.984375 236 c 5
452.000976562 746 m 1
 418.66796875 746 385.333984375 746 352.000976562 746 c 1
 352.000976562 991 l 1
 550.66796875 991 749.333984375 991 948.000976562 991 c 1
 948.000976562 1202 l 1
 949.000976562 1203 l 1
 1048.00097656 1104 l 1
 1048.00097656 891 l 1
 452.000976562 891 l 1
 452.000976562 840 452.000976562 797 452.000976562 746 c 1
785.984375 717 m 1
 884.984375 618 l 1
 884.984375 400 l 1
 452 400 l 1
 452 235 l 1
 352 235 l 1
 352 500 l 1
 785.984375 500 l 1
 785.984375 582.333007812 785.984375 634.666992188 785.984375 717 c 1
EndSplineSet
EndUndoOperation
UndoOperation
Index: 20
Type: 1
WasModified: 1
WasOrder2: 0
Layer: 2
Width: 1153
VWidth: 0
LBearingChange: 0
UnicodeEnc: 0
InstructionsLength: 0
SplineSet
948.984375 236 m 1
 1047.984375 137.015625 l 1
 1047.984375 -100.000976562 l 1
 203.984375 -100.000976562 l 1
 105 -1.0009765625 l 1
 106.000976562 0 l 1
 948.984375 0 l 1
 948.984375 82.3330078125 948.984375 153.666992188 948.984375 236 c 1
452.000976562 746 m 1
 418.66796875 746 385.333984375 746 352.000976562 746 c 1
 352.000976562 991 l 1
 550.66796875 991 749.333984375 991 948.000976562 991 c 1
 948.000976562 1202 l 1
 949.000976562 1203 l 1
 1048.00097656 1104 l 1
 1048.00097656 891 l 1
 452.000976562 891 l 1
 452.000976562 840 452.000976562 797 452.000976562 746 c 1
785.984375 727 m 5
 884.984375 628 l 5
 884.984375 400 l 1
 452 400 l 1
 452 235 l 1
 352 235 l 1
 352 500 l 1
 785.984375 500 l 1
 785.984375 582.333007812 785.984375 644.666992188 785.984375 727 c 5
EndSplineSet
EndUndoOperation
UndoOperation
Index: 21
Type: 1
WasModified: 1
WasOrder2: 0
Layer: 2
Width: 1153
VWidth: 0
LBearingChange: 0
UnicodeEnc: 0
InstructionsLength: 0
SplineSet
948.984375 236 m 1
 1047.984375 137.015625 l 1
 1047.984375 -100.000976562 l 1
 203.984375 -100.000976562 l 1
 105 -1.0009765625 l 1
 106.000976562 0 l 1
 948.984375 0 l 1
 948.984375 82.3330078125 948.984375 153.666992188 948.984375 236 c 1
452.000976562 746 m 1
 418.66796875 746 385.333984375 746 352.000976562 746 c 1
 352.000976562 991 l 1
 550.66796875 991 749.333984375 991 948.000976562 991 c 1
 948.000976562 1202 l 1
 949.000976562 1203 l 1
 1048.00097656 1104 l 1
 1048.00097656 891 l 1
 452.000976562 891 l 1
 452.000976562 840 452.000976562 797 452.000976562 746 c 1
785.984375 737 m 5
 884.984375 638 l 5
 884.984375 400 l 1
 452 400 l 1
 452 235 l 1
 352 235 l 1
 352 500 l 1
 785.984375 500 l 1
 785.984375 582.333007812 785.984375 654.666992188 785.984375 737 c 5
EndSplineSet
EndUndoOperation
UndoOperation
Index: 22
Type: 1
WasModified: 1
WasOrder2: 0
Layer: 2
Width: 1153
VWidth: 0
LBearingChange: 0
UnicodeEnc: 0
InstructionsLength: 0
SplineSet
948.984375 236 m 1
 1047.984375 137.015625 l 1
 1047.984375 -100.000976562 l 1
 203.984375 -100.000976562 l 1
 105 -1.0009765625 l 1
 106.000976562 0 l 1
 948.984375 0 l 1
 948.984375 82.3330078125 948.984375 153.666992188 948.984375 236 c 1
452.000976562 746 m 1
 418.66796875 746 385.333984375 746 352.000976562 746 c 1
 352.000976562 991 l 1
 550.66796875 991 749.333984375 991 948.000976562 991 c 1
 948.000976562 1202 l 1
 949.000976562 1203 l 1
 1048.00097656 1104 l 1
 1048.00097656 891 l 1
 452.000976562 891 l 1
 452.000976562 840 452.000976562 797 452.000976562 746 c 1
785.984375 747 m 5
 884.984375 648 l 5
 884.984375 400 l 1
 452 400 l 1
 452 235 l 1
 352 235 l 1
 352 500 l 1
 785.984375 500 l 1
 785.984375 582.333007812 785.984375 664.666992188 785.984375 747 c 5
EndSplineSet
EndUndoOperation
UndoOperation
Index: 23
Type: 1
WasModified: 1
WasOrder2: 0
Layer: 2
Width: 1153
VWidth: 0
LBearingChange: 0
UnicodeEnc: 0
InstructionsLength: 0
SplineSet
948.984375 236 m 1
 1047.984375 137.015625 l 1
 1047.984375 -100.000976562 l 1
 203.984375 -100.000976562 l 1
 105 -1.0009765625 l 1
 106.000976562 0 l 1
 948.984375 0 l 1
 948.984375 82.3330078125 948.984375 153.666992188 948.984375 236 c 1
452.000976562 746 m 1
 418.66796875 746 385.333984375 746 352.000976562 746 c 1
 352.000976562 991 l 1
 550.66796875 991 749.333984375 991 948.000976562 991 c 1
 948.000976562 1212 l 5
 949.000976562 1213 l 5
 1048.00097656 1114 l 5
 1048.00097656 891 l 1
 452.000976562 891 l 1
 452.000976562 840 452.000976562 797 452.000976562 746 c 1
785.984375 747 m 1
 884.984375 648 l 1
 884.984375 400 l 1
 452 400 l 1
 452 235 l 1
 352 235 l 1
 352 500 l 1
 785.984375 500 l 1
 785.984375 582.333007812 785.984375 664.666992188 785.984375 747 c 1
EndSplineSet
EndUndoOperation
UndoOperation
Index: 24
Type: 1
WasModified: 1
WasOrder2: 0
Layer: 2
Width: 1153
VWidth: 0
LBearingChange: 0
UnicodeEnc: 0
InstructionsLength: 0
SplineSet
948.984375 236 m 1
 1047.984375 137.015625 l 1
 1047.984375 -100.000976562 l 1
 203.984375 -100.000976562 l 1
 105 -1.0009765625 l 1
 106.000976562 0 l 1
 948.984375 0 l 1
 948.984375 82.3330078125 948.984375 153.666992188 948.984375 236 c 1
452.000976562 746 m 1
 418.66796875 746 385.333984375 746 352.000976562 746 c 1
 352.000976562 991 l 1
 550.66796875 991 749.333984375 991 948.000976562 991 c 1
 948.000976562 1222 l 5
 949.000976562 1223 l 5
 1048.00097656 1124 l 5
 1048.00097656 891 l 1
 452.000976562 891 l 1
 452.000976562 840 452.000976562 797 452.000976562 746 c 1
785.984375 747 m 1
 884.984375 648 l 1
 884.984375 400 l 1
 452 400 l 1
 452 235 l 1
 352 235 l 1
 352 500 l 1
 785.984375 500 l 1
 785.984375 582.333007812 785.984375 664.666992188 785.984375 747 c 1
EndSplineSet
EndUndoOperation
UndoOperation
Index: 25
Type: 1
WasModified: 0
WasOrder2: 0
Layer: 2
Width: 1153
VWidth: 0
LBearingChange: 0
UnicodeEnc: 0
InstructionsLength: 0
SplineSet
948.984375 236 m 1
 1047.984375 137.015625 l 1
 1047.984375 -100.000976562 l 1
 203.984375 -100.000976562 l 1
 105 -1.0009765625 l 1
 106.000976562 0 l 1
 948.984375 0 l 1
 948.984375 82.3330078125 948.984375 153.666992188 948.984375 236 c 1
452.000976562 746 m 1
 418.66796875 746 385.333984375 746 352.000976562 746 c 1
 352.000976562 991 l 1
 550.66796875 991 749.333984375 991 948.000976562 991 c 1
 948.000976562 1232 l 5
 949.000976562 1233 l 5
 1048.00097656 1134 l 5
 1048.00097656 891 l 1
 452.000976562 891 l 1
 452.000976562 840 452.000976562 797 452.000976562 746 c 1
785.984375 747 m 1
 884.984375 648 l 1
 884.984375 400 l 1
 452 400 l 1
 452 235 l 1
 352 235 l 1
 352 500 l 1
 785.984375 500 l 1
 785.984375 582.333007812 785.984375 664.666992188 785.984375 747 c 1
EndSplineSet
EndUndoOperation
UndoOperation
Index: 26
Type: 1
WasModified: 1
WasOrder2: 0
Layer: 2
Width: 1153
VWidth: 0
LBearingChange: 0
UnicodeEnc: 0
InstructionsLength: 0
SplineSet
948.984375 236 m 1
 1047.984375 137.015625 l 1
 1047.984375 -100.000976562 l 1
 203.984375 -100.000976562 l 1
 105 -1.0009765625 l 1
 106.000976562 0 l 1
 948.984375 0 l 1
 948.984375 82.3330078125 948.984375 153.666992188 948.984375 236 c 1
452.000976562 746 m 1
 418.66796875 746 385.333984375 746 352.000976562 746 c 1
 352.000976562 991 l 1
 550.66796875 991 749.333984375 991 948.000976562 991 c 1
 948.000976562 1233 l 5
 949.000976562 1234 l 5
 1048.00097656 1135 l 5
 1048.00097656 891 l 1
 452.000976562 891 l 1
 452.000976562 840 452.000976562 797 452.000976562 746 c 1
785.984375 747 m 1
 884.984375 648 l 1
 884.984375 400 l 1
 452 400 l 1
 452 235 l 1
 352 235 l 1
 352 500 l 1
 785.984375 500 l 1
 785.984375 582.333007812 785.984375 664.666992188 785.984375 747 c 1
EndSplineSet
EndUndoOperation
EndUndoes
Redoes
EndRedoes
EndUndoRedoHistory
Fore
SplineSet
948.984375 196 m 1
 1047.984375 97.015625 l 1
 1047.984375 -100.000976562 l 1
 203.984375 -100.000976562 l 1
 105 -1.0009765625 l 1
 106.000976562 0 l 1
 948.984375 0 l 1
 948.984375 82.3330078125 948.984375 113.666992188 948.984375 196 c 1
452.000976562 676 m 5
 418.66796875 676 385.333984375 676 352.000976562 676 c 5
 352.000976562 961 l 1
 550.66796875 961 749.333984375 961 948.000976562 961 c 1
 948.000976562 1172 l 1
 949.000976562 1173 l 1
 1048.00097656 1074 l 1
 1048.00097656 861 l 1
 452.000976562 861 l 1
 452.000976562 810 452.000976562 727 452.000976562 676 c 5
785.984375 677 m 5
 884.984375 578 l 5
 884.984375 370 l 1
 452 370 l 1
 452 195 l 1
 352 195 l 1
 352 470 l 1
 785.984375 470 l 1
 785.984375 552.333007812 785.984375 594.666992188 785.984375 677 c 5
EndSplineSet
EndChar

StartChar: F
Encoding: 70 70 5
Width: 1153
VWidth: 0
Flags: HMW
LayerCount: 2
UndoRedoHistory
Layer: 1
Undoes
UndoOperation
Index: 0
Type: 1
WasModified: 1
WasOrder2: 0
Layer: 2
Width: 1153
VWidth: 0
LBearingChange: 0
UnicodeEnc: 0
InstructionsLength: 0
SplineSet
1048 1141 m 5
 1048 895 l 1
 452 895 l 1
 452 709.015625 l 1
 352 709.015625 l 1
 352 995 l 1
 948 995 l 1
 948 1240 l 5
 1048 1141 l 5
775.015625 710 m 1
 874.984375 611 l 1
 874.984375 376 l 1
 452 376 l 1
 452 -100 l 1
 203.984375 -100 l 1
 105 0 l 1
 352.015625 0 l 1
 352.015625 162 352.015625 314 352.015625 476 c 1
 775.015625 476 l 1
 775.015625 558.333007812 775.015625 627.666992188 775.015625 710 c 1
EndSplineSet
EndUndoOperation
EndUndoes
Redoes
EndRedoes
EndUndoRedoHistory
Fore
SplineSet
1048 1140 m 5
 1048 895 l 1
 452 895 l 1
 452 709.015625 l 1
 352 709.015625 l 1
 352 995 l 1
 948 995 l 1
 948 1239 l 5
 1048 1140 l 5
775.015625 710 m 1
 874.984375 611 l 1
 874.984375 376 l 1
 452 376 l 1
 452 -100 l 1
 203.984375 -100 l 1
 105 0 l 1
 352.015625 0 l 1
 352.015625 162 352.015625 314 352.015625 476 c 1
 775.015625 476 l 1
 775.015625 558.333007812 775.015625 627.666992188 775.015625 710 c 1
EndSplineSet
EndChar

StartChar: G
Encoding: 71 71 6
Width: 1117
VWidth: 0
Flags: HMW
LayerCount: 2
UndoRedoHistory
Layer: 1
Undoes
UndoOperation
Index: 0
Type: 7
WasModified: 1
WasOrder2: 0
Layer: 2
Width: 1086
EndUndoOperation
EndUndoes
Redoes
RedoOperation
Index: 0
Type: 1
WasModified: 0
WasOrder2: 0
Layer: 2
Width: 1117
VWidth: 0
LBearingChange: 0
UnicodeEnc: 0
InstructionsLength: 0
SplineSet
159.454101562 660 m 4
 159.454101562 765.171875 187.485351562 875.358398438 244.657226562 954.59375 c 4
 307.782226562 1041.78125 379.095703125 1069 460.454101562 1069 c 0
 524.516601562 1069 589.345703125 1042.21875 649.532226562 975.40625 c 1
 833.850585938 1150.60253906 l 5
 933.453125 1051 l 5
 748.453125 885 l 5
 719.4375 914.015625 l 5
 667.78125 959.90625 613.25 979 559.454101562 979 c 4
 478.438476562 979 407.454101562 932 344.454101562 845 c 0
 287.454101562 766.015625 259.454101562 656.016601562 259.454101562 551 c 0
 259.454101562 449.516601562 285.305664062 366.93359375 336.024414062 292.18359375 c 5
 228.416992188 359.4375 159.454101562 505.525390625 159.454101562 660 c 4
665.65234375 427 m 1
 648.5859375 427 595.520507812 427 578.454101562 427 c 1
 479.454101562 527 l 1
 529.787109375 527 616.12109375 527 666.454101562 527 c 1
 666.454101562 498.127929688 l 2
 666.454101562 477.096679688 665.454101562 481.984375 665.454101562 459 c 0
 665.454101562 448.135742188 665.536132812 437.396484375 665.65234375 427 c 1
912.4375 747 m 1
 945.788085938 713.68359375 979.1015625 680.330078125 1012.43847656 647 c 1
 1012.45410156 519 1012.45410156 391 1012.45410156 263.015625 c 0
 1012.43847656 192 981.438476562 145 962.454101562 112 c 1
 859.454101562 -22 715.4375 -100 558.4375 -100 c 0
 430.407226562 -100 303.157226562 -44.671875 204 54.4833984375 c 2
 105 153.467773438 l 2
 203.817382812 55.2177734375 332.208007812 0 459.454101562 0 c 0
 616.063476562 0 759.907226562 77.90625 862.579101562 211.5 c 1
 881.610351562 244.546875 912.440429688 291.296875 912.4375 362.015625 c 2
 912.4375 747 l 1
EndSplineSet
EndRedoOperation
RedoOperation
Index: 1
Type: 1
WasModified: 1
WasOrder2: 0
Layer: 2
Width: 1117
VWidth: 0
LBearingChange: 0
UnicodeEnc: 0
InstructionsLength: 0
SplineSet
159.454101562 670 m 4
 159.454101562 775.171875 187.485351562 885.358398438 244.657226562 964.59375 c 4
 307.782226562 1051.78125 379.095703125 1069 460.454101562 1069 c 0
 524.516601562 1069 589.345703125 1042.21875 649.532226562 975.40625 c 1
 833.850585938 1160.60253906 l 5
 933.453125 1061 l 5
 748.453125 895 l 5
 719.4375 924.015625 l 5
 667.78125 969.90625 613.25 989 559.454101562 989 c 4
 478.438476562 989 407.454101562 932 344.454101562 845 c 0
 287.454101562 766.015625 259.454101562 656.016601562 259.454101562 551 c 0
 259.454101562 449.516601562 285.305664062 376.93359375 336.024414062 302.18359375 c 5
 228.416992188 369.4375 159.454101562 515.525390625 159.454101562 670 c 4
665.65234375 427 m 1
 648.5859375 427 595.520507812 427 578.454101562 427 c 1
 479.454101562 527 l 1
 529.787109375 527 616.12109375 527 666.454101562 527 c 1
 666.454101562 498.127929688 l 2
 666.454101562 477.096679688 665.454101562 481.984375 665.454101562 459 c 0
 665.454101562 448.135742188 665.536132812 437.396484375 665.65234375 427 c 1
912.4375 747 m 1
 945.788085938 713.68359375 979.1015625 680.330078125 1012.43847656 647 c 1
 1012.45410156 519 1012.45410156 391 1012.45410156 263.015625 c 0
 1012.43847656 192 981.438476562 145 962.454101562 112 c 1
 859.454101562 -22 715.4375 -100 558.4375 -100 c 0
 430.407226562 -100 303.157226562 -44.671875 204 54.4833984375 c 2
 105 153.467773438 l 2
 203.817382812 55.2177734375 332.208007812 0 459.454101562 0 c 0
 616.063476562 0 759.907226562 77.90625 862.579101562 211.5 c 1
 881.610351562 244.546875 912.440429688 291.296875 912.4375 362.015625 c 2
 912.4375 747 l 1
EndSplineSet
EndRedoOperation
RedoOperation
Index: 2
Type: 1
WasModified: 1
WasOrder2: 0
Layer: 2
Width: 1117
VWidth: 0
LBearingChange: 0
UnicodeEnc: 0
InstructionsLength: 0
SplineSet
159.454101562 660 m 4
 159.454101562 765.171875 187.485351562 875.358398438 244.657226562 954.59375 c 4
 307.782226562 1041.78125 379.095703125 1069 460.454101562 1069 c 0
 524.516601562 1069 589.345703125 1042.21875 649.532226562 975.40625 c 1
 833.850585938 1150.60253906 l 5
 933.453125 1051 l 5
 748.453125 885 l 5
 719.4375 914.015625 l 5
 667.78125 959.90625 613.25 979 559.454101562 979 c 4
 478.438476562 979 407.454101562 932 344.454101562 845 c 0
 287.454101562 766.015625 259.454101562 656.016601562 259.454101562 551 c 0
 259.454101562 449.516601562 285.305664062 366.93359375 336.024414062 292.18359375 c 5
 228.416992188 359.4375 159.454101562 505.525390625 159.454101562 660 c 4
665.65234375 427 m 1
 648.5859375 427 595.520507812 427 578.454101562 427 c 1
 479.454101562 527 l 1
 529.787109375 527 616.12109375 527 666.454101562 527 c 1
 666.454101562 498.127929688 l 2
 666.454101562 477.096679688 665.454101562 481.984375 665.454101562 459 c 0
 665.454101562 448.135742188 665.536132812 437.396484375 665.65234375 427 c 1
912.4375 747 m 1
 945.788085938 713.68359375 979.1015625 680.330078125 1012.43847656 647 c 1
 1012.45410156 519 1012.45410156 391 1012.45410156 263.015625 c 0
 1012.43847656 192 981.438476562 145 962.454101562 112 c 1
 859.454101562 -22 715.4375 -100 558.4375 -100 c 0
 430.407226562 -100 303.157226562 -44.671875 204 54.4833984375 c 2
 105 153.467773438 l 2
 203.817382812 55.2177734375 332.208007812 0 459.454101562 0 c 0
 616.063476562 0 759.907226562 77.90625 862.579101562 211.5 c 1
 881.610351562 244.546875 912.440429688 291.296875 912.4375 362.015625 c 2
 912.4375 747 l 1
EndSplineSet
EndRedoOperation
RedoOperation
Index: 3
Type: 1
WasModified: 1
WasOrder2: 0
Layer: 2
Width: 1117
VWidth: 0
LBearingChange: 0
UnicodeEnc: 0
InstructionsLength: 0
SplineSet
159.454101562 650 m 4
 159.454101562 755.171875 187.485351562 865.358398438 244.657226562 944.59375 c 0
 307.782226562 1031.78125 379.095703125 1069 460.454101562 1069 c 4
 524.516601562 1069 589.345703125 1042.21875 649.532226562 975.40625 c 1
 833.850585938 1140.60253906 l 5
 933.453125 1041 l 5
 748.453125 875 l 5
 719.4375 904.015625 l 1
 667.78125 949.90625 613.25 969 559.454101562 969 c 0
 478.438476562 969 407.454101562 932 344.454101562 845 c 0
 287.454101562 766.015625 259.454101562 656.016601562 259.454101562 551 c 0
 259.454101562 449.516601562 285.305664062 356.93359375 336.024414062 282.18359375 c 5
 228.416992188 349.4375 159.454101562 495.525390625 159.454101562 650 c 4
665.65234375 427 m 1
 648.5859375 427 595.520507812 427 578.454101562 427 c 1
 479.454101562 527 l 1
 529.787109375 527 616.12109375 527 666.454101562 527 c 1
 666.454101562 498.127929688 l 2
 666.454101562 477.096679688 665.454101562 481.984375 665.454101562 459 c 0
 665.454101562 448.135742188 665.536132812 437.396484375 665.65234375 427 c 1
912.4375 747 m 1
 945.788085938 713.68359375 979.1015625 680.330078125 1012.43847656 647 c 1
 1012.45410156 519 1012.45410156 391 1012.45410156 263.015625 c 0
 1012.43847656 192 981.438476562 145 962.454101562 112 c 1
 859.454101562 -22 715.4375 -100 558.4375 -100 c 0
 430.407226562 -100 303.157226562 -44.671875 204 54.4833984375 c 2
 105 153.467773438 l 2
 203.817382812 55.2177734375 332.208007812 0 459.454101562 0 c 0
 616.063476562 0 759.907226562 77.90625 862.579101562 211.5 c 1
 881.610351562 244.546875 912.440429688 291.296875 912.4375 362.015625 c 2
 912.4375 747 l 1
EndSplineSet
EndRedoOperation
RedoOperation
Index: 4
Type: 1
WasModified: 1
WasOrder2: 0
Layer: 2
Width: 1117
VWidth: 0
LBearingChange: 0
UnicodeEnc: 0
InstructionsLength: 0
SplineSet
159.454101562 660 m 4
 159.454101562 765.171875 187.485351562 865.358398438 244.657226562 944.59375 c 0
 307.782226562 1031.78125 379.095703125 1079 460.454101562 1079 c 4
 524.516601562 1079 589.345703125 1042.21875 649.532226562 975.40625 c 1
 833.850585938 1150.60253906 l 5
 933.453125 1051 l 5
 748.453125 885 l 5
 719.4375 904.015625 l 1
 667.78125 949.90625 613.25 969 559.454101562 969 c 0
 478.438476562 969 407.454101562 932 344.454101562 845 c 0
 287.454101562 766.015625 259.454101562 656.016601562 259.454101562 551 c 0
 259.454101562 449.516601562 285.305664062 366.93359375 336.024414062 292.18359375 c 5
 228.416992188 359.4375 159.454101562 505.525390625 159.454101562 660 c 4
665.65234375 427 m 1
 648.5859375 427 595.520507812 427 578.454101562 427 c 1
 479.454101562 527 l 1
 529.787109375 527 616.12109375 527 666.454101562 527 c 1
 666.454101562 498.127929688 l 2
 666.454101562 477.096679688 665.454101562 481.984375 665.454101562 459 c 0
 665.454101562 448.135742188 665.536132812 437.396484375 665.65234375 427 c 1
912.4375 747 m 1
 945.788085938 713.68359375 979.1015625 680.330078125 1012.43847656 647 c 1
 1012.45410156 519 1012.45410156 391 1012.45410156 263.015625 c 0
 1012.43847656 192 981.438476562 145 962.454101562 112 c 1
 859.454101562 -22 715.4375 -100 558.4375 -100 c 0
 430.407226562 -100 303.157226562 -44.671875 204 54.4833984375 c 2
 105 153.467773438 l 2
 203.817382812 55.2177734375 332.208007812 0 459.454101562 0 c 0
 616.063476562 0 759.907226562 77.90625 862.579101562 211.5 c 1
 881.610351562 244.546875 912.440429688 291.296875 912.4375 362.015625 c 2
 912.4375 747 l 1
EndSplineSet
EndRedoOperation
RedoOperation
Index: 5
Type: 1
WasModified: 1
WasOrder2: 0
Layer: 2
Width: 1117
VWidth: 0
LBearingChange: 0
UnicodeEnc: 0
InstructionsLength: 0
SplineSet
159.454101562 670 m 4
 159.454101562 775.171875 187.485351562 865.358398438 244.657226562 944.59375 c 0
 307.782226562 1031.78125 379.095703125 1089 460.454101562 1089 c 4
 524.516601562 1089 589.345703125 1042.21875 649.532226562 975.40625 c 1
 833.850585938 1160.60253906 l 5
 933.453125 1061 l 5
 748.453125 895 l 5
 719.4375 904.015625 l 1
 667.78125 949.90625 613.25 969 559.454101562 969 c 0
 478.438476562 969 407.454101562 932 344.454101562 845 c 0
 287.454101562 766.015625 259.454101562 656.016601562 259.454101562 551 c 0
 259.454101562 449.516601562 285.305664062 376.93359375 336.024414062 302.18359375 c 5
 228.416992188 369.4375 159.454101562 515.525390625 159.454101562 670 c 4
665.65234375 427 m 1
 648.5859375 427 595.520507812 427 578.454101562 427 c 1
 479.454101562 527 l 1
 529.787109375 527 616.12109375 527 666.454101562 527 c 1
 666.454101562 498.127929688 l 2
 666.454101562 477.096679688 665.454101562 481.984375 665.454101562 459 c 0
 665.454101562 448.135742188 665.536132812 437.396484375 665.65234375 427 c 1
912.4375 747 m 1
 945.788085938 713.68359375 979.1015625 680.330078125 1012.43847656 647 c 1
 1012.45410156 519 1012.45410156 391 1012.45410156 263.015625 c 0
 1012.43847656 192 981.438476562 145 962.454101562 112 c 1
 859.454101562 -22 715.4375 -100 558.4375 -100 c 0
 430.407226562 -100 303.157226562 -44.671875 204 54.4833984375 c 2
 105 153.467773438 l 2
 203.817382812 55.2177734375 332.208007812 0 459.454101562 0 c 0
 616.063476562 0 759.907226562 77.90625 862.579101562 211.5 c 1
 881.610351562 244.546875 912.440429688 291.296875 912.4375 362.015625 c 2
 912.4375 747 l 1
EndSplineSet
EndRedoOperation
RedoOperation
Index: 6
Type: 1
WasModified: 1
WasOrder2: 0
Layer: 2
Width: 1117
VWidth: 0
LBearingChange: 0
UnicodeEnc: 0
InstructionsLength: 0
SplineSet
159.454101562 660 m 4
 159.454101562 765.171875 187.485351562 865.358398438 244.657226562 944.59375 c 0
 307.782226562 1031.78125 379.095703125 1079 460.454101562 1079 c 4
 524.516601562 1079 589.345703125 1042.21875 649.532226562 975.40625 c 1
 833.850585938 1150.60253906 l 5
 933.453125 1051 l 5
 748.453125 885 l 5
 719.4375 904.015625 l 1
 667.78125 949.90625 613.25 969 559.454101562 969 c 0
 478.438476562 969 407.454101562 932 344.454101562 845 c 0
 287.454101562 766.015625 259.454101562 656.016601562 259.454101562 551 c 0
 259.454101562 449.516601562 285.305664062 366.93359375 336.024414062 292.18359375 c 5
 228.416992188 359.4375 159.454101562 505.525390625 159.454101562 660 c 4
665.65234375 427 m 1
 648.5859375 427 595.520507812 427 578.454101562 427 c 1
 479.454101562 527 l 1
 529.787109375 527 616.12109375 527 666.454101562 527 c 1
 666.454101562 498.127929688 l 2
 666.454101562 477.096679688 665.454101562 481.984375 665.454101562 459 c 0
 665.454101562 448.135742188 665.536132812 437.396484375 665.65234375 427 c 1
912.4375 747 m 1
 945.788085938 713.68359375 979.1015625 680.330078125 1012.43847656 647 c 1
 1012.45410156 519 1012.45410156 391 1012.45410156 263.015625 c 0
 1012.43847656 192 981.438476562 145 962.454101562 112 c 1
 859.454101562 -22 715.4375 -100 558.4375 -100 c 0
 430.407226562 -100 303.157226562 -44.671875 204 54.4833984375 c 2
 105 153.467773438 l 2
 203.817382812 55.2177734375 332.208007812 0 459.454101562 0 c 0
 616.063476562 0 759.907226562 77.90625 862.579101562 211.5 c 1
 881.610351562 244.546875 912.440429688 291.296875 912.4375 362.015625 c 2
 912.4375 747 l 1
EndSplineSet
EndRedoOperation
RedoOperation
Index: 7
Type: 1
WasModified: 1
WasOrder2: 0
Layer: 2
Width: 1117
VWidth: 0
LBearingChange: 0
UnicodeEnc: 0
InstructionsLength: 0
SplineSet
159.454101562 650 m 4
 159.454101562 755.171875 187.485351562 865.358398438 244.657226562 944.59375 c 4
 307.782226562 1031.78125 379.095703125 1069 460.454101562 1069 c 4
 524.516601562 1069 589.345703125 1042.21875 649.532226562 975.40625 c 5
 833.850585938 1140.60253906 l 5
 933.453125 1041 l 5
 748.453125 875 l 5
 719.4375 904.015625 l 5
 667.78125 949.90625 613.25 969 559.454101562 969 c 4
 478.438476562 969 407.454101562 932 344.454101562 845 c 0
 287.454101562 766.015625 259.454101562 656.016601562 259.454101562 551 c 4
 259.454101562 449.516601562 285.305664062 356.93359375 336.024414062 282.18359375 c 5
 228.416992188 349.4375 159.454101562 495.525390625 159.454101562 650 c 4
665.65234375 427 m 1
 648.5859375 427 595.520507812 427 578.454101562 427 c 1
 479.454101562 527 l 1
 529.787109375 527 616.12109375 527 666.454101562 527 c 1
 666.454101562 498.127929688 l 2
 666.454101562 477.096679688 665.454101562 481.984375 665.454101562 459 c 0
 665.454101562 448.135742188 665.536132812 437.396484375 665.65234375 427 c 1
912.4375 747 m 1
 945.788085938 713.68359375 979.1015625 680.330078125 1012.43847656 647 c 1
 1012.45410156 519 1012.45410156 391 1012.45410156 263.015625 c 0
 1012.43847656 192 981.438476562 145 962.454101562 112 c 1
 859.454101562 -22 715.4375 -100 558.4375 -100 c 0
 430.407226562 -100 303.157226562 -44.671875 204 54.4833984375 c 2
 105 153.467773438 l 2
 203.817382812 55.2177734375 332.208007812 0 459.454101562 0 c 0
 616.063476562 0 759.907226562 77.90625 862.579101562 211.5 c 1
 881.610351562 244.546875 912.440429688 291.296875 912.4375 362.015625 c 2
 912.4375 747 l 1
EndSplineSet
EndRedoOperation
RedoOperation
Index: 8
Type: 1
WasModified: 1
WasOrder2: 0
Layer: 2
Width: 1117
VWidth: 0
LBearingChange: 0
UnicodeEnc: 0
InstructionsLength: 0
SplineSet
159.454101562 660 m 4
 159.454101562 765.171875 187.485351562 875.358398438 244.657226562 954.59375 c 4
 307.782226562 1041.78125 379.095703125 1079 460.454101562 1079 c 4
 524.516601562 1079 589.345703125 1052.21875 649.532226562 985.40625 c 5
 833.850585938 1150.60253906 l 5
 933.453125 1051 l 5
 748.453125 885 l 5
 719.4375 914.015625 l 5
 667.78125 959.90625 613.25 979 559.454101562 979 c 4
 478.438476562 979 407.454101562 932 344.454101562 845 c 0
 287.454101562 766.015625 259.454101562 666.016601562 259.454101562 561 c 4
 259.454101562 459.516601562 285.305664062 366.93359375 336.024414062 292.18359375 c 5
 228.416992188 359.4375 159.454101562 505.525390625 159.454101562 660 c 4
665.65234375 427 m 1
 648.5859375 427 595.520507812 427 578.454101562 427 c 1
 479.454101562 527 l 1
 529.787109375 527 616.12109375 527 666.454101562 527 c 1
 666.454101562 498.127929688 l 2
 666.454101562 477.096679688 665.454101562 481.984375 665.454101562 459 c 0
 665.454101562 448.135742188 665.536132812 437.396484375 665.65234375 427 c 1
912.4375 747 m 1
 945.788085938 713.68359375 979.1015625 680.330078125 1012.43847656 647 c 1
 1012.45410156 519 1012.45410156 391 1012.45410156 263.015625 c 0
 1012.43847656 192 981.438476562 145 962.454101562 112 c 1
 859.454101562 -22 715.4375 -100 558.4375 -100 c 0
 430.407226562 -100 303.157226562 -44.671875 204 54.4833984375 c 2
 105 153.467773438 l 2
 203.817382812 55.2177734375 332.208007812 0 459.454101562 0 c 0
 616.063476562 0 759.907226562 77.90625 862.579101562 211.5 c 1
 881.610351562 244.546875 912.440429688 291.296875 912.4375 362.015625 c 2
 912.4375 747 l 1
EndSplineSet
EndRedoOperation
RedoOperation
Index: 9
Type: 1
WasModified: 1
WasOrder2: 0
Layer: 2
Width: 1117
VWidth: 0
LBearingChange: 0
UnicodeEnc: 0
InstructionsLength: 0
SplineSet
159.454101562 650 m 4
 159.454101562 755.171875 187.485351562 865.358398438 244.657226562 944.59375 c 4
 307.782226562 1031.78125 379.095703125 1069 460.454101562 1069 c 4
 524.516601562 1069 589.345703125 1042.21875 649.532226562 975.40625 c 5
 833.850585938 1140.60253906 l 5
 933.453125 1041 l 5
 748.453125 875 l 5
 719.4375 904.015625 l 5
 667.78125 949.90625 613.25 969 559.454101562 969 c 4
 478.438476562 969 407.454101562 932 344.454101562 845 c 4
 287.454101562 766.015625 259.454101562 656.016601562 259.454101562 551 c 4
 259.454101562 449.516601562 285.305664062 356.93359375 336.024414062 282.18359375 c 5
 228.416992188 349.4375 159.454101562 495.525390625 159.454101562 650 c 4
665.65234375 427 m 1
 648.5859375 427 595.520507812 427 578.454101562 427 c 1
 479.454101562 527 l 1
 529.787109375 527 616.12109375 527 666.454101562 527 c 1
 666.454101562 498.127929688 l 2
 666.454101562 477.096679688 665.454101562 481.984375 665.454101562 459 c 0
 665.454101562 448.135742188 665.536132812 437.396484375 665.65234375 427 c 1
912.4375 747 m 1
 945.788085938 713.68359375 979.1015625 680.330078125 1012.43847656 647 c 1
 1012.45410156 519 1012.45410156 391 1012.45410156 263.015625 c 0
 1012.43847656 192 981.438476562 145 962.454101562 112 c 1
 859.454101562 -22 715.4375 -100 558.4375 -100 c 0
 430.407226562 -100 303.157226562 -44.671875 204 54.4833984375 c 2
 105 153.467773438 l 2
 203.817382812 55.2177734375 332.208007812 0 459.454101562 0 c 0
 616.063476562 0 759.907226562 77.90625 862.579101562 211.5 c 1
 881.610351562 244.546875 912.440429688 291.296875 912.4375 362.015625 c 2
 912.4375 747 l 1
EndSplineSet
EndRedoOperation
RedoOperation
Index: 10
Type: 1
WasModified: 1
WasOrder2: 0
Layer: 2
Width: 1117
VWidth: 0
LBearingChange: 0
UnicodeEnc: 0
InstructionsLength: 0
SplineSet
159.454101562 660 m 4
 159.454101562 765.171875 187.485351562 875.358398438 244.657226562 954.59375 c 4
 307.782226562 1041.78125 379.095703125 1079 460.454101562 1079 c 4
 524.516601562 1079 589.345703125 1052.21875 649.532226562 985.40625 c 5
 833.850585938 1150.60253906 l 5
 933.453125 1051 l 5
 748.453125 885 l 5
 719.4375 914.015625 l 5
 667.78125 959.90625 613.25 979 559.454101562 979 c 4
 478.438476562 979 407.454101562 942 344.454101562 855 c 4
 287.454101562 776.015625 259.454101562 666.016601562 259.454101562 561 c 4
 259.454101562 459.516601562 285.305664062 366.93359375 336.024414062 292.18359375 c 5
 228.416992188 359.4375 159.454101562 505.525390625 159.454101562 660 c 4
665.65234375 427 m 1
 648.5859375 427 595.520507812 427 578.454101562 427 c 1
 479.454101562 527 l 1
 529.787109375 527 616.12109375 527 666.454101562 527 c 1
 666.454101562 498.127929688 l 2
 666.454101562 477.096679688 665.454101562 481.984375 665.454101562 459 c 0
 665.454101562 448.135742188 665.536132812 437.396484375 665.65234375 427 c 1
912.4375 747 m 1
 945.788085938 713.68359375 979.1015625 680.330078125 1012.43847656 647 c 1
 1012.45410156 519 1012.45410156 391 1012.45410156 263.015625 c 0
 1012.43847656 192 981.438476562 145 962.454101562 112 c 1
 859.454101562 -22 715.4375 -100 558.4375 -100 c 0
 430.407226562 -100 303.157226562 -44.671875 204 54.4833984375 c 2
 105 153.467773438 l 2
 203.817382812 55.2177734375 332.208007812 0 459.454101562 0 c 0
 616.063476562 0 759.907226562 77.90625 862.579101562 211.5 c 1
 881.610351562 244.546875 912.440429688 291.296875 912.4375 362.015625 c 2
 912.4375 747 l 1
EndSplineSet
EndRedoOperation
RedoOperation
Index: 11
Type: 1
WasModified: 1
WasOrder2: 0
Layer: 2
Width: 1117
VWidth: 0
LBearingChange: 0
UnicodeEnc: 0
InstructionsLength: 0
SplineSet
159.454101562 670 m 4
 159.454101562 775.171875 187.485351562 885.358398438 244.657226562 964.59375 c 4
 307.782226562 1051.78125 379.095703125 1089 460.454101562 1089 c 4
 524.516601562 1089 589.345703125 1062.21875 649.532226562 995.40625 c 5
 833.850585938 1160.60253906 l 5
 933.453125 1061 l 5
 748.453125 895 l 5
 719.4375 924.015625 l 5
 667.78125 969.90625 613.25 989 559.454101562 989 c 4
 478.438476562 989 407.454101562 952 344.454101562 865 c 4
 287.454101562 786.015625 259.454101562 676.016601562 259.454101562 571 c 4
 259.454101562 469.516601562 285.305664062 376.93359375 336.024414062 302.18359375 c 5
 228.416992188 369.4375 159.454101562 515.525390625 159.454101562 670 c 4
665.65234375 427 m 5
 648.5859375 427 595.520507812 427 578.454101562 427 c 5
 479.454101562 527 l 5
 529.787109375 527 616.12109375 527 666.454101562 527 c 5
 666.454101562 498.127929688 l 6
 666.454101562 477.096679688 665.454101562 481.984375 665.454101562 459 c 4
 665.454101562 448.135742188 665.536132812 437.396484375 665.65234375 427 c 5
912.4375 747 m 1
 945.788085938 713.68359375 979.1015625 680.330078125 1012.43847656 647 c 1
 1012.45410156 519 1012.45410156 391 1012.45410156 263.015625 c 0
 1012.43847656 192 981.438476562 145 962.454101562 112 c 1
 859.454101562 -22 715.4375 -100 558.4375 -100 c 0
 430.407226562 -100 303.157226562 -44.671875 204 54.4833984375 c 2
 105 153.467773438 l 2
 203.817382812 55.2177734375 332.208007812 0 459.454101562 0 c 0
 616.063476562 0 759.907226562 77.90625 862.579101562 211.5 c 1
 881.610351562 244.546875 912.440429688 291.296875 912.4375 362.015625 c 2
 912.4375 747 l 1
EndSplineSet
EndRedoOperation
RedoOperation
Index: 12
Type: 1
WasModified: 1
WasOrder2: 0
Layer: 2
Width: 1117
VWidth: 0
LBearingChange: 0
UnicodeEnc: 0
InstructionsLength: 0
SplineSet
159.454101562 680 m 4
 159.454101562 785.171875 187.485351562 895.358398438 244.657226562 974.59375 c 4
 307.782226562 1061.78125 379.095703125 1099 460.454101562 1099 c 4
 524.516601562 1099 589.345703125 1072.21875 649.532226562 1005.40625 c 5
 833.850585938 1170.60253906 l 5
 933.453125 1071 l 5
 748.453125 905 l 5
 719.4375 934.015625 l 5
 667.78125 979.90625 613.25 999 559.454101562 999 c 4
 478.438476562 999 407.454101562 962 344.454101562 875 c 4
 287.454101562 796.015625 259.454101562 686.016601562 259.454101562 581 c 4
 259.454101562 479.516601562 285.305664062 386.93359375 336.024414062 312.18359375 c 5
 228.416992188 379.4375 159.454101562 525.525390625 159.454101562 680 c 4
665.65234375 437 m 5
 648.5859375 437 595.520507812 437 578.454101562 437 c 5
 479.454101562 537 l 5
 529.787109375 537 616.12109375 537 666.454101562 537 c 5
 666.454101562 508.127929688 l 6
 666.454101562 487.096679688 665.454101562 491.984375 665.454101562 469 c 4
 665.454101562 458.135742188 665.536132812 447.396484375 665.65234375 437 c 5
912.4375 747 m 1
 945.788085938 713.68359375 979.1015625 680.330078125 1012.43847656 647 c 1
 1012.45410156 519 1012.45410156 391 1012.45410156 263.015625 c 0
 1012.43847656 192 981.438476562 145 962.454101562 112 c 1
 859.454101562 -22 715.4375 -100 558.4375 -100 c 0
 430.407226562 -100 303.157226562 -44.671875 204 54.4833984375 c 2
 105 153.467773438 l 2
 203.817382812 55.2177734375 332.208007812 0 459.454101562 0 c 0
 616.063476562 0 759.907226562 77.90625 862.579101562 211.5 c 1
 881.610351562 244.546875 912.440429688 291.296875 912.4375 362.015625 c 2
 912.4375 747 l 1
EndSplineSet
EndRedoOperation
RedoOperation
Index: 13
Type: 1
WasModified: 1
WasOrder2: 0
Layer: 2
Width: 1117
VWidth: 0
LBearingChange: 0
UnicodeEnc: 0
InstructionsLength: 0
SplineSet
159.454101562 690 m 0
 159.454101562 795.171875 187.485351562 905.358398438 244.657226562 984.59375 c 0
 307.782226562 1071.78125 379.095703125 1109 460.454101562 1109 c 0
 524.516601562 1109 589.345703125 1082.21875 649.532226562 1015.40625 c 1
 833.850585938 1180.60253906 l 1
 933.453125 1081 l 1
 748.453125 915 l 1
 719.4375 944.015625 l 1
 667.78125 989.90625 613.25 1009 559.454101562 1009 c 0
 478.438476562 1009 407.454101562 972 344.454101562 885 c 0
 287.454101562 806.015625 259.454101562 696.016601562 259.454101562 591 c 0
 259.454101562 489.516601562 285.305664062 396.93359375 336.024414062 322.18359375 c 1
 228.416992188 389.4375 159.454101562 535.525390625 159.454101562 690 c 0
665.65234375 447 m 1
 648.5859375 447 595.520507812 447 578.454101562 447 c 1
 479.454101562 547 l 1
 529.787109375 547 616.12109375 547 666.454101562 547 c 1
 666.454101562 518.127929688 l 2
 666.454101562 497.096679688 665.454101562 501.984375 665.454101562 479 c 0
 665.454101562 468.135742188 665.536132812 457.396484375 665.65234375 447 c 1
912.4375 747 m 1
 945.788085938 713.68359375 979.1015625 680.330078125 1012.43847656 647 c 1
 1012.45410156 519 1012.45410156 391 1012.45410156 263.015625 c 0
 1012.43847656 192 981.438476562 145 962.454101562 112 c 1
 859.454101562 -22 715.4375 -100 558.4375 -100 c 0
 430.407226562 -100 303.157226562 -44.671875 204 54.4833984375 c 2
 105 153.467773438 l 2
 203.817382812 55.2177734375 332.208007812 0 459.454101562 0 c 0
 616.063476562 0 759.907226562 77.90625 862.579101562 211.5 c 1
 881.610351562 244.546875 912.440429688 291.296875 912.4375 362.015625 c 2
 912.4375 747 l 1
EndSplineSet
EndRedoOperation
EndRedoes
EndUndoRedoHistory
Fore
SplineSet
159.454101562 650 m 0
 159.454101562 755.171875 187.485351562 865.358398438 244.657226562 944.59375 c 0
 307.782226562 1031.78125 379.095703125 1069 460.454101562 1069 c 0
 524.516601562 1069 589.345703125 1042.21875 649.532226562 975.40625 c 1
 833.850585938 1140.60253906 l 1
 933.453125 1041 l 1
 748.453125 875 l 1
 719.4375 904.015625 l 1
 667.78125 949.90625 613.25 969 559.454101562 969 c 0
 478.438476562 969 407.454101562 932 344.454101562 845 c 0
 287.454101562 766.015625 259.454101562 656.016601562 259.454101562 551 c 0
 259.454101562 449.516601562 285.305664062 356.93359375 336.024414062 282.18359375 c 1
 228.416992188 349.4375 159.454101562 495.525390625 159.454101562 650 c 0
665.65234375 427 m 1
 648.5859375 427 595.520507812 427 578.454101562 427 c 1
 479.454101562 527 l 1
 529.787109375 527 616.12109375 527 666.454101562 527 c 1
 666.454101562 498.127929688 l 2
 666.454101562 477.096679688 665.454101562 481.984375 665.454101562 459 c 0
 665.454101562 448.135742188 665.536132812 437.396484375 665.65234375 427 c 1
912.4375 747 m 1
 945.788085938 713.68359375 979.1015625 680.330078125 1012.43847656 647 c 1
 1012.45410156 519 1012.45410156 391 1012.45410156 263.015625 c 0
 1012.43847656 192 981.438476562 145 962.454101562 112 c 1
 859.454101562 -22 715.4375 -100 558.4375 -100 c 0
 430.407226562 -100 303.157226562 -44.671875 204 54.4833984375 c 2
 105 153.467773438 l 2
 203.817382812 55.2177734375 332.208007812 0 459.454101562 0 c 0
 616.063476562 0 759.907226562 77.90625 862.579101562 211.5 c 1
 881.610351562 244.546875 912.440429688 291.296875 912.4375 362.015625 c 2
 912.4375 747 l 1
EndSplineSet
EndChar

StartChar: H
Encoding: 72 72 7
Width: 1302
VWidth: 0
Flags: HMW
LayerCount: 2
UndoRedoHistory
Layer: 1
Undoes
UndoOperation
Index: 0
Type: 1
WasModified: 1
WasOrder2: 0
Layer: 2
Width: 1302
VWidth: 0
LBearingChange: 0
UnicodeEnc: 0
InstructionsLength: 0
SplineSet
352 1190 m 5
 352 756 l 5
 385.333007812 756 418.666992188 756 452 756 c 5
 452 1092 l 5
 352 1190 l 5
1097 1191 m 5
 1197 1092 l 5
 1197 -99 l 1
 948.984375 -99 l 1
 850 0 l 1
 851 1 l 1
 1097 1 l 1
 1097 422.666992188 1097 769.333007812 1097 1191 c 5
106 1 m 1
 352 1 l 1
 352 170.666992188 352 340.333007812 352 510 c 5
 851 510 l 5
 851 410 l 5
 452 410 l 5
 452 -99 l 1
 203.984375 -99 l 1
 105 0 l 1
 106 1 l 1
EndSplineSet
EndUndoOperation
EndUndoes
Redoes
EndRedoes
EndUndoRedoHistory
Fore
SplineSet
352 1180 m 5
 352 746 l 5
 385.333007812 746 418.666992188 746 452 746 c 5
 452 1082 l 5
 352 1180 l 5
1097 1181 m 5
 1197 1082 l 5
 1197 -99 l 1
 948.984375 -99 l 1
 850 0 l 1
 851 1 l 1
 1097 1 l 1
 1097 422.666992188 1097 759.333007812 1097 1181 c 5
106 1 m 1
 352 1 l 1
 352 170.666992188 352 330.333007812 352 500 c 5
 851 500 l 5
 851 400 l 5
 452 400 l 5
 452 -99 l 1
 203.984375 -99 l 1
 105 0 l 1
 106 1 l 1
EndSplineSet
EndChar

StartChar: I
Encoding: 73 73 8
Width: 557
VWidth: 0
Flags: HMW
LayerCount: 2
UndoRedoHistory
Layer: 1
Undoes
UndoOperation
Index: 0
Type: 1
WasModified: 0
WasOrder2: 0
Layer: 2
Width: 557
VWidth: 0
LBearingChange: 0
UnicodeEnc: 0
InstructionsLength: 0
SplineSet
353 1266 m 5
 452 1167 l 5
 452 -99 l 1
 204 -99 l 1
 105 0 l 1
 106 1 l 1
 352 1 l 1
 352 1266 l 5
 353 1266 l 5
EndSplineSet
EndUndoOperation
EndUndoes
Redoes
EndRedoes
EndUndoRedoHistory
Fore
SplineSet
353 1148 m 5
 452 1049 l 5
 452 -99 l 1
 204 -99 l 1
 105 0 l 1
 106 1 l 1
 352 1 l 1
 352 1148 l 5
 353 1148 l 5
EndSplineSet
EndChar

StartChar: J
Encoding: 74 74 9
Width: 981
VWidth: 0
Flags: HMW
LayerCount: 2
UndoRedoHistory
Layer: 1
Undoes
UndoOperation
Index: 0
Type: 1
WasModified: 0
WasOrder2: 0
Layer: 2
Width: 981
VWidth: 0
LBearingChange: 0
UnicodeEnc: 0
InstructionsLength: 0
SplineSet
105 118.349609375 m 1
 173.689453125 46.791015625 269.215820312 0 382.197265625 0 c 0
 616.556640625 0 776.197265625 201.46875 776.197265625 408 c 0
 776.197265625 698.333007812 776.197265625 988.666992188 776.197265625 1279 c 5
 876.197265625 1180 l 5
 876.197265625 309 l 2
 876.181640625 102 716.181640625 -100 481.181640625 -100 c 0
 371.072265625 -100 277.431640625 -55.65625 208.993164062 12.78125 c 2
 109.993164062 111.78125 l 1
 105 118.349609375 l 1
234.249023438 444.659179688 m 1
 334.196289062 345.118164062 l 1
 334.196289062 324.39453125 338.248046875 268.5859375 344.685546875 250.068359375 c 1
 277.573242188 268.86328125 234.688476562 336.958984375 234.197265625 407 c 2
 234.249023438 444.659179688 l 1
EndSplineSet
EndUndoOperation
EndUndoes
Redoes
EndRedoes
EndUndoRedoHistory
Fore
SplineSet
105 118.349609375 m 1
 173.689453125 46.791015625 269.215820312 0 382.197265625 0 c 0
 616.556640625 0 776.197265625 201.46875 776.197265625 408 c 0
 776.197265625 698.333007812 776.197265625 857.666992188 776.197265625 1148 c 5
 876.197265625 1049 l 5
 876.197265625 309 l 2
 876.197265625 102.123854519 716.181640625 -100 481.181640625 -100 c 0
 371.072265625 -100 277.431640625 -55.65625 208.993164062 12.78125 c 2
 109.993164062 111.78125 l 1
 105 118.349609375 l 1
234.249023438 444.659179688 m 1
 334.196289062 345.118164062 l 1
 334.196289062 324.39453125 338.248046875 268.5859375 344.685546875 250.068359375 c 1
 277.573242188 268.86328125 234.688476562 336.958984375 234.197265625 407 c 2
 234.249023438 444.659179688 l 1
EndSplineSet
EndChar

StartChar: K
Encoding: 75 75 10
Width: 1292
VWidth: 0
Flags: HMW
LayerCount: 2
UndoRedoHistory
Layer: 1
Undoes
UndoOperation
Index: 0
Type: 1
WasModified: 1
WasOrder2: 0
Layer: 2
Width: 1292
VWidth: 0
LBearingChange: 0
UnicodeEnc: 0
InstructionsLength: 0
SplineSet
1036.03320312 1265.01171875 m 5
 890.276367188 1065.33984375 744.521484375 865.66796875 598.766601562 665.99609375 c 1
 754.555664062 444.34765625 910.3046875 221.6640625 1066.07910156 0 c 1
 765.516601562 0 l 1
 765.015625 0 l 1
 864 -99 l 1
 1187 -99 l 1
 721 567 l 1
 1137 1167.015625 l 5
 1036.03320312 1265.01171875 l 5
469.860351562 401 m 1
 452.000976562 401 l 1
 452.000976562 -99 l 1
 203.984375 -99 l 1
 105 0 l 1
 205.232421875 0 l 1
 352.016601562 0 l 1
 352.016601562 166.666992188 352.016601562 334.329101562 352.016601562 500.99609375 c 1
 397.516601562 500.99609375 l 1
 469.860351562 401 l 1
352 1148 m 1
 452 1050 l 1
 452 902.62109375 l 1
 397.5 829.99609375 l 1
 352 829.99609375 l 1
 352 1148 l 1
EndSplineSet
EndUndoOperation
EndUndoes
Redoes
EndRedoes
EndUndoRedoHistory
Fore
SplineSet
955 1148 m 5
 809.243164062 948.328125 744.521484375 865.66796875 598.766601562 665.99609375 c 1
 754.555664062 444.34765625 910.3046875 221.6640625 1066.07910156 0 c 1
 765.516601562 0 l 1
 765.015625 0 l 1
 864 -99 l 1
 1187 -99 l 1
 721 567 l 1
 1055.96679688 1050.00390625 l 5
 955 1148 l 5
469.860351562 401 m 1
 452.000976562 401 l 1
 452.000976562 -99 l 1
 203.984375 -99 l 1
 105 0 l 1
 205.232421875 0 l 1
 352.016601562 0 l 1
 352.016601562 166.666992188 352.016601562 334.329101562 352.016601562 500.99609375 c 1
 397.516601562 500.99609375 l 1
 469.860351562 401 l 1
352 1148 m 1
 452 1050 l 1
 452 902.62109375 l 1
 397.5 829.99609375 l 1
 352 829.99609375 l 1
 352 1148 l 1
EndSplineSet
EndChar

StartChar: L
Encoding: 76 76 11
Width: 1019
VWidth: 0
Flags: HMW
LayerCount: 2
UndoRedoHistory
Layer: 1
Undoes
UndoOperation
Index: 0
Type: 1
WasModified: 0
WasOrder2: 0
Layer: 2
Width: 1019
VWidth: 0
LBearingChange: 0
UnicodeEnc: 0
InstructionsLength: 0
SplineSet
105 1 m 1
 814 1 l 1
 814 247 l 1
 913.984375 149 l 1
 913.984375 -99 l 1
 203 -99 l 1
 105 1 l 1
351 1266 m 5
 451 1167 l 5
 451 248 l 1
 351 248 l 1
 351 1266 l 5
EndSplineSet
EndUndoOperation
EndUndoes
Redoes
EndRedoes
EndUndoRedoHistory
Fore
SplineSet
105 1 m 1
 814 1 l 1
 814 247 l 1
 913.984375 149 l 1
 913.984375 -99 l 1
 203 -99 l 1
 105 1 l 1
347 1148 m 5
 447 1049 l 5
 451 248 l 1
 351 248 l 1
 347 1148 l 5
EndSplineSet
EndChar

StartChar: M
Encoding: 77 77 12
Width: 1514
VWidth: 0
Flags: HMW
LayerCount: 2
UndoRedoHistory
Layer: 1
Undoes
UndoOperation
Index: 0
Type: 1
WasModified: 1
WasOrder2: 0
Layer: 2
Width: 1514
VWidth: 0
LBearingChange: 0
UnicodeEnc: 0
InstructionsLength: 0
SplineSet
1178 1149 m 1
 1278 1050 l 1
 1278 -99 l 1
 1030 -99 l 1
 931 0 l 1
 1178 0 l 1
 1178 1149 l 1
930 468 m 1
 739 168 l 1
 640 267 l 1
 930 723 l 1
 930 468 l 1
419 593 m 5
 419 593 l 5
 419 593 l 5
 419 -99 l 1
 171 -99 l 1
 72 0 l 1
 319 0 l 1
 319 742 l 1
 419 593 l 5
320 1149 m 1
 419 1050 l 1
 650 714 l 1
 634 690 l 1
 320 1149 l 1
EndSplineSet
EndUndoOperation
EndUndoes
Redoes
EndRedoes
EndUndoRedoHistory
Fore
SplineSet
1178 1149 m 1
 1278 1050 l 1
 1278 -99 l 1
 1030 -99 l 1
 931 0 l 1
 1178 0 l 1
 1178 1149 l 1
930 468 m 1
 739 168 l 1
 640 267 l 1
 930 723 l 1
 930 468 l 1
419 593 m 1
 419 362.333333333 419 131.666666667 419 -99 c 1
 171 -99 l 1
 72 0 l 1
 319 0 l 1
 319 742 l 1
 419 593 l 1
320 1149 m 1
 419 1050 l 1
 650 714 l 1
 634 690 l 1
 320 1149 l 1
EndSplineSet
EndChar

StartChar: N
Encoding: 78 78 13
Width: 1327
VWidth: 0
Flags: HMW
LayerCount: 2
UndoRedoHistory
Layer: 1
Undoes
UndoOperation
Index: 0
Type: 1
WasModified: 1
WasOrder2: 0
Layer: 2
Width: 1327
VWidth: 0
LBearingChange: 0
UnicodeEnc: 0
InstructionsLength: 0
SplineSet
875.546875 -116 m 5
 1122 -116 l 5
 1122 1148 l 1
 1222 1050 l 1
 1222 -216 l 5
 974 -216 l 5
 875.546875 -116 l 5
105 -117 m 5
 203.984375 -216 l 5
 452 -216 l 5
 452 536.953125 l 1
 352 693.390625 l 1
 352 423.260742188 352 153.129882812 352 -117 c 5
 105 -117 l 5
353 1149 m 1
 462 1050 l 1
 885 395.234375 l 1
 875 340.453125 l 1
 353 1149 l 1
EndSplineSet
EndUndoOperation
EndUndoes
Redoes
EndRedoes
EndUndoRedoHistory
Fore
SplineSet
875.546875 0 m 5
 1122 0 l 5
 1122 1148 l 1
 1222 1050 l 1
 1222 -100 l 5
 974 -100 l 5
 875.546875 0 l 5
105 -1 m 5
 203.984375 -100 l 5
 452 -100 l 5
 452 536.953125 l 1
 352 693.390625 l 1
 352 423.260742188 352 269.129882812 352 -1 c 5
 105 -1 l 5
353 1149 m 1
 462 1050 l 1
 885 395.234375 l 1
 875 340.453125 l 1
 353 1149 l 1
EndSplineSet
EndChar

StartChar: O
Encoding: 79 79 14
Width: 1258
VWidth: 0
Flags: HMW
LayerCount: 2
UndoRedoHistory
Layer: 1
Undoes
UndoOperation
Index: 0
Type: 1
WasModified: 1
WasOrder2: 0
Layer: 2
Width: 1258
VWidth: 0
LBearingChange: 0
UnicodeEnc: 0
InstructionsLength: 0
SplineSet
756.75 915.921875 m 5
 710.59375 946.265625 658.875 963 606 963 c 5
 606 963 l 5
 435.984375 963 277.984375 790 277.984375 548 c 4
 278 446.953125 305.546875 360.391601562 350 293.8125 c 5
 349.596679688 292.888671875 l 5
 250.176757812 357.416992188 178.000976562 483.322265625 178.000976562 647 c 4
 178.000976562 889.391601562 336.266601562 1063 507 1063 c 4
 603.192382812 1063 695.434570312 1007.88378906 757.640625 916.40234375 c 5
 756.75 915.921875 l 5
124.314453125 160.073242188 m 5
 224.302734375 60.107421875 356.970703125 -1 507 -1 c 4
 836.344726562 -1 1082 293.438476562 1082 647 c 4
 1082 843.090820312 1006.44140625 1025.28417969 882.962890625 1148.68847656 c 5
 883.78125 1149.28125 l 5
 982.78125 1050.28125 l 6
 1106.390625 926.671875 1182 744.265625 1182 548.015625 c 4
 1182 194.015625 936 -101.000976562 606 -101.000976562 c 4
 455.641601562 -101.000976562 322.719726562 -39.7509765625 222.5625 60.4052734375 c 6
 123.5625 159.405273438 l 5
 124.314453125 160.073242188 l 5
EndSplineSet
EndUndoOperation
EndUndoes
Redoes
EndRedoes
EndUndoRedoHistory
Fore
SplineSet
756.75 914.921875 m 5
 710.59375 945.265625 658.875 962 606 962 c 5
 606 962 l 5
 435.984375 962 277.984375 789 277.984375 547 c 4
 278 445.953125 305.546875 359.391601562 350 292.8125 c 5
 349.596679688 291.888671875 l 5
 250.176757812 356.416992188 178.000976562 482.322265625 178.000976562 646 c 4
 178.000976562 888.391601562 336.266601562 1062 507 1062 c 4
 603.192382812 1062 695.434570312 1006.88378906 757.640625 915.40234375 c 5
 756.75 914.921875 l 5
124.314453125 159.073242188 m 5
 224.302734375 59.107421875 356.970703125 -2 507 -2 c 4
 836.344726562 -2 1082 292.438476562 1082 646 c 4
 1082 842.090820312 1006.44140625 1024.28417969 882.962890625 1147.68847656 c 5
 883.78125 1148.28125 l 5
 982.78125 1049.28125 l 6
 1106.390625 925.671875 1182 743.265625 1182 547.015625 c 4
 1182 193.015625 936 -102.000976562 606 -102.000976562 c 4
 455.641601562 -102.000976562 322.719726562 -40.7509765625 222.5625 59.4052734375 c 6
 123.5625 158.405273438 l 5
 124.314453125 159.073242188 l 5
EndSplineSet
EndChar

StartChar: P
Encoding: 80 80 15
Width: 1153
VWidth: 0
Flags: HMW
LayerCount: 2
UndoRedoHistory
Layer: 1
Undoes
UndoOperation
Index: 0
Type: 1
WasModified: 1
WasOrder2: 0
Layer: 2
Width: 1042
VWidth: 0
LBearingChange: 0
UnicodeEnc: 0
InstructionsLength: 0
EndUndoOperation
EndUndoes
Redoes
EndRedoes
EndUndoRedoHistory
Fore
SplineSet
832.25 1148.25 m 5
 931.25 1049.25 l 6
 1003.23730469 977.262695312 1047.984375 878.034179688 1047.984375 768.971679688 c 0
 1047.984375 550.994140625 869.005859375 372.015625 651 372.015625 c 6
 451 372.015625 l 5
 451 -100 l 5
 202.984375 -100 l 5
 105 0 l 5
 352 0 l 5
 352 157.333007812 352 314.666992188 352 472 c 5
 552 472 l 6
 769.438476562 472 948 650.561523438 948 868 c 4
 948 976.80859375 903.286132812 1075.88574219 831.361328125 1147.72265625 c 5
 832.25 1148.25 l 5
352 718 m 5
 351 718 l 5
 351 1018 l 5
 418 1018 485 1018 552 1018 c 4
 621.181640625 1018 677.595703125 974.1484375 695.801757812 911.885742188 c 5
 694.78125 911.796875 l 5
 681.015625 915.84375 666.3125 918 651 918 c 6
 451 918 l 5
 451 718.005859375 l 5
 352 718 l 5
EndSplineSet
EndChar

StartChar: Q
Encoding: 81 81 16
Width: 1325
VWidth: 0
Flags: HMW
LayerCount: 2
UndoRedoHistory
Layer: 1
Undoes
UndoOperation
Index: 0
Type: 1
WasModified: 1
WasOrder2: 0
Layer: 2
Width: 1325
VWidth: 0
LBearingChange: 0
UnicodeEnc: 0
InstructionsLength: 0
SplineSet
624.047851562 249.045898438 m 5
 902.813476562 249.045898438 l 5
 732.516601562 588.592773438 l 5
 732.172851562 589.280273438 l 5
 732.750976562 589.795898438 l 6
 871.547851562 712.608398438 958.422851562 892.327148438 958.422851562 1102.04589844 c 4
 958.422851562 1296.52148438 884.096679688 1475.52148438 762.41015625 1597.23632812 c 5
 763.063476562 1598 l 5
 862.063476562 1499 l 6
 983.985351562 1377.09375 1058.42285156 1197.796875 1058.42285156 1003.06152344 c 4
 1058.42285156 793.045898438 971.422851562 613.045898438 832.40625 490.045898438 c 5
 1003.42285156 149.045898438 l 5
 722.40625 149.045898438 l 5
 623.421875 248.045898438 l 5
 624.047851562 249.045898438 l 5
567.84375 361.249023438 m 6
 539.953125 356.545898438 511.390625 354.045898438 482.421875 354.045898438 c 4
 332.063476562 354.045898438 199.15625 415.280273438 99 515.436523438 c 6
 -0 614.436523438 l 5
 0.9677734375 614.868164062 l 5
 100.926757812 515.041015625 233.50390625 454.03125 383.422851562 454.03125 c 4
 428.328125 454.046875 472.25 460.03125 514.172851562 471.015625 c 6
 514.969726562 471.21875 l 5
 515.329101562 470.484375 l 5
 568.8125 361.547851562 l 5
 567.84375 361.249023438 l 6
225.439453125 748.313476562 m 5
 126.318359375 812.953125 54.4228515625 938.697265625 54.4228515625 1102.046875 c 4
 54.4228515625 1344.453125 212.734375 1512.046875 383.422851562 1512.046875 c 4
 480.948242188 1512.046875 574.434570312 1457.33300781 636.658203125 1365.21289062 c 5
 635.860351562 1364.60839844 l 5
 589.015625 1395.26464844 536.329101562 1412.04589844 482.421875 1412.04589844 c 5
 482.422851562 1412.046875 l 5
 312.422851562 1412.046875 154.422851562 1245.046875 154.422851562 1003.046875 c 4
 154.422851562 902 181.969726562 815.438476562 226.422851562 748.859375 c 5
 225.439453125 748.313476562 l 5
EndSplineSet
EndUndoOperation
EndUndoes
Redoes
EndRedoes
EndUndoRedoHistory
Fore
SplineSet
817.625 -204.985351562 m 5
 1096.390625 -204.985351562 l 5
 926.09375 134.561523438 l 5
 925.75 135.249023438 l 5
 926.328125 135.764648438 l 6
 1065.125 258.577148438 1152 438.295898438 1152 648.014648438 c 4
 1152 842.490234375 1077.67382812 1021.49023438 955.987304688 1143.20507812 c 5
 956.640625 1143.96875 l 5
 1055.640625 1044.96875 l 6
 1177.5625 923.0625 1252 743.765625 1252 549.030273438 c 4
 1252 339.014648438 1165 159.014648438 1025.98339844 36.0146484375 c 5
 1197 -304.985351562 l 5
 915.983398438 -304.985351562 l 5
 816.999023438 -205.985351562 l 5
 817.625 -204.985351562 l 5
761.420898438 -92.7822265625 m 6
 733.530273438 -97.4853515625 704.967773438 -99.9853515625 675.999023438 -99.9853515625 c 4
 525.640625 -99.9853515625 392.733398438 -38.7509765625 292.577148438 61.4052734375 c 6
 193.577148438 160.405273438 l 5
 194.544921875 160.836914062 l 5
 294.50390625 61.009765625 427.081054688 0 577 0 c 4
 621.905273438 0.015625 665.827148438 6 707.75 16.984375 c 6
 708.546875 17.1875 l 5
 708.90625 16.453125 l 5
 762.389648438 -92.4833984375 l 5
 761.420898438 -92.7822265625 l 6
419.016601562 294.282226562 m 5
 319.895507812 358.921875 248 484.666015625 248 648.015625 c 4
 248 890.421875 406.311523438 1058.015625 577 1058.015625 c 4
 674.525390625 1058.015625 768.01171875 1003.30175781 830.235351562 911.181640625 c 5
 829.4375 910.577148438 l 5
 782.592773438 941.233398438 729.90625 958.014648438 675.999023438 958.014648438 c 5
 676 958.015625 l 5
 506 958.015625 348 791.015625 348 549.015625 c 4
 348 447.96875 375.546875 361.407226562 420 294.828125 c 5
 419.016601562 294.282226562 l 5
EndSplineSet
EndChar

StartChar: R
Encoding: 82 82 17
Width: 1266
VWidth: 0
Flags: HMW
LayerCount: 2
UndoRedoHistory
Layer: 1
Undoes
UndoOperation
Index: 0
Type: 7
WasModified: 1
WasOrder2: 0
Layer: 2
Width: 1235
EndUndoOperation
EndUndoes
Redoes
EndRedoes
EndUndoRedoHistory
Fore
SplineSet
696 907 m 1
 682 911 667 913 652 913 c 2
 452 913 l 1
 452 847.333007812 452 781.666992188 452 716 c 1
 418.666992188 716 385.333007812 716 352 716 c 1
 352 1013 l 1
 419 1013 486 1013 553 1013 c 0
 622 1013 679 969 697 907 c 1
 696 907 l 1
775 0 m 1
 1060 0 l 1
 739 515 l 1
 739 516 l 1
 740 517 l 1
 864 584 949 713 949 863 c 0
 949 972 905 1071 833 1143 c 2
 932 1044 l 2
 1004 972 1049 873 1049 764 c 0
 1049 614 963 484 839 417 c 1
 1161 -100 l 1
 873 -100 l 1
 774 -1 l 1
 775 0 l 1
541 370 m 1
 511.333007812 370 481.666992188 370 452 370 c 1
 452 -100 l 1
 204 -100 l 1
 105 -1 l 1
 187.333007812 -1 269.666992188 -1 352 -1 c 1
 352 156 352 313 352 470 c 1
 479 470 l 1
 541 370 l 1
EndSplineSet
EndChar

StartChar: S
Encoding: 83 83 18
Width: 911
VWidth: 0
Flags: HMW
LayerCount: 2
UndoRedoHistory
Layer: 1
Undoes
UndoOperation
Index: 0
Type: 1
WasModified: 1
WasOrder2: 0
Layer: 2
Width: 911
VWidth: 0
LBearingChange: 0
UnicodeEnc: 0
InstructionsLength: 0
SplineSet
382.553710938 240.849609375 m 5
 379.184570312 240.4140625 375.739257812 239.83203125 372.2578125 239.83203125 c 4
 302.4765625 239.83203125 255.591796875 288.611328125 226 333 c 5
 225 337 l 6
 226 337 280 315 280 315 c 6
 280 314.025390625 337.951171875 240.849609375 382.553710938 240.849609375 c 5
650 696 m 6
 749 597 l 6
 821 525 867 424 867 306 c 4
 867 181 813 56 712 -21 c 4
 644 -77 558 -105 471 -105 c 4
 384 -105 297 -77 229 -22 c 5
 130 77 l 5
 198 22 285 -5 372 -5 c 4
 459 -5 544 23 612 79 c 4
 713 156 767 280 767 405 c 4
 767 523 721 625 650 696 c 6
388.5 815.5 m 6
 350.907226562 823.018554688 315.208984375 830.58203125 297 867 c 4
 286 884 281 905 281 926 c 4
 281 981 318 1038 377 1040 c 4
 421 1040 461 1007 490 979 c 5
 560 1021 632 1064 702 1106 c 5
 687 1132 670 1155 649 1176 c 6
 748 1077 l 6
 769 1056 787 1032 802 1006 c 5
 731 964 660 920 589 878 c 5
 560 906 520 940 476 940 c 4
 418 938 381 882 381 827 c 6
 381 817 l 5
 388.5 815.5 l 6
142 670 m 5
 177 636 218 607 265 591 c 5
 335 562 429 579 482 513 c 4
 497 497 507 478 513 458 c 5
 466 473 410 472 364 491 c 4
 317 508 275 535 240 570 c 6
 142 670 l 5
EndSplineSet
EndUndoOperation
UndoOperation
Index: 1
Type: 1
WasModified: 1
WasOrder2: 0
Layer: 2
Width: 911
VWidth: 0
LBearingChange: 0
UnicodeEnc: 0
InstructionsLength: 0
SplineSet
382.553710938 241.849609375 m 5
 379.184570312 241.4140625 375.739257812 240.83203125 372.2578125 240.83203125 c 4
 302.4765625 240.83203125 255.591796875 289.611328125 226 334 c 5
 225 338 l 6
 226 338 280 316 280 316 c 6
 280 315.025390625 337.951171875 241.849609375 382.553710938 241.849609375 c 5
650 697 m 6
 749 598 l 6
 821 526 867 425 867 307 c 4
 867 182 813 57 712 -20 c 4
 644 -76 558 -104 471 -104 c 4
 384 -104 297 -76 229 -21 c 5
 130 78 l 5
 198 23 285 -4 372 -4 c 4
 459 -4 544 24 612 80 c 4
 713 157 767 281 767 406 c 4
 767 524 721 626 650 697 c 6
388.5 816.5 m 6
 350.907226562 824.018554688 315.208984375 831.58203125 297 868 c 4
 286 885 281 906 281 927 c 4
 281 982 318 1039 377 1041 c 4
 421 1041 461 1008 490 980 c 5
 560 1022 632 1065 702 1107 c 5
 687 1133 670 1156 649 1177 c 6
 748 1078 l 6
 769 1057 787 1033 802 1007 c 5
 731 965 660 921 589 879 c 5
 560 907 520 941 476 941 c 4
 418 939 381 883 381 828 c 6
 381 818 l 5
 388.5 816.5 l 6
142 671 m 5
 177 637 218 608 265 592 c 5
 335 563 429 580 482 514 c 4
 497 498 507 479 513 459 c 5
 466 474 410 473 364 492 c 4
 317 509 275 536 240 571 c 6
 142 671 l 5
EndSplineSet
EndUndoOperation
UndoOperation
Index: 2
Type: 1
WasModified: 1
WasOrder2: 0
Layer: 2
Width: 911
VWidth: 0
LBearingChange: 0
UnicodeEnc: 0
InstructionsLength: 0
SplineSet
382.553710938 242.849609375 m 5
 379.184570312 242.4140625 375.739257812 241.83203125 372.2578125 241.83203125 c 4
 302.4765625 241.83203125 255.591796875 290.611328125 226 335 c 5
 225 339 l 6
 226 339 280 317 280 317 c 6
 280 316.025390625 337.951171875 242.849609375 382.553710938 242.849609375 c 5
650 698 m 6
 749 599 l 6
 821 527 867 426 867 308 c 4
 867 183 813 58 712 -19 c 4
 644 -75 558 -103 471 -103 c 4
 384 -103 297 -75 229 -20 c 5
 130 79 l 5
 198 24 285 -3 372 -3 c 4
 459 -3 544 25 612 81 c 4
 713 158 767 282 767 407 c 4
 767 525 721 627 650 698 c 6
388.5 817.5 m 6
 350.907226562 825.018554688 315.208984375 832.58203125 297 869 c 4
 286 886 281 907 281 928 c 4
 281 983 318 1040 377 1042 c 4
 421 1042 461 1009 490 981 c 5
 560 1023 632 1066 702 1108 c 5
 687 1134 670 1157 649 1178 c 6
 748 1079 l 6
 769 1058 787 1034 802 1008 c 5
 731 966 660 922 589 880 c 5
 560 908 520 942 476 942 c 4
 418 940 381 884 381 829 c 6
 381 819 l 5
 388.5 817.5 l 6
142 672 m 5
 177 638 218 609 265 593 c 5
 335 564 429 581 482 515 c 4
 497 499 507 480 513 460 c 5
 466 475 410 474 364 493 c 4
 317 510 275 537 240 572 c 6
 142 672 l 5
EndSplineSet
EndUndoOperation
UndoOperation
Index: 3
Type: 1
WasModified: 1
WasOrder2: 0
Layer: 2
Width: 911
VWidth: 0
LBearingChange: 0
UnicodeEnc: 0
InstructionsLength: 0
SplineSet
382.553710938 243.849609375 m 5
 379.184570312 243.4140625 375.739257812 242.83203125 372.2578125 242.83203125 c 4
 302.4765625 242.83203125 255.591796875 291.611328125 226 336 c 5
 225 340 l 6
 226 340 280 318 280 318 c 6
 280 317.025390625 337.951171875 243.849609375 382.553710938 243.849609375 c 5
650 699 m 6
 749 600 l 6
 821 528 867 427 867 309 c 4
 867 184 813 59 712 -18 c 4
 644 -74 558 -102 471 -102 c 4
 384 -102 297 -74 229 -19 c 5
 130 80 l 5
 198 25 285 -2 372 -2 c 4
 459 -2 544 26 612 82 c 4
 713 159 767 283 767 408 c 4
 767 526 721 628 650 699 c 6
388.5 818.5 m 6
 350.907226562 826.018554688 315.208984375 833.58203125 297 870 c 4
 286 887 281 908 281 929 c 4
 281 984 318 1041 377 1043 c 4
 421 1043 461 1010 490 982 c 5
 560 1024 632 1067 702 1109 c 5
 687 1135 670 1158 649 1179 c 6
 748 1080 l 6
 769 1059 787 1035 802 1009 c 5
 731 967 660 923 589 881 c 5
 560 909 520 943 476 943 c 4
 418 941 381 885 381 830 c 6
 381 820 l 5
 388.5 818.5 l 6
142 673 m 5
 177 639 218 610 265 594 c 5
 335 565 429 582 482 516 c 4
 497 500 507 481 513 461 c 5
 466 476 410 475 364 494 c 4
 317 511 275 538 240 573 c 6
 142 673 l 5
EndSplineSet
EndUndoOperation
UndoOperation
Index: 4
Type: 1
WasModified: 1
WasOrder2: 0
Layer: 2
Width: 911
VWidth: 0
LBearingChange: 0
UnicodeEnc: 0
InstructionsLength: 0
SplineSet
382.553710938 244.849609375 m 5
 379.184570312 244.4140625 375.739257812 243.83203125 372.2578125 243.83203125 c 4
 302.4765625 243.83203125 255.591796875 292.611328125 226 337 c 5
 225 341 l 6
 226 341 280 319 280 319 c 6
 280 318.025390625 337.951171875 244.849609375 382.553710938 244.849609375 c 5
650 700 m 6
 749 601 l 6
 821 529 867 428 867 310 c 4
 867 185 813 60 712 -17 c 4
 644 -73 558 -101 471 -101 c 4
 384 -101 297 -73 229 -18 c 5
 130 81 l 5
 198 26 285 -1 372 -1 c 4
 459 -1 544 27 612 83 c 4
 713 160 767 284 767 409 c 4
 767 527 721 629 650 700 c 6
388.5 819.5 m 6
 350.907226562 827.018554688 315.208984375 834.58203125 297 871 c 4
 286 888 281 909 281 930 c 4
 281 985 318 1042 377 1044 c 4
 421 1044 461 1011 490 983 c 5
 560 1025 632 1068 702 1110 c 5
 687 1136 670 1159 649 1180 c 6
 748 1081 l 6
 769 1060 787 1036 802 1010 c 5
 731 968 660 924 589 882 c 5
 560 910 520 944 476 944 c 4
 418 942 381 886 381 831 c 6
 381 821 l 5
 388.5 819.5 l 6
142 674 m 5
 177 640 218 611 265 595 c 5
 335 566 429 583 482 517 c 4
 497 501 507 482 513 462 c 5
 466 477 410 476 364 495 c 4
 317 512 275 539 240 574 c 6
 142 674 l 5
EndSplineSet
EndUndoOperation
UndoOperation
Index: 5
Type: 1
WasModified: 0
WasOrder2: 0
Layer: 2
Width: 911
VWidth: 0
LBearingChange: 0
UnicodeEnc: 0
InstructionsLength: 0
SplineSet
382.553710938 245.849609375 m 5
 379.184570312 245.4140625 375.739257812 244.83203125 372.2578125 244.83203125 c 4
 302.4765625 244.83203125 255.591796875 293.611328125 226 338 c 5
 225 342 l 6
 226 342 280 320 280 320 c 6
 280 319.025390625 337.951171875 245.849609375 382.553710938 245.849609375 c 5
650 701 m 6
 749 602 l 6
 821 530 867 429 867 311 c 4
 867 186 813 61 712 -16 c 4
 644 -72 558 -100 471 -100 c 4
 384 -100 297 -72 229 -17 c 5
 130 82 l 5
 198 27 285 0 372 0 c 4
 459 0 544 28 612 84 c 4
 713 161 767 285 767 410 c 4
 767 528 721 630 650 701 c 6
388.5 820.5 m 6
 350.907226562 828.018554688 315.208984375 835.58203125 297 872 c 4
 286 889 281 910 281 931 c 4
 281 986 318 1043 377 1045 c 4
 421 1045 461 1012 490 984 c 5
 560 1026 632 1069 702 1111 c 5
 687 1137 670 1160 649 1181 c 6
 748 1082 l 6
 769 1061 787 1037 802 1011 c 5
 731 969 660 925 589 883 c 5
 560 911 520 945 476 945 c 4
 418 943 381 887 381 832 c 6
 381 822 l 5
 388.5 820.5 l 6
142 675 m 5
 177 641 218 612 265 596 c 5
 335 567 429 584 482 518 c 4
 497 502 507 483 513 463 c 5
 466 478 410 477 364 496 c 4
 317 513 275 540 240 575 c 6
 142 675 l 5
EndSplineSet
EndUndoOperation
UndoOperation
Index: 6
Type: 1
WasModified: 1
WasOrder2: 0
Layer: 2
Width: 1045
VWidth: 0
LBearingChange: 0
UnicodeEnc: 0
InstructionsLength: 0
SplineSet
382.553710938 245.849609375 m 1
 379.184570312 245.4140625 375.739257812 244.83203125 372.2578125 244.83203125 c 0
 302.4765625 244.83203125 255.591796875 293.611328125 226 338 c 1
 225 342 l 2
 226 342 280 320 280 320 c 2
 280 319.025390625 337.951171875 245.849609375 382.553710938 245.849609375 c 1
650 701 m 2
 749 602 l 2
 821 530 867 429 867 311 c 0
 867 186 813 61 712 -16 c 0
 644 -72 558 -100 471 -100 c 0
 384 -100 297 -72 229 -17 c 1
 130 82 l 1
 198 27 285 0 372 0 c 0
 459 0 544 28 612 84 c 0
 713 161 767 285 767 410 c 0
 767 528 721 630 650 701 c 2
388.5 820.5 m 2
 350.907226562 828.018554688 315.208984375 835.58203125 297 872 c 0
 286 889 281 910 281 931 c 0
 281 986 318 1043 377 1045 c 0
 421 1045 461 1012 490 984 c 1
 560 1026 632 1069 702 1111 c 1
 687 1137 670 1160 649 1181 c 2
 748 1082 l 2
 769 1061 787 1037 802 1011 c 1
 731 969 660 925 589 883 c 1
 560 911 520 945 476 945 c 0
 418 943 381 887 381 832 c 2
 381 822 l 1
 388.5 820.5 l 2
142 675 m 1
 177 641 218 612 265 596 c 1
 335 567 429 584 482 518 c 0
 497 502 507 483 513 463 c 1
 466 478 410 477 364 496 c 0
 317 513 275 540 240 575 c 2
 142 675 l 1
EndSplineSet
EndUndoOperation
EndUndoes
Redoes
EndRedoes
EndUndoRedoHistory
Fore
SplineSet
382.553710938 230.849609375 m 5
 379.184570312 230.4140625 375.739257812 229.83203125 372.2578125 229.83203125 c 4
 302.4765625 229.83203125 255.591796875 278.611328125 226 323 c 5
 225 327 l 6
 226 327 280 305 280 305 c 6
 280 304.025390625 337.951171875 230.849609375 382.553710938 230.849609375 c 5
650 686 m 6
 749 587 l 6
 821 515 867 414 867 296 c 4
 867 171 813 46 712 -31 c 4
 644 -87 558 -115 471 -115 c 4
 384 -115 297 -87 229 -32 c 5
 130 67 l 5
 198 12 285 -15 372 -15 c 4
 459 -15 544 13 612 69 c 4
 713 146 767 270 767 395 c 4
 767 513 721 615 650 686 c 6
388.5 805.5 m 6
 350.907226562 813.018554688 315.208984375 820.58203125 297 857 c 4
 286 874 281 895 281 916 c 4
 281 971 318 1028 377 1030 c 4
 421 1030 461 997 490 969 c 5
 560 1011 632 1054 702 1096 c 5
 687 1122 670 1145 649 1166 c 6
 748 1067 l 6
 769 1046 787 1022 802 996 c 5
 731 954 660 910 589 868 c 5
 560 896 520 930 476 930 c 4
 418 928 381 872 381 817 c 6
 381 807 l 5
 388.5 805.5 l 6
142 660 m 5
 177 626 218 597 265 581 c 5
 335 552 429 569 482 503 c 4
 497 487 507 468 513 448 c 5
 466 463 410 462 364 481 c 4
 317 498 275 525 240 560 c 6
 142 660 l 5
EndSplineSet
EndChar

StartChar: U
Encoding: 85 85 19
Width: 1114
VWidth: 0
Flags: HMW
LayerCount: 2
UndoRedoHistory
Layer: 1
Undoes
UndoOperation
Index: 0
Type: 1
WasModified: 0
WasOrder2: 0
Layer: 2
Width: 1114
VWidth: 0
LBearingChange: 0
UnicodeEnc: 0
InstructionsLength: 0
SplineSet
910 1155 m 5
 1009 1056 l 5
 1009 425 l 1
 1007 164 821 -100 527 -100 c 0
 396 -100 286 -48 204 34 c 2
 105 133 l 1
 105 134 l 1
 186 52 297 0 428 0 c 0
 721 0 907 263 909 524 c 1
 909 1154 l 5
 910 1155 l 5
333 269 m 1
 250.348632812 310.325195312 193 414.90234375 193 527 c 2
 193 1154 l 5
 194 1155 l 5
 293 1056 l 5
 293 428 l 2
 293 370 308 315 334 270 c 1
 333 269 l 1
EndSplineSet
EndUndoOperation
EndUndoes
Redoes
EndRedoes
EndUndoRedoHistory
Fore
SplineSet
910 1120 m 5
 1009 1021 l 5
 1009 425 l 1
 1007 164 821 -100 527 -100 c 0
 396 -100 286 -48 204 34 c 2
 105 133 l 1
 105 134 l 1
 186 52 297 0 428 0 c 0
 721 0 907 263 909 524 c 1
 909 1119 l 5
 910 1120 l 5
333 269 m 1
 250.348632812 310.325195312 193 414.902629803 193 527 c 2
 193 1119 l 5
 194 1120 l 5
 293 1021 l 5
 293 428 l 2
 293 370.000147534 308 315 334 270 c 1
 333 269 l 1
EndSplineSet
EndChar

StartChar: T
Encoding: 84 84 20
Width: 1122
VWidth: 0
Flags: HMW
LayerCount: 2
UndoRedoHistory
Layer: 1
Undoes
UndoOperation
Index: 0
Type: 7
WasModified: 1
WasOrder2: 0
Layer: 2
Width: 1123
EndUndoOperation
EndUndoes
Redoes
EndRedoes
EndUndoRedoHistory
Fore
SplineSet
440 802 m 5
 203 802 l 5
 105 901 l 5
 440 901 l 5
 440 802 l 5
441 1 m 1
 687 1 l 1
 687 901 l 5
 688 901 l 5
 1022 901 l 5
 1022 1148 l 5
 1122 1050 l 5
 1122 802 l 5
 787 802 l 5
 787 -99 l 1
 539 -99 l 1
 441 1 l 1
EndSplineSet
EndChar

StartChar: V
Encoding: 86 86 21
Width: 1152
VWidth: 0
Flags: HMW
LayerCount: 2
UndoRedoHistory
Layer: 1
Undoes
UndoOperation
Index: 0
Type: 1
WasModified: 1
WasOrder2: 0
Layer: 2
Width: 1152
VWidth: 0
LBearingChange: 0
UnicodeEnc: 0
InstructionsLength: 0
SplineSet
271 1 m 1
 515 1 l 1
 947 1264 l 5
 1047 1166 l 5
 615 -99 l 1
 369 -99 l 1
 271 1 l 1
140 1148 m 1
 239 1049 l 1
 432 461 l 1
 399 353 l 1
 300.950195312 656.950195312 238.008789062 844.008789062 140 1148 c 1
EndSplineSet
EndUndoOperation
EndUndoes
Redoes
EndRedoes
EndUndoRedoHistory
Fore
SplineSet
271 1 m 1
 515 1 l 1
 910 1148 l 5
 1010 1050 l 5
 615 -99 l 1
 369 -99 l 1
 271 1 l 1
140 1148 m 1
 239 1049 l 1
 432 461 l 1
 399 353 l 1
 300.950195312 656.950195312 238.008789062 844.008789062 140 1148 c 1
EndSplineSet
EndChar

StartChar: W
Encoding: 87 87 22
Width: 1349
VWidth: 0
Flags: HMW
LayerCount: 2
UndoRedoHistory
Layer: 1
Undoes
UndoOperation
Index: 0
Type: 1
WasModified: 1
WasOrder2: 0
Layer: 2
Width: 1349
VWidth: 0
LBearingChange: 0
UnicodeEnc: 0
InstructionsLength: 0
SplineSet
699.90625 1 m 1
 942.28125 1 l 1
 1143.96875 1265.015625 l 5
 1244.140625 1167.015625 l 5
 1042.125 -99 l 1
 798.125 -99 l 1
 699.90625 1 l 1
585.46875 442.4375 m 1
 522.171875 685.25 l 1
 347.375 1 l 1
 105 1 l 1
 203.140625 -99 l 1
 447.140625 -99 l 1
 585.46875 442.4375 l 1
816.734375 684.515625 m 1
 753.984375 988.015625 l 1
 655 1087 l 1
 780.15625 471.796875 l 1
 781.234375 466.515625 l 1
 816.734375 684.515625 l 1
309.75 697.6875 m 1
 252.84375 1050 l 1
 153 1148 l 1
 264.15625 471.84375 l 1
 265.0625 466.4375 l 1
 309.75 697.6875 l 1
EndSplineSet
EndUndoOperation
EndUndoes
Redoes
EndRedoes
EndUndoRedoHistory
Fore
SplineSet
699.90625 1 m 1
 942.28125 1 l 1
 1125 1148 l 5
 1225.171875 1050 l 5
 1042.125 -99 l 1
 798.125 -99 l 1
 699.90625 1 l 1
585.46875 442.4375 m 1
 522.171875 685.25 l 1
 347.375 1 l 1
 105 1 l 1
 203.140625 -99 l 1
 447.140625 -99 l 1
 585.46875 442.4375 l 1
816.734375 684.515625 m 1
 753.984375 988.015625 l 1
 655 1087 l 1
 780.15625 471.796875 l 1
 781.234375 466.515625 l 1
 816.734375 684.515625 l 1
309.75 697.6875 m 1
 252.84375 1050 l 1
 153 1148 l 1
 264.15625 471.84375 l 1
 265.0625 466.4375 l 1
 309.75 697.6875 l 1
EndSplineSet
EndChar

StartChar: X
Encoding: 88 88 23
Width: 1415
VWidth: 0
Flags: HMW
LayerCount: 2
UndoRedoHistory
Layer: 1
Undoes
UndoOperation
Index: 0
Type: 1
WasModified: 1
WasOrder2: 0
Layer: 2
Width: 1415
VWidth: 0
LBearingChange: 25
UnicodeEnc: 0
InstructionsLength: 0
SplineSet
401 1148 m 5
 480.015625 1018.96875 513.53515625 954.677734375 591.921875 825.484375 c 6
 592.765625 824.09375 l 5
 641.765625 882 l 5
 545.5625 1045 l 5
 401 1148 l 5
684.6875 248.328125 m 5
 602.375 114.359375 571.875 34.09375 489.5625 -100 c 5
 198.5625 -100 l 5
 101.359375 0 l 5
 390 0 l 5
 478.671875 144.453125 516.046875 235.75 604.90625 380.515625 c 5
 605.765625 381.921875 l 5
 684.6875 248.328125 l 5
828.140625 0 m 5
 1163.78125 0 l 5
 1032.21875 213.28125 934.884765625 374.004882812 804.90625 588.46875 c 6
 804.59375 588.984375 l 5
 804.90625 589.515625 l 6
 933.254882812 807.708007812 1003.0625 932.21875 1136 1148 c 5
 1236.796875 1050 l 5
 1103.796875 834.015625 1037.765625 706 904.765625 490 c 5
 1036.765625 276.015625 1132.5625 114 1264.5625 -100 c 5
 926.578125 -100 l 5
 828.140625 0 l 5
EndSplineSet
EndUndoOperation
EndUndoes
Redoes
EndRedoes
EndUndoRedoHistory
Fore
SplineSet
425.5390625 1148 m 5
 504.5546875 1018.96875 538.07421875 954.677734375 616.4609375 825.484375 c 6
 617.3046875 824.09375 l 5
 666.3046875 882 l 5
 570.1015625 1045 l 5
 425.5390625 1148 l 5
709.2265625 248.328125 m 5
 626.9140625 114.359375 596.4140625 34.09375 514.1015625 -100 c 5
 223.1015625 -100 l 5
 125.8984375 0 l 5
 414.5390625 0 l 5
 503.2109375 144.453125 540.5859375 235.75 629.4453125 380.515625 c 5
 630.3046875 381.921875 l 5
 709.2265625 248.328125 l 5
852.6796875 0 m 5
 1188.3203125 0 l 5
 1056.7578125 213.28125 959.423828125 374.004882812 829.4453125 588.46875 c 6
 829.1328125 588.984375 l 5
 829.4453125 589.515625 l 6
 957.793945312 807.708007812 1027.6015625 932.21875 1160.5390625 1148 c 5
 1261.3359375 1050 l 5
 1128.3359375 834.015625 1062.3046875 706 929.3046875 490 c 5
 1061.3046875 276.015625 1157.1015625 114 1289.1015625 -100 c 5
 951.1171875 -100 l 5
 852.6796875 0 l 5
EndSplineSet
EndChar

StartChar: Y
Encoding: 89 89 24
Width: 983
VWidth: 0
Flags: HMW
LayerCount: 2
UndoRedoHistory
Layer: 1
Undoes
UndoOperation
Index: 0
Type: 1
WasModified: 1
WasOrder2: 0
Layer: 2
Width: 985
VWidth: 0
LBearingChange: 0
UnicodeEnc: 0
InstructionsLength: 0
EndUndoOperation
UndoOperation
Index: 1
Type: 1
WasModified: 1
WasOrder2: 0
Layer: 2
Width: 983
VWidth: 0
LBearingChange: 0
UnicodeEnc: 0
InstructionsLength: 0
SplineSet
770 1148 m 1
 658 933 512 666 404 450 c 9
 404 -116 l 5
 157 -116 l 5
 255 -216 l 5
 504 -216 l 5
 504 351 l 1
 616 566 759 835 871 1050 c 1
 770 1148 l 1
76 1149 m 1
 175 1050 l 1
 307 775 l 2
 280 722 l 1
 279 724 l 1
 76 1149 l 1
EndSplineSet
EndUndoOperation
EndUndoes
Redoes
EndRedoes
EndUndoRedoHistory
Fore
SplineSet
770 1148 m 1
 658 933 512 666 404 450 c 1
 404 0 l 5
 157 0 l 5
 255 -100 l 5
 504 -100 l 5
 504 351 l 1
 616 566 759 835 871 1050 c 1
 770 1148 l 1
76 1149 m 1
 175 1050 l 1
 307 775 l 2
 280 722 l 1
 279 724 l 1
 76 1149 l 1
EndSplineSet
EndChar

StartChar: Z
Encoding: 90 90 25
Width: 1177
VWidth: 0
Flags: HMW
LayerCount: 2
UndoRedoHistory
Layer: 1
Undoes
UndoOperation
Index: 0
Type: 1
WasModified: 1
WasOrder2: 0
Layer: 2
Width: 1177
VWidth: 0
LBearingChange: 0
UnicodeEnc: 0
InstructionsLength: 0
SplineSet
65 1 m 5
 947 1 l 1
 947 247 l 1
 1047 149 l 1
 1047 -99 l 1
 163 -99 l 5
 65 1 l 5
654 265 m 1
 811 489 899 615 1056 839 c 1
 1056 1057 l 1
 956 1155 l 1
 956 938 l 1
 776 681 665 522 485 265 c 1
 654 265 l 1
557 829 m 1
 212 829 l 1
 114 928 l 1
 627 928 l 1
 557 829 l 1
EndSplineSet
EndUndoOperation
EndUndoes
Redoes
EndRedoes
EndUndoRedoHistory
Fore
SplineSet
93 1 m 1
 975 1 l 1
 975 247 l 1
 1075 149 l 1
 1075 -99 l 1
 191 -99 l 1
 93 1 l 1
682 265 m 1
 839 489 927 615 1084 839 c 1
 1084 1057 l 1
 984 1155 l 1
 984 938 l 1
 804 681 693 522 513 265 c 1
 682 265 l 1
585 829 m 1
 240 829 l 1
 142 928 l 1
 655 928 l 1
 585 829 l 1
EndSplineSet
EndChar

StartChar: a
Encoding: 97 97 26
Width: 1051
VWidth: 0
Flags: HMW
LayerCount: 2
UndoRedoHistory
Layer: 1
Undoes
UndoOperation
Index: 0
Type: 1
WasModified: 1
WasOrder2: 0
Layer: 2
Width: 1051
VWidth: 0
LBearingChange: 0
UnicodeEnc: 0
InstructionsLength: 0
SplineSet
626 55 m 1
 627 54 l 1
 626 55 l 1
29 637 m 1
 231 604 l 1
 266 659 329 674 391 674 c 0
 478 674 547 645 578 585 c 1
 579 584 l 1
 577 584 l 1
 516 594 l 1
 380 594 275 574 185 527 c 1
 183 528 l 1
 127 537 l 1
 29 637 l 1
41 99 m 1
 109 27 230 0 344 0 c 0
 428 0 511 24 588 31 c 1
 589 38 596 53 598 55 c 1
 599 55 l 1
 602 56 608.75 56.25 614.75 56.25 c 0
 620.75 56.25 626 56 626 56 c 1
 627 56 l 1
 634 52 633 33 637 31 c 0
 659 31 832 33 851 33 c 1
 826 83 821 214 821 309 c 0
 821 358 822 384 822 426 c 0
 822 546 805 672 733 754 c 1
 734 755 l 1
 833 656 l 1
 905 574 922 447 922 327 c 0
 922 285 921 259 921 210 c 0
 921 114 926 -19 952 -67 c 1
 952 -67 759 -69 736 -69 c 1
 711 -44 l 1
 706 -44 701 -44 698 -45 c 0
 696 -47 688 -62 688 -69 c 1
 611 -76 527 -100 443 -100 c 0
 331 -100 212 -74 143 -5 c 2
 41 99 l 1
516 594 m 1
 516 594 l 1
 516 594 l 1
343 175 m 21
 293 176 242 199 242 261 c 0
 242 399 457 411 577 420 c 1
 578 420 l 1
 578 383.666666667 578 347.333007812 578 311 c 1
 577 311 l 1
 470 298 354 268 343 175 c 1033
EndSplineSet
EndUndoOperation
UndoOperation
Index: 1
Type: 1
WasModified: 1
WasOrder2: 0
Layer: 2
Width: 1051
VWidth: 0
LBearingChange: 0
UnicodeEnc: 0
InstructionsLength: 0
SplineSet
626 55 m 1
 627 54 l 1
 626 55 l 1
29 637 m 1
 231 604 l 1
 266 659 329 674 391 674 c 0
 478 674 547 645 578 585 c 1
 579 584 l 1
 577 584 l 1
 516 594 l 1
 380 594 275 574 185 527 c 1
 183 528 l 1
 127 537 l 1
 29 637 l 1
41 99 m 1
 109 27 230 0 344 0 c 0
 428 0 511 24 588 31 c 1
 589 38 596 53 598 55 c 1
 599 55 l 1
 602 56 608.75 56.25 614.75 56.25 c 0
 620.75 56.25 626 56 626 56 c 1
 627 56 l 1
 634 52 633 33 637 31 c 0
 659 31 832 33 851 33 c 1
 826 83 821 214 821 309 c 0
 821 358 822 384 822 426 c 0
 822 546 805 672 733 754 c 1
 734 755 l 1
 833 656 l 1
 905 574 922 447 922 327 c 0
 922 285 921 259 921 210 c 0
 921 114 926 -19 952 -67 c 1
 952 -67 759 -69 736 -69 c 1
 711 -44 l 1
 706 -44 701 -44 698 -45 c 0
 696 -47 688 -62 688 -69 c 1
 611 -76 527 -100 443 -100 c 0
 331 -100 212 -74 143 -5 c 2
 41 99 l 1
516 594 m 1
 516 594 l 1
 516 594 l 1
343 175 m 4
 293 176 242 199 242 261 c 0
 242 399 457 411 577 420 c 1
 578 420 l 1
 578 383.666666667 578 347.333007812 578 311 c 1
 577 311 l 1
 470 298 354 268 343 175 c 1028
EndSplineSet
EndUndoOperation
UndoOperation
Index: 2
Type: 1
WasModified: 1
WasOrder2: 0
Layer: 2
Width: 1051
VWidth: 0
LBearingChange: 0
UnicodeEnc: 0
InstructionsLength: 0
SplineSet
626 55 m 1
 627 54 l 1
 626 55 l 1
29 637 m 1
 231 604 l 1
 266 659 329 674 391 674 c 0
 478 674 547 645 578 585 c 1
 579 584 l 1
 577 584 l 1
 516 594 l 1
 380 594 275 574 185 527 c 1
 183 528 l 1
 127 537 l 1
 29 637 l 1
41 99 m 1
 109 27 230 0 344 0 c 0
 428 0 511 24 588 31 c 1
 589 38 596 53 598 55 c 1
 599 55 l 1
 602 56 608.75 56.25 614.75 56.25 c 0
 620.75 56.25 626 56 626 56 c 1
 627 56 l 1
 634 52 633 33 637 31 c 0
 659 31 832 33 851 33 c 1
 826 83 821 214 821 309 c 0
 821 358 822 384 822 426 c 0
 822 546 805 672 733 754 c 1
 734 755 l 1
 833 656 l 1
 905 574 922 447 922 327 c 0
 922 285 921 259 921 210 c 0
 921 114 926 -19 952 -67 c 1
 952 -67 759 -69 736 -69 c 1
 711 -44 l 1
 706 -44 701 -44 698 -45 c 0
 696 -47 688 -62 688 -69 c 1
 611 -76 527 -100 443 -100 c 0
 331 -100 212 -74 143 -5 c 2
 41 99 l 1
516 594 m 1
 516 594 l 1
 516 594 l 1
343 175 m 0
 293 176 242 199 242 261 c 0
 242 399 457 411 577 420 c 1
 578 420 l 1
 578 383.666666667 578 347.333333333 578 311 c 5
 577 311 l 1
 470 298 354 268 343 175 c 1024
EndSplineSet
EndUndoOperation
UndoOperation
Index: 3
Type: 1
WasModified: 0
WasOrder2: 0
Layer: 2
Width: 1051
VWidth: 0
LBearingChange: 0
UnicodeEnc: 0
InstructionsLength: 0
SplineSet
626 55 m 1
 627 54 l 1
 626 55 l 1
29 637 m 1
 231 604 l 1
 266 659 329 674 391 674 c 0
 478 674 547 645 578 585 c 1
 579 584 l 1
 577 584 l 1
 516 594 l 1
 380 594 275 574 185 527 c 1
 183 528 l 1
 127 537 l 1
 29 637 l 1
41 99 m 1
 109 27 230 0 344 0 c 0
 428 0 511 24 588 31 c 1
 589 38 596 53 598 55 c 1
 599 55 l 1
 602 56 608.75 56.25 614.75 56.25 c 0
 620.75 56.25 626 56 626 56 c 1
 627 56 l 1
 634 52 633 33 637 31 c 0
 659 31 832 33 851 33 c 1
 826 83 821 214 821 309 c 0
 821 358 822 384 822 426 c 0
 822 546 805 672 733 754 c 1
 734 755 l 1
 833 656 l 1
 905 574 922 447 922 327 c 0
 922 285 921 259 921 210 c 0
 921 114 926 -19 952 -67 c 1
 952 -67 759 -69 736 -69 c 1
 711 -44 l 1
 706 -44 701 -44 698 -45 c 0
 696 -47 688 -62 688 -69 c 1
 611 -76 527 -100 443 -100 c 0
 331 -100 212 -74 143 -5 c 2
 41 99 l 1
516 594 m 1
 516 594 l 1
 516 594 l 1
343 175 m 0
 293 176 242 199 242 261 c 0
 242 399 457 411 577 420 c 5
 578 420 l 1
 578 383.666666667 578 347.333333333 578 311 c 1
 577 311 l 1
 470 298 354 268 343 175 c 1024
EndSplineSet
EndUndoOperation
UndoOperation
Index: 4
Type: 1
WasModified: 1
WasOrder2: 0
Layer: 2
Width: 1051
VWidth: 0
LBearingChange: 0
UnicodeEnc: 0
InstructionsLength: 0
SplineSet
628 53 m 6
 627 54 l 4
 626 55 l 6
 628 53 l 6
29 637 m 5
 231 604 l 5
 266 659 329 674 391 674 c 4
 478 674 547 645 578 585 c 6
 579 584 l 5
 577 584 l 5
 516 594 l 5
 380 594 275 574 185 527 c 5
 183 528 l 5
 127 537 l 5
 29 637 l 5
41 99 m 6
 109 27 230 0 344 0 c 4
 428 0 511 24 588 31 c 5
 589 38 596 53 598 55 c 6
 598 55 l 5
 599 55 l 6
 602 56 608.75 56.25 614.75 56.25 c 0
 620.75 56.25 626 56 626 56 c 6
 626 56 l 5
 627 56 l 6
 634 52 633 33 637 31 c 4
 659 31 832 33 851 33 c 5
 826 83 821 214 821 309 c 4
 821 358 822 384 822 426 c 5
 822 426 l 5
 822 546 805 672 733 754 c 5
 734 755 l 5
 833 656 l 5
 905 574 922 447 922 327 c 5
 922 327 l 5
 922 285 921 259 921 210 c 4
 921 114 926 -19 952 -67 c 5
 952 -67 759 -69 736 -69 c 5
 711 -44 l 6
 706 -44 701 -44 698 -45 c 4
 696 -47 688 -62 688 -69 c 5
 611 -76 527 -100 443 -100 c 4
 331 -100 212 -74 143 -5 c 6
 41 99 l 6
516 594 m 5
 516 594 l 5
 516 594 l 5
 516 594 l 5
343 175 m 4
 293 176 242 199 242 261 c 4
 242 399 457 411 577 420 c 6
 578 420 l 5
 578 419 l 5
 578 311 l 5
 577 311 l 5
 470 298 354 268 343 175 c 1028
EndSplineSet
EndUndoOperation
UndoOperation
Index: 5
Type: 1
WasModified: 1
WasOrder2: 0
Layer: 2
Width: 1051
VWidth: 0
LBearingChange: 0
UnicodeEnc: 0
InstructionsLength: 0
SplineSet
628 53 m 6
 627 54 l 4
 626 55 l 6
 628 53 l 6
29 637 m 5
 231 604 l 5
 266 659 329 674 391 674 c 4
 478 674 547 645 578 585 c 6
 579 584 l 5
 577 584 l 5
 516 594 l 5
 380 594 275 574 185 527 c 5
 183 528 l 5
 127 537 l 5
 29 637 l 5
41 99 m 6
 109 27 230 0 344 0 c 4
 428 0 511 24 588 31 c 5
 589 38 596 53 598 55 c 6
 598 55 l 5
 599 55 l 6
 605 57 626 56 626 56 c 6
 626 56 l 5
 627 56 l 6
 634 52 633 33 637 31 c 4
 659 31 832 33 851 33 c 5
 826 83 821 214 821 309 c 4
 821 358 822 384 822 426 c 5
 822 426 l 5
 822 546 805 672 733 754 c 5
 734 755 l 5
 833 656 l 5
 905 574 922 447 922 327 c 5
 922 327 l 5
 922 285 921 259 921 210 c 4
 921 114 926 -19 952 -67 c 5
 952 -67 759 -69 736 -69 c 5
 711 -44 l 6
 706 -44 701 -44 698 -45 c 4
 696 -47 688 -62 688 -69 c 5
 611 -76 527 -100 443 -100 c 4
 331 -100 212 -74 143 -5 c 6
 41 99 l 6
516 594 m 5
 516 594 l 5
 516 594 l 5
 516 594 l 5
343 175 m 4
 293 176 242 199 242 261 c 4
 242 399 457 411 577 420 c 6
 578 420 l 5
 578 419 l 5
 578 311 l 5
 577 311 l 5
 470 298 354 268 343 175 c 1028
EndSplineSet
EndUndoOperation
UndoOperation
Index: 6
Type: 1
WasModified: 1
WasOrder2: 0
Layer: 2
Width: 1051
VWidth: 0
LBearingChange: 0
UnicodeEnc: 0
InstructionsLength: 0
SplineSet
627.671875 53.328125 m 6
 627.40625 53.6875 627.140625 54 626.859375 54.28125 c 4
 626.578125 54.5625 626.296875 54.796875 626 55 c 6
 627.671875 53.328125 l 6
29.1875 636.828125 m 5
 230.515625 604.09375 l 5
 265.65625 658.734375 328.921875 674 390.999023438 674 c 4
 478.171875 674 546.655273438 645.921875 577.890625 585.46875 c 6
 578.8125 583.6875 l 5
 576.84375 584.015625 l 5
 515.921875 594 l 5
 380.056640625 593.98828125 274.418945312 574.451171875 184.681640625 527.329101562 c 5
 183.46875 527.828125 l 5
 127 537 l 5
 29.1875 636.828125 l 5
40.9296875 98.8671875 m 6
 108.594726562 27.2587890625 229.665039062 0 344 0 c 4
 427.515625 0 511.015625 23.78125 588.030273438 30.921875 c 5
 588.608398438 38.109375 595.999023438 52.40625 598.295898438 54.703125 c 6
 598.467773438 54.875 l 5
 598.686523438 54.953125 l 6
 605.108398438 57.09375 625.999023438 56 626.045898438 56 c 6
 626.311523438 55.984375 l 5
 626.545898438 55.84375 l 6
 633.249023438 51.375 633.358398438 33.25 637.217773438 31 c 4
 659.170898438 31 832.640625 32.78125 851.342773438 32.984375 c 5
 825.920898438 82.53125 820.999023438 213.8125 820.999023438 309 c 4
 820.999023438 358.015625 821.999023438 384.015625 821.999023438 426 c 5
 822 426 l 5
 822 545.953125 804.96875 672.671875 733.265625 754.328125 c 5
 734.000976562 755 l 5
 833.000976562 656 l 5
 905.000976562 574.015625 922.000976562 447.015625 922.000976562 327 c 5
 922 327 l 5
 922 285 920.984375 259 921 210 c 4
 920.984375 114 926 -18.984375 952 -67 c 5
 952 -67 759 -69 736 -69 c 5
 710.78125 -43.765625 l 6
 705.65625 -43.84375 700.515625 -44.15625 698 -45 c 4
 696 -47 688 -62 687.984375 -69 c 5
 611 -76 526.984375 -100 443 -100 c 4
 330.953125 -100 212.046875 -73.8125 143.375 -5.125 c 6
 40.9296875 98.8671875 l 6
515.921875 594 m 5
 515.84375 594.015625 l 5
 516 594 l 5
 515.921875 594 l 5
342.526367188 175.017578125 m 4
 292.112304688 175.7578125 242 199.228515625 242 261 c 4
 242 399.25 457.375 411.03125 576.921875 420 c 6
 578 420.078125 l 5
 578 419 l 5
 578 311.41796875 l 5
 577 311.25 l 5
 470.34375 298.546875 353.151367188 267.876953125 342.526367188 175.017578125 c 1028
EndSplineSet
EndUndoOperation
UndoOperation
Index: 7
Type: 1
WasModified: 1
WasOrder2: 0
Layer: 2
Width: 1051
VWidth: 0
LBearingChange: 0
UnicodeEnc: 0
InstructionsLength: 0
SplineSet
598.484375 896.328125 m 6
 598.21875 896.6875 597.953125 897 597.671875 897.28125 c 4
 597.390625 897.5625 597.109375 897.796875 596.8125 898 c 6
 598.484375 896.328125 l 6
0 1479.828125 m 5
 201.328125 1447.09375 l 5
 236.46875 1501.734375 299.734375 1517 361.811523438 1517 c 4
 448.984375 1517 517.467773438 1488.921875 548.703125 1428.46875 c 6
 549.625 1426.6875 l 5
 547.65625 1427.015625 l 5
 486.734375 1437 l 5
 350.869140625 1436.98828125 245.231445312 1417.45117188 155.494140625 1370.32910156 c 5
 154.28125 1370.828125 l 5
 97.8125 1380 l 5
 0 1479.828125 l 5
11.7421875 941.8671875 m 6
 79.4072265625 870.258789062 200.477539062 843 314.8125 843 c 4
 398.328125 843 481.828125 866.78125 558.842773438 873.921875 c 5
 559.420898438 881.109375 566.811523438 895.40625 569.108398438 897.703125 c 6
 569.280273438 897.875 l 5
 569.499023438 897.953125 l 6
 575.920898438 900.09375 596.811523438 899 596.858398438 899 c 6
 597.124023438 898.984375 l 5
 597.358398438 898.84375 l 6
 604.061523438 894.375 604.170898438 876.25 608.030273438 874 c 4
 629.983398438 874 803.453125 875.78125 822.155273438 875.984375 c 5
 796.733398438 925.53125 791.811523438 1056.8125 791.811523438 1152 c 4
 791.811523438 1201.015625 792.811523438 1227.015625 792.811523438 1269 c 5
 792.8125 1269 l 5
 792.8125 1388.953125 775.78125 1515.671875 704.078125 1597.328125 c 5
 704.813476562 1598 l 5
 803.813476562 1499 l 5
 875.813476562 1417.015625 892.813476562 1290.015625 892.813476562 1170 c 5
 892.8125 1170 l 5
 892.8125 1128 891.796875 1102 891.8125 1053 c 4
 891.796875 957 896.8125 824.015625 922.8125 776 c 5
 922.8125 776 729.8125 774 706.8125 774 c 5
 681.59375 799.234375 l 6
 676.46875 799.15625 671.328125 798.84375 668.8125 798 c 4
 666.8125 796 658.8125 781 658.796875 774 c 5
 581.8125 767 497.796875 743 413.8125 743 c 4
 301.765625 743 182.859375 769.1875 114.1875 837.875 c 6
 11.7421875 941.8671875 l 6
486.734375 1437 m 5
 486.65625 1437.015625 l 5
 486.8125 1437 l 5
 486.734375 1437 l 5
313.338867188 1018.01757812 m 4
 262.924804688 1018.7578125 212.8125 1042.22851562 212.8125 1104 c 4
 212.8125 1242.25 428.1875 1254.03125 547.734375 1263 c 6
 548.8125 1263.078125 l 5
 548.8125 1262 l 5
 548.8125 1154.41796875 l 5
 547.8125 1154.25 l 5
 441.15625 1141.546875 323.963867188 1110.87695312 313.338867188 1018.01757812 c 1028
EndSplineSet
EndUndoOperation
UndoOperation
Index: 8
Type: 1
WasModified: 1
WasOrder2: 0
Layer: 2
Width: 1051
VWidth: 0
LBearingChange: 0
UnicodeEnc: 0
InstructionsLength: 0
EndUndoOperation
UndoOperation
Index: 9
Type: 3
WasModified: 1
WasOrder2: 0
Layer: 2
EndUndoOperation
UndoOperation
Index: 10
Type: 1
WasModified: 1
WasOrder2: 0
Layer: 2
Width: 1051
VWidth: 0
LBearingChange: 0
UnicodeEnc: 0
InstructionsLength: 0
SplineSet
401 142 m 4
 518.015625 142 633 156.34375 633 174 c 6
 633 277.25 l 5
 526.34375 264.546875 409.390625 234.875 398.765625 142.015625 c 5
 399.515625 142 400.25 142 401 142 c 4
978 293 m 4
 978 251 976.984375 225 977 176 c 4
 976.984375 80 982 -52.984375 1008 -101 c 5
 1008 -101 815 -103 792 -103 c 5
 766.78125 -77.765625 l 6
 761.65625 -77.84375 756.515625 -78.15625 754 -79 c 4
 752 -81 744 -96 743.984375 -103 c 5
 667 -110 582.984375 -134 499 -134 c 4
 386.953125 -134 268.046875 -107.8125 199.375 -39.125 c 6
 100.375 59.859375 l 6
 64.234375 96.015625 42 143.9375 42 206 c 4
 42 292 88 380 145 429 c 4
 174.78125 454.71875 206.03125 476.1875 239.46875 493.828125 c 5
 183 503 l 5
 84 602 l 5
 117 763 266 839 450 839 c 4
 582.109375 839 707.703125 803.65625 781.96875 729.40625 c 4
 784.71875 726.65625 787.390625 723.859375 790 721 c 6
 889 622 l 5
 961 540.015625 978 413.015625 978 293 c 4
683.671875 19.328125 m 6
 683.40625 19.6875 683.140625 20 682.859375 20.28125 c 4
 682.578125 20.5625 682.296875 20.796875 682 21 c 6
 683.671875 19.328125 l 6
878 392 m 4
 878 511.953125 860.96875 638.671875 789.265625 720.328125 c 4
 716.5625 800 586.84375 838 450 838 c 4
 266.671875 838 118.609375 762.6875 85.1875 602.828125 c 5
 286.515625 570.09375 l 5
 321.65625 624.734375 384.921875 640 447 640 c 4
 534.171875 640 602.65625 611.921875 633.890625 551.46875 c 6
 634.8125 549.6875 l 5
 632.84375 550.015625 l 5
 571.921875 560 l 5
 385.09375 559.984375 255.421875 523.046875 145.65625 428.234375 c 4
 88.875 379.421875 43 291.65625 43 206 c 4
 43 26.953125 229.03125 -34 400 -34 c 4
 483.515625 -34 567.015625 -10.21875 644.03125 -3.078125 c 5
 644.609375 4.109375 652 18.40625 654.296875 20.703125 c 6
 654.46875 20.875 l 5
 654.6875 20.953125 l 6
 661.109375 23.09375 682 22 682.046875 22 c 6
 682.3125 21.984375 l 5
 682.546875 21.84375 l 6
 689.25 17.375 689.359375 -0.75 693.21875 -3 c 4
 715.171875 -3 888.640625 -1.21875 907.34375 -1.015625 c 5
 881.921875 48.53125 877 179.8125 877 275 c 4
 877 324.015625 878 350.015625 878 392 c 4
571.921875 560 m 6
 571.84375 560.015625 l 5
 572 560 l 6
 571.921875 560 l 6
401 141 m 4
 349.765625 141 298 164.21875 298 227 c 4
 298 365.25 513.375 377.03125 632.921875 386 c 6
 634 386.078125 l 5
 634 385 l 5
 634 174 l 6
 634 154.640625 517.28125 141 401 141 c 4
EndSplineSet
EndUndoOperation
UndoOperation
Index: 11
Type: 1
WasModified: 0
WasOrder2: 0
Layer: 2
Width: 953
VWidth: 0
LBearingChange: 0
UnicodeEnc: 0
InstructionsLength: 0
SplineSet
879 392 m 0
 879 350 878 324 878 275 c 0
 878 179 883 46 909 -2 c 1
 909 -2 716 -4 693 -4 c 0
 688 -2 688 17 682 21 c 1
 682 21 661 22 655 20 c 0
 653 18 645 3 645 -4 c 1
 568 -11 484 -35 400 -35 c 0
 229 -35 42 26 42 206 c 0
 42 292 88 380 145 429 c 0
 255 524 385 561 572 561 c 2
 633 551 l 1
 602 611 534 639 447 639 c 0
 385 639 322 624 287 569 c 1
 84 602 l 1
 117 763 266 839 450 839 c 0
 587 839 717 801 790 721 c 0
 862 639 879 512 879 392 c 0
401 142 m 0
 518.024414062 142 633 156.3359375 633 174 c 1
 633 385 l 5
 513 376 299 364 299 227 c 0
 299 165 350 142 401 142 c 0
EndSplineSet
EndUndoOperation
UndoOperation
Index: 12
Type: 12
WasModified: 0
WasOrder2: 0
Layer: 0
EndUndoOperation
EndUndoes
Redoes
EndRedoes
EndUndoRedoHistory
Fore
SplineSet
626 55 m 1
 627 54 l 1
 626 55 l 1
29 637 m 1
 231 604 l 1
 266 659 329 674 391 674 c 0
 478 674 547 645 578 585 c 1
 579 584 l 1
 577 584 l 1
 516 594 l 1
 380 594 275 574 185 527 c 1
 183 528 l 1
 127 537 l 1
 29 637 l 1
41 99 m 1
 109 27 230 0 344 0 c 0
 428 0 511 24 588 31 c 1
 589 38 596 53 598 55 c 1
 599 55 l 1
 602 56 608.75 56.25 614.75 56.25 c 0
 620.75 56.25 626 56 626 56 c 1
 627 56 l 1
 634 52 633 33 637 31 c 0
 659 31 832 33 851 33 c 1
 826 83 821 214 821 309 c 0
 821 358 822 384 822 426 c 0
 822 546 805 672 733 754 c 1
 734 755 l 1
 833 656 l 1
 905 574 922 447 922 327 c 0
 922 285 921 259 921 210 c 0
 921 114 926 -19 952 -67 c 1
 952 -67 759 -69 736 -69 c 1
 711 -44 l 1
 706 -44 701 -44 698 -45 c 0
 696 -47 688 -62 688 -69 c 1
 611 -76 527 -100 443 -100 c 0
 331 -100 212 -74 143 -5 c 2
 41 99 l 1
516 594 m 1
 516 594 l 1
 516 594 l 1
343 175 m 1
 354 268 470 298 577 311 c 1
 578 311 l 1
 578 347.333007812 578 383.666666667 578 420 c 1
 577 420 l 1
 457 411 242 399 242 261 c 0
 242 199 293 176 343 175 c 1
EndSplineSet
EndChar

StartChar: b
Encoding: 98 98 27
Width: 1076
VWidth: 0
Flags: HMWO
LayerCount: 2
UndoRedoHistory
Layer: 1
Undoes
UndoOperation
Index: 0
Type: 1
WasModified: 1
WasOrder2: 0
Layer: 2
Width: 1076
VWidth: 0
LBearingChange: 0
UnicodeEnc: 0
InstructionsLength: 0
SplineSet
52.9404296875 8 m 1
 151.940429688 -91.970703125 l 1
 398.940429688 -91.970703125 l 1
 398.940429688 -21.970703125 l 1
 418.940429688 -41.970703125 437.940429688 -57.970703125 469.940429688 -72.970703125 c 0
 511.940429688 -91.970703125 556.471679688 -100 600.888671875 -100 c 0
 652.430664062 -100 702.940429688 -88.970703125 747.940429688 -71.970703125 c 0
 913.940429688 -6.970703125 1032.94042969 156.029296875 1032.94042969 344.029296875 c 0
 1032.94042969 466.029296875 982.940429688 577.029296875 901.940429688 658.029296875 c 1
 797.940429688 760.029296875 l 2
 880.940429688 679.029296875 932.940429688 567.029296875 932.940429688 443.029296875 c 0
 932.940429688 255.029296875 813.940429688 93.029296875 647.940429688 28.029296875 c 0
 602.940429688 11.029296875 553.0078125 0 502 0 c 0
 424.364257812 0 328.940429688 34.029296875 298.940429688 84.029296875 c 1
 298.940429688 59.029296875 298.940429688 33 298.940429688 8 c 1
 52.9404296875 8 l 1
298.940429688 1198 m 5
 298.940429688 1033 298.940429688 959.029296875 298.940429688 794.029296875 c 1
 320.940429688 817.029296875 361.940429688 847.029296875 398.940429688 863.029296875 c 1
 398.940429688 973.029296875 398.940429688 990 398.940429688 1100 c 5
 298.940429688 1198 l 5
396.940429688 245.029296875 m 1
 325.940429688 279.029296875 275.940429688 352.029296875 275.940429688 436.029296875 c 0
 275.940429688 553.029296875 369.940429688 647.029296875 486.940429688 647.029296875 c 0
 570.940429688 647.029296875 643.940429688 597.029296875 677.940429688 526.029296875 c 1
 676.940429688 526.029296875 l 1
 649.940429688 539.029296875 617.940429688 547.029296875 585.940429688 547.029296875 c 0
 469.940429688 547.029296875 375.940429688 453.029296875 375.940429688 337.029296875 c 0
 375.940429688 305.029296875 383.940429688 273.029296875 396.940429688 246.029296875 c 1
 396.940429688 245.029296875 l 1
EndSplineSet
EndUndoOperation
UndoOperation
Index: 1
Type: 1
WasModified: 1
WasOrder2: 0
Layer: 2
Width: 1076
VWidth: 0
LBearingChange: 0
UnicodeEnc: 0
InstructionsLength: 0
SplineSet
52.9404296875 8 m 1
 151.940429688 -91.970703125 l 1
 398.940429688 -91.970703125 l 1
 398.940429688 -21.970703125 l 1
 418.940429688 -41.970703125 437.940429688 -57.970703125 469.940429688 -72.970703125 c 0
 511.940429688 -91.970703125 556.471679688 -100 600.888671875 -100 c 0
 652.430664062 -100 702.940429688 -88.970703125 747.940429688 -71.970703125 c 0
 913.940429688 -6.970703125 1032.94042969 156.029296875 1032.94042969 344.029296875 c 0
 1032.94042969 466.029296875 982.940429688 577.029296875 901.940429688 658.029296875 c 1
 797.940429688 760.029296875 l 2
 880.940429688 679.029296875 932.940429688 567.029296875 932.940429688 443.029296875 c 0
 932.940429688 255.029296875 813.940429688 93.029296875 647.940429688 28.029296875 c 0
 602.940429688 11.029296875 553.0078125 0 502 0 c 0
 424.364257812 0 328.940429688 34.029296875 298.940429688 84.029296875 c 1
 298.940429688 59.029296875 298.940429688 33 298.940429688 8 c 1
 52.9404296875 8 l 1
298.940429688 1188 m 5
 298.940429688 1023 298.940429688 959.029296875 298.940429688 794.029296875 c 1
 320.940429688 817.029296875 361.940429688 847.029296875 398.940429688 863.029296875 c 1
 398.940429688 973.029296875 398.940429688 980 398.940429688 1090 c 5
 298.940429688 1188 l 5
396.940429688 245.029296875 m 1
 325.940429688 279.029296875 275.940429688 352.029296875 275.940429688 436.029296875 c 0
 275.940429688 553.029296875 369.940429688 647.029296875 486.940429688 647.029296875 c 0
 570.940429688 647.029296875 643.940429688 597.029296875 677.940429688 526.029296875 c 1
 676.940429688 526.029296875 l 1
 649.940429688 539.029296875 617.940429688 547.029296875 585.940429688 547.029296875 c 0
 469.940429688 547.029296875 375.940429688 453.029296875 375.940429688 337.029296875 c 0
 375.940429688 305.029296875 383.940429688 273.029296875 396.940429688 246.029296875 c 1
 396.940429688 245.029296875 l 1
EndSplineSet
EndUndoOperation
UndoOperation
Index: 2
Type: 1
WasModified: 1
WasOrder2: 0
Layer: 2
Width: 1076
VWidth: 0
LBearingChange: 0
UnicodeEnc: 0
InstructionsLength: 0
SplineSet
52.9404296875 8 m 1
 151.940429688 -91.970703125 l 1
 398.940429688 -91.970703125 l 1
 398.940429688 -21.970703125 l 1
 418.940429688 -41.970703125 437.940429688 -57.970703125 469.940429688 -72.970703125 c 0
 511.940429688 -91.970703125 556.471679688 -100 600.888671875 -100 c 0
 652.430664062 -100 702.940429688 -88.970703125 747.940429688 -71.970703125 c 0
 913.940429688 -6.970703125 1032.94042969 156.029296875 1032.94042969 344.029296875 c 0
 1032.94042969 466.029296875 982.940429688 577.029296875 901.940429688 658.029296875 c 1
 797.940429688 760.029296875 l 2
 880.940429688 679.029296875 932.940429688 567.029296875 932.940429688 443.029296875 c 0
 932.940429688 255.029296875 813.940429688 93.029296875 647.940429688 28.029296875 c 0
 602.940429688 11.029296875 553.0078125 0 502 0 c 0
 424.364257812 0 328.940429688 34.029296875 298.940429688 84.029296875 c 1
 298.940429688 59.029296875 298.940429688 33 298.940429688 8 c 1
 52.9404296875 8 l 1
298.940429688 1178 m 5
 298.940429688 1013 298.940429688 959.029296875 298.940429688 794.029296875 c 1
 320.940429688 817.029296875 361.940429688 847.029296875 398.940429688 863.029296875 c 1
 398.940429688 973.029296875 398.940429688 970 398.940429688 1080 c 5
 298.940429688 1178 l 5
396.940429688 245.029296875 m 1
 325.940429688 279.029296875 275.940429688 352.029296875 275.940429688 436.029296875 c 0
 275.940429688 553.029296875 369.940429688 647.029296875 486.940429688 647.029296875 c 0
 570.940429688 647.029296875 643.940429688 597.029296875 677.940429688 526.029296875 c 1
 676.940429688 526.029296875 l 1
 649.940429688 539.029296875 617.940429688 547.029296875 585.940429688 547.029296875 c 0
 469.940429688 547.029296875 375.940429688 453.029296875 375.940429688 337.029296875 c 0
 375.940429688 305.029296875 383.940429688 273.029296875 396.940429688 246.029296875 c 1
 396.940429688 245.029296875 l 1
EndSplineSet
EndUndoOperation
UndoOperation
Index: 3
Type: 1
WasModified: 1
WasOrder2: 0
Layer: 2
Width: 1076
VWidth: 0
LBearingChange: 0
UnicodeEnc: 0
InstructionsLength: 0
SplineSet
52.9404296875 8 m 1
 151.940429688 -91.970703125 l 1
 398.940429688 -91.970703125 l 1
 398.940429688 -21.970703125 l 1
 418.940429688 -41.970703125 437.940429688 -57.970703125 469.940429688 -72.970703125 c 0
 511.940429688 -91.970703125 556.471679688 -100 600.888671875 -100 c 0
 652.430664062 -100 702.940429688 -88.970703125 747.940429688 -71.970703125 c 0
 913.940429688 -6.970703125 1032.94042969 156.029296875 1032.94042969 344.029296875 c 0
 1032.94042969 466.029296875 982.940429688 577.029296875 901.940429688 658.029296875 c 1
 797.940429688 760.029296875 l 2
 880.940429688 679.029296875 932.940429688 567.029296875 932.940429688 443.029296875 c 0
 932.940429688 255.029296875 813.940429688 93.029296875 647.940429688 28.029296875 c 0
 602.940429688 11.029296875 553.0078125 0 502 0 c 0
 424.364257812 0 328.940429688 34.029296875 298.940429688 84.029296875 c 1
 298.940429688 59.029296875 298.940429688 33 298.940429688 8 c 1
 52.9404296875 8 l 1
298.940429688 1168 m 5
 298.940429688 1003 298.940429688 959.029296875 298.940429688 794.029296875 c 1
 320.940429688 817.029296875 361.940429688 847.029296875 398.940429688 863.029296875 c 1
 398.940429688 973.029296875 398.940429688 960 398.940429688 1070 c 5
 298.940429688 1168 l 5
396.940429688 245.029296875 m 1
 325.940429688 279.029296875 275.940429688 352.029296875 275.940429688 436.029296875 c 0
 275.940429688 553.029296875 369.940429688 647.029296875 486.940429688 647.029296875 c 0
 570.940429688 647.029296875 643.940429688 597.029296875 677.940429688 526.029296875 c 1
 676.940429688 526.029296875 l 1
 649.940429688 539.029296875 617.940429688 547.029296875 585.940429688 547.029296875 c 0
 469.940429688 547.029296875 375.940429688 453.029296875 375.940429688 337.029296875 c 0
 375.940429688 305.029296875 383.940429688 273.029296875 396.940429688 246.029296875 c 1
 396.940429688 245.029296875 l 1
EndSplineSet
EndUndoOperation
UndoOperation
Index: 4
Type: 1
WasModified: 1
WasOrder2: 0
Layer: 2
Width: 1076
VWidth: 0
LBearingChange: 0
UnicodeEnc: 0
InstructionsLength: 0
SplineSet
52.9404296875 8 m 1
 151.940429688 -91.970703125 l 1
 398.940429688 -91.970703125 l 1
 398.940429688 -21.970703125 l 1
 418.940429688 -41.970703125 437.940429688 -57.970703125 469.940429688 -72.970703125 c 0
 511.940429688 -91.970703125 556.471679688 -100 600.888671875 -100 c 0
 652.430664062 -100 702.940429688 -88.970703125 747.940429688 -71.970703125 c 0
 913.940429688 -6.970703125 1032.94042969 156.029296875 1032.94042969 344.029296875 c 0
 1032.94042969 466.029296875 982.940429688 577.029296875 901.940429688 658.029296875 c 1
 797.940429688 760.029296875 l 2
 880.940429688 679.029296875 932.940429688 567.029296875 932.940429688 443.029296875 c 0
 932.940429688 255.029296875 813.940429688 93.029296875 647.940429688 28.029296875 c 0
 602.940429688 11.029296875 553.0078125 0 502 0 c 0
 424.364257812 0 328.940429688 34.029296875 298.940429688 84.029296875 c 1
 298.940429688 59.029296875 298.940429688 33 298.940429688 8 c 1
 52.9404296875 8 l 1
298.940429688 1158 m 5
 298.940429688 993 298.940429688 959.029296875 298.940429688 794.029296875 c 1
 320.940429688 817.029296875 361.940429688 847.029296875 398.940429688 863.029296875 c 1
 398.940429688 973.029296875 398.940429688 950 398.940429688 1060 c 5
 298.940429688 1158 l 5
396.940429688 245.029296875 m 1
 325.940429688 279.029296875 275.940429688 352.029296875 275.940429688 436.029296875 c 0
 275.940429688 553.029296875 369.940429688 647.029296875 486.940429688 647.029296875 c 0
 570.940429688 647.029296875 643.940429688 597.029296875 677.940429688 526.029296875 c 1
 676.940429688 526.029296875 l 1
 649.940429688 539.029296875 617.940429688 547.029296875 585.940429688 547.029296875 c 0
 469.940429688 547.029296875 375.940429688 453.029296875 375.940429688 337.029296875 c 0
 375.940429688 305.029296875 383.940429688 273.029296875 396.940429688 246.029296875 c 1
 396.940429688 245.029296875 l 1
EndSplineSet
EndUndoOperation
UndoOperation
Index: 5
Type: 1
WasModified: 1
WasOrder2: 0
Layer: 2
Width: 1076
VWidth: 0
LBearingChange: 0
UnicodeEnc: 0
InstructionsLength: 0
SplineSet
52.9404296875 8 m 1
 151.940429688 -91.970703125 l 1
 398.940429688 -91.970703125 l 1
 398.940429688 -21.970703125 l 1
 418.940429688 -41.970703125 437.940429688 -57.970703125 469.940429688 -72.970703125 c 0
 511.940429688 -91.970703125 556.471679688 -100 600.888671875 -100 c 0
 652.430664062 -100 702.940429688 -88.970703125 747.940429688 -71.970703125 c 0
 913.940429688 -6.970703125 1032.94042969 156.029296875 1032.94042969 344.029296875 c 0
 1032.94042969 466.029296875 982.940429688 577.029296875 901.940429688 658.029296875 c 1
 797.940429688 760.029296875 l 2
 880.940429688 679.029296875 932.940429688 567.029296875 932.940429688 443.029296875 c 0
 932.940429688 255.029296875 813.940429688 93.029296875 647.940429688 28.029296875 c 0
 602.940429688 11.029296875 553.0078125 0 502 0 c 0
 424.364257812 0 328.940429688 34.029296875 298.940429688 84.029296875 c 1
 298.940429688 59.029296875 298.940429688 33 298.940429688 8 c 1
 52.9404296875 8 l 1
298.940429688 1148 m 5
 298.940429688 983 298.940429688 959.029296875 298.940429688 794.029296875 c 1
 320.940429688 817.029296875 361.940429688 847.029296875 398.940429688 863.029296875 c 1
 398.940429688 973.029296875 398.940429688 940 398.940429688 1050 c 5
 298.940429688 1148 l 5
396.940429688 245.029296875 m 1
 325.940429688 279.029296875 275.940429688 352.029296875 275.940429688 436.029296875 c 0
 275.940429688 553.029296875 369.940429688 647.029296875 486.940429688 647.029296875 c 0
 570.940429688 647.029296875 643.940429688 597.029296875 677.940429688 526.029296875 c 1
 676.940429688 526.029296875 l 1
 649.940429688 539.029296875 617.940429688 547.029296875 585.940429688 547.029296875 c 0
 469.940429688 547.029296875 375.940429688 453.029296875 375.940429688 337.029296875 c 0
 375.940429688 305.029296875 383.940429688 273.029296875 396.940429688 246.029296875 c 1
 396.940429688 245.029296875 l 1
EndSplineSet
EndUndoOperation
UndoOperation
Index: 6
Type: 1
WasModified: 0
WasOrder2: 0
Layer: 2
Width: 1076
VWidth: 0
LBearingChange: 0
UnicodeEnc: 0
InstructionsLength: 0
SplineSet
52.9404296875 8 m 1
 151.940429688 -91.970703125 l 1
 398.940429688 -91.970703125 l 1
 398.940429688 -21.970703125 l 1
 418.940429688 -41.970703125 437.940429688 -57.970703125 469.940429688 -72.970703125 c 0
 511.940429688 -91.970703125 556.471679688 -100 600.888671875 -100 c 0
 652.430664062 -100 702.940429688 -88.970703125 747.940429688 -71.970703125 c 0
 913.940429688 -6.970703125 1032.94042969 156.029296875 1032.94042969 344.029296875 c 0
 1032.94042969 466.029296875 982.940429688 577.029296875 901.940429688 658.029296875 c 1
 797.940429688 760.029296875 l 2
 880.940429688 679.029296875 932.940429688 567.029296875 932.940429688 443.029296875 c 0
 932.940429688 255.029296875 813.940429688 93.029296875 647.940429688 28.029296875 c 0
 602.940429688 11.029296875 553.0078125 0 502 0 c 0
 424.364257812 0 328.940429688 34.029296875 298.940429688 84.029296875 c 1
 298.940429688 59.029296875 298.940429688 33 298.940429688 8 c 1
 52.9404296875 8 l 1
298.940429688 1290.02929688 m 5
 298.940429688 1125.02929688 298.940429688 959.029296875 298.940429688 794.029296875 c 1
 320.940429688 817.029296875 361.940429688 847.029296875 398.940429688 863.029296875 c 1
 398.940429688 973.029296875 398.940429688 1082.02929688 398.940429688 1192.02929688 c 5
 298.940429688 1290.02929688 l 5
396.940429688 245.029296875 m 1
 325.940429688 279.029296875 275.940429688 352.029296875 275.940429688 436.029296875 c 0
 275.940429688 553.029296875 369.940429688 647.029296875 486.940429688 647.029296875 c 0
 570.940429688 647.029296875 643.940429688 597.029296875 677.940429688 526.029296875 c 1
 676.940429688 526.029296875 l 1
 649.940429688 539.029296875 617.940429688 547.029296875 585.940429688 547.029296875 c 0
 469.940429688 547.029296875 375.940429688 453.029296875 375.940429688 337.029296875 c 0
 375.940429688 305.029296875 383.940429688 273.029296875 396.940429688 246.029296875 c 1
 396.940429688 245.029296875 l 1
EndSplineSet
EndUndoOperation
UndoOperation
Index: 7
Type: 1
WasModified: 1
WasOrder2: 0
Layer: 2
Width: 1076
VWidth: 0
LBearingChange: 0
UnicodeEnc: 0
InstructionsLength: 0
SplineSet
52.9404296875 8 m 1
 151.940429688 -91.970703125 l 1
 398.940429688 -91.970703125 l 1
 398.940429688 -21.970703125 l 1
 418.940429688 -41.970703125 437.940429688 -57.970703125 469.940429688 -72.970703125 c 0
 511.940429688 -91.970703125 556.471679688 -100 600.888671875 -100 c 0
 652.430664062 -100 702.940429688 -88.970703125 747.940429688 -71.970703125 c 0
 913.940429688 -6.970703125 1032.94042969 156.029296875 1032.94042969 344.029296875 c 0
 1032.94042969 466.029296875 982.940429688 577.029296875 901.940429688 658.029296875 c 1
 797.940429688 760.029296875 l 2
 880.940429688 679.029296875 932.940429688 567.029296875 932.940429688 443.029296875 c 0
 932.940429688 255.029296875 813.940429688 93.029296875 647.940429688 28.029296875 c 0
 602.940429688 11.029296875 553.0078125 0 502 0 c 0
 424.364257812 0 328.940429688 34.029296875 298.940429688 84.029296875 c 1
 298.940429688 59.029296875 298.940429688 33 298.940429688 8 c 1
 52.9404296875 8 l 1
299.940429688 1291.02929688 m 5
 398.940429688 1192.02929688 l 1
 398.940429688 1082.02929688 398.940429688 973.029296875 398.940429688 863.029296875 c 1
 361.940429688 847.029296875 320.940429688 817.029296875 298.940429688 794.029296875 c 1
 298.940429688 959.029296875 298.940429688 1125.02929688 298.940429688 1290.02929688 c 1024
396.940429688 245.029296875 m 1
 325.940429688 279.029296875 275.940429688 352.029296875 275.940429688 436.029296875 c 0
 275.940429688 553.029296875 369.940429688 647.029296875 486.940429688 647.029296875 c 0
 570.940429688 647.029296875 643.940429688 597.029296875 677.940429688 526.029296875 c 1
 676.940429688 526.029296875 l 1
 649.940429688 539.029296875 617.940429688 547.029296875 585.940429688 547.029296875 c 0
 469.940429688 547.029296875 375.940429688 453.029296875 375.940429688 337.029296875 c 0
 375.940429688 305.029296875 383.940429688 273.029296875 396.940429688 246.029296875 c 1
 396.940429688 245.029296875 l 1
EndSplineSet
EndUndoOperation
UndoOperation
Index: 8
Type: 1
WasModified: 1
WasOrder2: 0
Layer: 2
Width: 1076
VWidth: 0
LBearingChange: 0
UnicodeEnc: 0
InstructionsLength: 0
SplineSet
52.9404296875 7.029296875 m 5
 151.940429688 -91.970703125 l 1
 398.940429688 -91.970703125 l 1
 398.940429688 -21.970703125 l 1
 418.940429688 -41.970703125 437.940429688 -57.970703125 469.940429688 -72.970703125 c 0
 511.940429688 -91.970703125 556.471679688 -100 600.888671875 -100 c 0
 652.430664062 -100 702.940429688 -88.970703125 747.940429688 -71.970703125 c 0
 913.940429688 -6.970703125 1032.94042969 156.029296875 1032.94042969 344.029296875 c 0
 1032.94042969 466.029296875 982.940429688 577.029296875 901.940429688 658.029296875 c 1
 797.940429688 760.029296875 l 2
 880.940429688 679.029296875 932.940429688 567.029296875 932.940429688 443.029296875 c 0
 932.940429688 255.029296875 813.940429688 93.029296875 647.940429688 28.029296875 c 0
 602.940429688 11.029296875 553.0078125 0 502 0 c 0
 424.364257812 0 328.940429688 34.029296875 298.940429688 84.029296875 c 1
 298.940429688 59.029296875 298.940429688 33.029296875 298.940429688 8.029296875 c 5
 52.9404296875 7.029296875 l 5
299.940429688 1291.02929688 m 1
 398.940429688 1192.02929688 l 1
 398.940429688 1082.02929688 398.940429688 973.029296875 398.940429688 863.029296875 c 1
 361.940429688 847.029296875 320.940429688 817.029296875 298.940429688 794.029296875 c 1
 298.940429688 959.029296875 298.940429688 1125.02929688 298.940429688 1290.02929688 c 1024
396.940429688 245.029296875 m 1
 325.940429688 279.029296875 275.940429688 352.029296875 275.940429688 436.029296875 c 0
 275.940429688 553.029296875 369.940429688 647.029296875 486.940429688 647.029296875 c 0
 570.940429688 647.029296875 643.940429688 597.029296875 677.940429688 526.029296875 c 1
 676.940429688 526.029296875 l 1
 649.940429688 539.029296875 617.940429688 547.029296875 585.940429688 547.029296875 c 0
 469.940429688 547.029296875 375.940429688 453.029296875 375.940429688 337.029296875 c 0
 375.940429688 305.029296875 383.940429688 273.029296875 396.940429688 246.029296875 c 1
 396.940429688 245.029296875 l 1
EndSplineSet
EndUndoOperation
UndoOperation
Index: 9
Type: 1
WasModified: 1
WasOrder2: 0
Layer: 2
Width: 1076
VWidth: 0
LBearingChange: 0
UnicodeEnc: 0
InstructionsLength: 0
SplineSet
165 46 m 5
 298.940429688 8.029296875 l 1
 298.940429688 33.029296875 298.940429688 59.029296875 298.940429688 84.029296875 c 1
 328.940429688 34.029296875 424.364257812 0 502 0 c 0
 553.0078125 0 602.940429688 11.029296875 647.940429688 28.029296875 c 0
 813.940429688 93.029296875 932.940429688 255.029296875 932.940429688 443.029296875 c 0
 932.940429688 567.029296875 880.940429688 679.029296875 797.940429688 760.029296875 c 2
 901.940429688 658.029296875 l 1
 982.940429688 577.029296875 1032.94042969 466.029296875 1032.94042969 344.029296875 c 0
 1032.94042969 156.029296875 913.940429688 -6.970703125 747.940429688 -71.970703125 c 0
 702.940429688 -88.970703125 652.430664062 -100 600.888671875 -100 c 0
 556.471679688 -100 511.940429688 -91.970703125 469.940429688 -72.970703125 c 0
 437.940429688 -57.970703125 418.940429688 -41.970703125 398.940429688 -21.970703125 c 1
 398.940429688 -91.970703125 l 1
 151.940429688 -91.970703125 l 1
 52.9404296875 7.029296875 l 1025
299.940429688 1291.02929688 m 1
 398.940429688 1192.02929688 l 1
 398.940429688 1082.02929688 398.940429688 973.029296875 398.940429688 863.029296875 c 1
 361.940429688 847.029296875 320.940429688 817.029296875 298.940429688 794.029296875 c 1
 298.940429688 959.029296875 298.940429688 1125.02929688 298.940429688 1290.02929688 c 1024
396.940429688 245.029296875 m 1
 325.940429688 279.029296875 275.940429688 352.029296875 275.940429688 436.029296875 c 0
 275.940429688 553.029296875 369.940429688 647.029296875 486.940429688 647.029296875 c 0
 570.940429688 647.029296875 643.940429688 597.029296875 677.940429688 526.029296875 c 1
 676.940429688 526.029296875 l 1
 649.940429688 539.029296875 617.940429688 547.029296875 585.940429688 547.029296875 c 0
 469.940429688 547.029296875 375.940429688 453.029296875 375.940429688 337.029296875 c 0
 375.940429688 305.029296875 383.940429688 273.029296875 396.940429688 246.029296875 c 1
 396.940429688 245.029296875 l 1
EndSplineSet
EndUndoOperation
UndoOperation
Index: 10
Type: 1
WasModified: 1
WasOrder2: 0
Layer: 2
Width: 1076
VWidth: 0
LBearingChange: 0
UnicodeEnc: 0
InstructionsLength: 0
SplineSet
52.9404296875 7.029296875 m 5
 298.940429688 8.029296875 l 1
 298.940429688 33.029296875 298.940429688 59.029296875 298.940429688 84.029296875 c 1
 328.940429688 34.029296875 424.364257812 0 502 0 c 0
 553.0078125 0 602.940429688 11.029296875 647.940429688 28.029296875 c 0
 813.940429688 93.029296875 932.940429688 255.029296875 932.940429688 443.029296875 c 0
 932.940429688 567.029296875 880.940429688 679.029296875 797.940429688 760.029296875 c 2
 901.940429688 658.029296875 l 1
 982.940429688 577.029296875 1032.94042969 466.029296875 1032.94042969 344.029296875 c 0
 1032.94042969 156.029296875 913.940429688 -6.970703125 747.940429688 -71.970703125 c 0
 702.940429688 -88.970703125 652.430664062 -100 600.888671875 -100 c 0
 556.471679688 -100 511.940429688 -91.970703125 469.940429688 -72.970703125 c 0
 437.940429688 -57.970703125 418.940429688 -41.970703125 398.940429688 -21.970703125 c 1
 398.940429688 -91.970703125 l 1
 151.940429688 -91.970703125 l 1
 52.9404296875 7.029296875 l 1025
299.940429688 1291.02929688 m 1
 398.940429688 1192.02929688 l 1
 398.940429688 1082.02929688 398.940429688 973.029296875 398.940429688 863.029296875 c 1
 361.940429688 847.029296875 320.940429688 817.029296875 298.940429688 794.029296875 c 1
 298.940429688 959.029296875 298.940429688 1125.02929688 298.940429688 1290.02929688 c 1024
396.940429688 245.029296875 m 1
 325.940429688 279.029296875 275.940429688 352.029296875 275.940429688 436.029296875 c 0
 275.940429688 553.029296875 369.940429688 647.029296875 486.940429688 647.029296875 c 0
 570.940429688 647.029296875 643.940429688 597.029296875 677.940429688 526.029296875 c 1
 676.940429688 526.029296875 l 1
 649.940429688 539.029296875 617.940429688 547.029296875 585.940429688 547.029296875 c 0
 469.940429688 547.029296875 375.940429688 453.029296875 375.940429688 337.029296875 c 0
 375.940429688 305.029296875 383.940429688 273.029296875 396.940429688 246.029296875 c 1
 396.940429688 245.029296875 l 1
EndSplineSet
EndUndoOperation
UndoOperation
Index: 11
Type: 1
WasModified: 1
WasOrder2: 0
Layer: 2
Width: 1076
VWidth: 0
LBearingChange: 0
UnicodeEnc: 0
InstructionsLength: 0
SplineSet
159 52 m 5
 298.940429688 8.029296875 l 1
 298.940429688 33.029296875 298.940429688 59.029296875 298.940429688 84.029296875 c 1
 328.940429688 34.029296875 424.364257812 0 502 0 c 0
 553.0078125 0 602.940429688 11.029296875 647.940429688 28.029296875 c 0
 813.940429688 93.029296875 932.940429688 255.029296875 932.940429688 443.029296875 c 0
 932.940429688 567.029296875 880.940429688 679.029296875 797.940429688 760.029296875 c 2
 901.940429688 658.029296875 l 1
 982.940429688 577.029296875 1032.94042969 466.029296875 1032.94042969 344.029296875 c 0
 1032.94042969 156.029296875 913.940429688 -6.970703125 747.940429688 -71.970703125 c 0
 702.940429688 -88.970703125 652.430664062 -100 600.888671875 -100 c 0
 556.471679688 -100 511.940429688 -91.970703125 469.940429688 -72.970703125 c 0
 437.940429688 -57.970703125 418.940429688 -41.970703125 398.940429688 -21.970703125 c 1
 398.940429688 -91.970703125 l 1
 151.940429688 -91.970703125 l 1
 52.9404296875 7.029296875 l 1025
299.940429688 1291.02929688 m 1
 398.940429688 1192.02929688 l 1
 398.940429688 1082.02929688 398.940429688 973.029296875 398.940429688 863.029296875 c 1
 361.940429688 847.029296875 320.940429688 817.029296875 298.940429688 794.029296875 c 1
 298.940429688 959.029296875 298.940429688 1125.02929688 298.940429688 1290.02929688 c 1024
396.940429688 245.029296875 m 1
 325.940429688 279.029296875 275.940429688 352.029296875 275.940429688 436.029296875 c 0
 275.940429688 553.029296875 369.940429688 647.029296875 486.940429688 647.029296875 c 0
 570.940429688 647.029296875 643.940429688 597.029296875 677.940429688 526.029296875 c 1
 676.940429688 526.029296875 l 1
 649.940429688 539.029296875 617.940429688 547.029296875 585.940429688 547.029296875 c 0
 469.940429688 547.029296875 375.940429688 453.029296875 375.940429688 337.029296875 c 0
 375.940429688 305.029296875 383.940429688 273.029296875 396.940429688 246.029296875 c 1
 396.940429688 245.029296875 l 1
EndSplineSet
EndUndoOperation
UndoOperation
Index: 12
Type: 1
WasModified: 1
WasOrder2: 0
Layer: 2
Width: 1076
VWidth: 0
LBearingChange: 0
UnicodeEnc: 0
InstructionsLength: 0
SplineSet
53.9404296875 8.029296875 m 5
 298.940429688 8.029296875 l 1
 298.940429688 33.029296875 298.940429688 59.029296875 298.940429688 84.029296875 c 1
 328.940429688 34.029296875 424.364257812 0 502 0 c 0
 553.0078125 0 602.940429688 11.029296875 647.940429688 28.029296875 c 0
 813.940429688 93.029296875 932.940429688 255.029296875 932.940429688 443.029296875 c 0
 932.940429688 567.029296875 880.940429688 679.029296875 797.940429688 760.029296875 c 2
 901.940429688 658.029296875 l 1
 982.940429688 577.029296875 1032.94042969 466.029296875 1032.94042969 344.029296875 c 0
 1032.94042969 156.029296875 913.940429688 -6.970703125 747.940429688 -71.970703125 c 0
 702.940429688 -88.970703125 652.430664062 -100 600.888671875 -100 c 0
 556.471679688 -100 511.940429688 -91.970703125 469.940429688 -72.970703125 c 0
 437.940429688 -57.970703125 418.940429688 -41.970703125 398.940429688 -21.970703125 c 1
 398.940429688 -91.970703125 l 1
 151.940429688 -91.970703125 l 1
 52.9404296875 7.029296875 l 1025
299.940429688 1291.02929688 m 1
 398.940429688 1192.02929688 l 1
 398.940429688 1082.02929688 398.940429688 973.029296875 398.940429688 863.029296875 c 1
 361.940429688 847.029296875 320.940429688 817.029296875 298.940429688 794.029296875 c 1
 298.940429688 959.029296875 298.940429688 1125.02929688 298.940429688 1290.02929688 c 1024
396.940429688 245.029296875 m 1
 325.940429688 279.029296875 275.940429688 352.029296875 275.940429688 436.029296875 c 0
 275.940429688 553.029296875 369.940429688 647.029296875 486.940429688 647.029296875 c 0
 570.940429688 647.029296875 643.940429688 597.029296875 677.940429688 526.029296875 c 1
 676.940429688 526.029296875 l 1
 649.940429688 539.029296875 617.940429688 547.029296875 585.940429688 547.029296875 c 0
 469.940429688 547.029296875 375.940429688 453.029296875 375.940429688 337.029296875 c 0
 375.940429688 305.029296875 383.940429688 273.029296875 396.940429688 246.029296875 c 1
 396.940429688 245.029296875 l 1
EndSplineSet
EndUndoOperation
UndoOperation
Index: 13
Type: 1
WasModified: 1
WasOrder2: 0
Layer: 2
Width: 1076
VWidth: 0
LBearingChange: 0
UnicodeEnc: 0
InstructionsLength: 0
SplineSet
53.9404296875 8.029296875 m 1
 298.940429688 8.029296875 l 1
 298.940429688 33.029296875 298.940429688 59.029296875 298.940429688 84.029296875 c 1
 328.940429688 34.029296875 424.364257812 0 502 0 c 0
 553.0078125 0 602.940429688 11.029296875 647.940429688 28.029296875 c 0
 813.940429688 93.029296875 932.940429688 255.029296875 932.940429688 443.029296875 c 0
 932.940429688 567.029296875 880.940429688 679.029296875 797.940429688 760.029296875 c 2
 901.940429688 658.029296875 l 1
 982.940429688 577.029296875 1032.94042969 466.029296875 1032.94042969 344.029296875 c 0
 1032.94042969 156.029296875 913.940429688 -6.970703125 747.940429688 -71.970703125 c 0
 702.940429688 -88.970703125 652.430664062 -100 600.888671875 -100 c 0
 556.471679688 -100 511.940429688 -91.970703125 469.940429688 -72.970703125 c 0
 437.940429688 -57.970703125 418.940429688 -41.970703125 398.940429688 -21.970703125 c 1
 398.940429688 -91.970703125 l 1
 151.940429688 -91.970703125 l 5
 52.9404296875 7.029296875 l 1025
299.940429688 1291.02929688 m 1
 398.940429688 1192.02929688 l 1
 398.940429688 1082.02929688 398.940429688 973.029296875 398.940429688 863.029296875 c 1
 361.940429688 847.029296875 320.940429688 817.029296875 298.940429688 794.029296875 c 1
 298.940429688 959.029296875 298.940429688 1125.02929688 298.940429688 1290.02929688 c 1024
396.940429688 245.029296875 m 1
 325.940429688 279.029296875 275.940429688 352.029296875 275.940429688 436.029296875 c 0
 275.940429688 553.029296875 369.940429688 647.029296875 486.940429688 647.029296875 c 0
 570.940429688 647.029296875 643.940429688 597.029296875 677.940429688 526.029296875 c 1
 676.940429688 526.029296875 l 1
 649.940429688 539.029296875 617.940429688 547.029296875 585.940429688 547.029296875 c 0
 469.940429688 547.029296875 375.940429688 453.029296875 375.940429688 337.029296875 c 0
 375.940429688 305.029296875 383.940429688 273.029296875 396.940429688 246.029296875 c 1
 396.940429688 245.029296875 l 1
EndSplineSet
EndUndoOperation
UndoOperation
Index: 14
Type: 1
WasModified: 1
WasOrder2: 0
Layer: 2
Width: 1076
VWidth: 0
LBearingChange: 0
UnicodeEnc: 0
InstructionsLength: 0
SplineSet
53.9404296875 8.029296875 m 1
 298.940429688 8.029296875 l 1
 298.940429688 33.029296875 298.940429688 59.029296875 298.940429688 84.029296875 c 1
 328.940429688 34.029296875 424.364257812 0 502 0 c 0
 553.0078125 0 602.940429688 11.029296875 647.940429688 28.029296875 c 0
 813.940429688 93.029296875 932.940429688 255.029296875 932.940429688 443.029296875 c 0
 932.940429688 567.029296875 880.940429688 679.029296875 797.940429688 760.029296875 c 6
 901.940429688 658.029296875 l 1
 982.940429688 577.029296875 1032.94042969 466.029296875 1032.94042969 344.029296875 c 0
 1032.94042969 156.029296875 913.940429688 -6.970703125 747.940429688 -71.970703125 c 0
 702.940429688 -88.970703125 652.430664062 -100 600.888671875 -100 c 0
 556.471679688 -100 511.940429688 -91.970703125 469.940429688 -72.970703125 c 0
 437.940429688 -57.970703125 418.940429688 -41.970703125 398.940429688 -21.970703125 c 1
 398.940429688 -91.970703125 l 1
 151.940429688 -91.970703125 l 1
 52.9404296875 7.029296875 l 1025
299.940429688 1291.02929688 m 1
 398.940429688 1192.02929688 l 1
 398.940429688 1082.02929688 398.940429688 973.029296875 398.940429688 863.029296875 c 1
 361.940429688 847.029296875 320.940429688 817.029296875 298.940429688 794.029296875 c 1
 298.940429688 959.029296875 298.940429688 1125.02929688 298.940429688 1290.02929688 c 1024
396.940429688 245.029296875 m 1
 325.940429688 279.029296875 275.940429688 352.029296875 275.940429688 436.029296875 c 0
 275.940429688 553.029296875 369.940429688 647.029296875 486.940429688 647.029296875 c 0
 570.940429688 647.029296875 643.940429688 597.029296875 677.940429688 526.029296875 c 1
 676.940429688 526.029296875 l 1
 649.940429688 539.029296875 617.940429688 547.029296875 585.940429688 547.029296875 c 0
 469.940429688 547.029296875 375.940429688 453.029296875 375.940429688 337.029296875 c 0
 375.940429688 305.029296875 383.940429688 273.029296875 396.940429688 246.029296875 c 1
 396.940429688 245.029296875 l 1
EndSplineSet
EndUndoOperation
UndoOperation
Index: 15
Type: 1
WasModified: 0
WasOrder2: 0
Layer: 2
Width: 1076
VWidth: 0
LBearingChange: 0
UnicodeEnc: 0
InstructionsLength: 0
SplineSet
53.9404296875 8.029296875 m 5
 298.940429688 8.029296875 l 1
 298.940429688 33.029296875 298.940429688 59.029296875 298.940429688 84.029296875 c 1
 328.940429688 34.029296875 424.364257812 0 502 0 c 0
 553.0078125 0 602.940429688 11.029296875 647.940429688 28.029296875 c 0
 813.940429688 93.029296875 932.940429688 255.029296875 932.940429688 443.029296875 c 0
 932.940429688 567.029296875 880.940429688 679.029296875 797.940429688 760.029296875 c 2
 901.940429688 658.029296875 l 1
 982.940429688 577.029296875 1032.94042969 466.029296875 1032.94042969 344.029296875 c 0
 1032.94042969 156.029296875 913.940429688 -6.970703125 747.940429688 -71.970703125 c 0
 702.940429688 -88.970703125 652.430664062 -100 600.888671875 -100 c 0
 556.471679688 -100 511.940429688 -91.970703125 469.940429688 -72.970703125 c 0
 437.940429688 -57.970703125 418.940429688 -41.970703125 398.940429688 -21.970703125 c 1
 398.940429688 -91.970703125 l 1
 151.940429688 -91.970703125 l 1
 52.9404296875 7.029296875 l 1025
299.940429688 1291.02929688 m 1
 398.940429688 1192.02929688 l 1
 398.940429688 1082.02929688 398.940429688 973.029296875 398.940429688 863.029296875 c 1
 361.940429688 847.029296875 320.940429688 817.029296875 298.940429688 794.029296875 c 1
 298.940429688 959.029296875 298.940429688 1125.02929688 298.940429688 1290.02929688 c 1024
396.940429688 245.029296875 m 1
 325.940429688 279.029296875 275.940429688 352.029296875 275.940429688 436.029296875 c 0
 275.940429688 553.029296875 369.940429688 647.029296875 486.940429688 647.029296875 c 0
 570.940429688 647.029296875 643.940429688 597.029296875 677.940429688 526.029296875 c 1
 676.940429688 526.029296875 l 1
 649.940429688 539.029296875 617.940429688 547.029296875 585.940429688 547.029296875 c 0
 469.940429688 547.029296875 375.940429688 453.029296875 375.940429688 337.029296875 c 0
 375.940429688 305.029296875 383.940429688 273.029296875 396.940429688 246.029296875 c 1
 396.940429688 245.029296875 l 1
EndSplineSet
EndUndoOperation
UndoOperation
Index: 16
Type: 1
WasModified: 1
WasOrder2: 0
Layer: 2
Width: 1076
VWidth: 0
LBearingChange: 0
UnicodeEnc: 0
InstructionsLength: 0
SplineSet
1 315 m 5
 246 315 l 5
 246 340 246 366 246 391 c 5
 276 341 371.423714721 306.971122711 449.059794512 306.971122711 c 4
 500.067420944 306.971122711 550 318 595 335 c 4
 761 400 880 562 880 750 c 4
 880 874 828 986 745 1067 c 6
 849 965 l 5
 930 884 980 773 980 651 c 4
 980 463 861 300 695 235 c 4
 650 218 599.49041712 206.971122711 547.948627944 206.971122711 c 4
 503.531543307 206.971122711 459 215 417 234 c 4
 385 249 366 265 346 285 c 5
 346 215 l 5
 99 215 l 5
 0 314 l 1029
247 1598 m 5
 346 1499 l 5
 346 1389 346 1280 346 1170 c 5
 309 1154 268 1124 246 1101 c 5
 246 1266 246 1432 246 1597 c 1028
344 552 m 5
 273 586 223 659 223 743 c 4
 223 860 317 954 434 954 c 4
 518 954 591 904 625 833 c 5
 624 833 l 5
 597 846 565 854 533 854 c 4
 417 854 323 760 323 644 c 4
 323 612 331 580 344 553 c 5
 344 552 l 5
EndSplineSet
EndUndoOperation
UndoOperation
Index: 17
Type: 1
WasModified: 1
WasOrder2: 0
Layer: 2
Width: 1076
VWidth: 0
LBearingChange: 0
UnicodeEnc: 0
InstructionsLength: 0
SplineSet
1 315 m 5
 246 315 l 5
 246 340.333333333 246 365.666666667 246 391 c 5
 275.646516935 340.828971341 371.423714721 306.971122711 449.059794512 306.971122711 c 0
 500.067420944 306.971122711 550.418729591 317.812040324 595 335 c 4
 761 400 880 562 880 750 c 4
 880 874 828 986 745 1067 c 6
 849 965 l 5
 930 884 980 773 980 651 c 4
 980 463 861 300 695 235 c 4
 650.418729591 217.812040324 599.49041712 206.971122711 547.948627944 206.971122711 c 0
 503.531543307 206.971122711 458.658863412 215.022073335 417 234 c 4
 385 249 366 265 346 285 c 5
 346 215 l 5
 99 215 l 5
 0 314 l 1029
247 1598 m 5
 346 1499 l 5
 346 1389.33333333 346 1279.66666667 346 1170 c 5
 309 1154 268 1124 246 1101 c 5
 246 1266 246 1432 246 1597 c 1028
344 552 m 5
 273 586 223 659 223 743 c 4
 223 860 317 954 434 954 c 4
 518 954 591 904 625 833 c 5
 624 833 l 5
 597 846 565 854 533 854 c 4
 417 854 323 760 323 644 c 4
 323 612 331 580 344 553 c 5
 344 552 l 5
EndSplineSet
EndUndoOperation
UndoOperation
Index: 18
Type: 1
WasModified: 1
WasOrder2: 0
Layer: 2
Width: 1076
VWidth: 0
LBearingChange: 0
UnicodeEnc: 0
InstructionsLength: 0
SplineSet
1 315 m 5
 246 315 l 5
 246 340.333333333 246 365.666666667 246 391 c 5
 259 369 285 350 319 334 c 4
 360.658863412 315.022073335 405.103034443 306.971122711 449.059794512 306.971122711 c 0
 500.067420944 306.971122711 550.418729591 317.812040324 595 335 c 4
 761 400 880 562 880 750 c 4
 880 874 828 986 745 1067 c 6
 849 965 l 5
 930 884 980 773 980 651 c 4
 980 463 861 300 695 235 c 4
 650.418729591 217.812040324 599.49041712 206.971122711 547.948627944 206.971122711 c 0
 503.531543307 206.971122711 458.658863412 215.022073335 417 234 c 4
 385 249 366 265 346 285 c 5
 346 215 l 5
 99 215 l 5
 0 314 l 1029
247 1598 m 5
 346 1499 l 5
 346 1389.33333333 346 1279.66666667 346 1170 c 5
 309 1154 268 1124 246 1101 c 5
 246 1266 246 1432 246 1597 c 1028
344 552 m 5
 273 586 223 659 223 743 c 4
 223 860 317 954 434 954 c 4
 518 954 591 904 625 833 c 5
 624 833 l 5
 597 846 565 854 533 854 c 4
 417 854 323 760 323 644 c 4
 323 612 331 580 344 553 c 5
 344 552 l 5
EndSplineSet
EndUndoOperation
UndoOperation
Index: 19
Type: 1
WasModified: 1
WasOrder2: 0
Layer: 2
Width: 1076
VWidth: 0
LBearingChange: 0
UnicodeEnc: 0
InstructionsLength: 0
SplineSet
1 315 m 5
 246 315 l 5
 246 340.333333333 246 365.666666667 246 391 c 5
 259 369 285 350 319 334 c 4
 409 293 512 303 595 335 c 4
 761 400 880 562 880 750 c 4
 880 874 828 986 745 1067 c 6
 849 965 l 5
 930 884 980 773 980 651 c 4
 980 463 861 300 695 235 c 4
 612 203 507 193 417 234 c 4
 385 249 366 265 346 285 c 5
 346 215 l 5
 99 215 l 5
 0 314 l 1029
247 1598 m 5
 346 1499 l 5
 346 1389.33333333 346 1279.66666667 346 1170 c 5
 309 1154 268 1124 246 1101 c 5
 246 1266 246 1432 246 1597 c 1028
344 552 m 5
 273 586 223 659 223 743 c 4
 223 860 317 954 434 954 c 4
 518 954 591 904 625 833 c 5
 624 833 l 5
 597 846 565 854 533 854 c 4
 417 854 323 760 323 644 c 4
 323 612 331 580 344 553 c 5
 344 552 l 5
EndSplineSet
EndUndoOperation
UndoOperation
Index: 20
Type: 1
WasModified: 1
WasOrder2: 0
Layer: 2
Width: 1076
VWidth: 0
LBearingChange: 0
UnicodeEnc: 0
InstructionsLength: 0
SplineSet
1 315 m 5
 246 315 l 5
 246 387 l 5
 246 391 l 5
 259 369 285 350 319 334 c 4
 409 293 512 303 595 335 c 4
 761 400 880 562 880 750 c 4
 880 874 828 986 745 1067 c 6
 849 965 l 6
 930 884 980 773 980 651 c 4
 980 463 861 300 695 235 c 4
 612 203 507 193 417 234 c 4
 385 249 366 265 346 285 c 5
 346 215 l 5
 99 215 l 5
 0 314 l 1029
247 1598 m 5
 346 1499 l 5
 346 1171 l 5
 346 1170 l 5
 309 1154 268 1124 246 1101 c 5
 246 1266 246 1432 246 1597 c 1028
344 552 m 5
 273 586 223 659 223 743 c 4
 223 860 317 954 434 954 c 4
 518 954 591 904 625 833 c 5
 624 833 l 5
 597 846 565 854 533 854 c 4
 417 854 323 760 323 644 c 4
 323 612 331 580 344 553 c 5
 344 552 l 5
EndSplineSet
EndUndoOperation
UndoOperation
Index: 21
Type: 1
WasModified: 1
WasOrder2: 0
Layer: 2
Width: 1076
VWidth: 0
LBearingChange: 0
UnicodeEnc: 0
InstructionsLength: 0
SplineSet
1 314.719726562 m 5
 246.297851562 314.719726562 l 5
 246.282226562 387.469726562 l 5
 246.282226562 391.079101562 l 5
 259.539985605 369.019973072 284.531072403 349.961438876 318.750976562 334.063476562 c 4
 408.391601562 292.797851562 512.641601562 303.813476562 595.422851562 335.407226562 c 4
 761.266601562 400.000976562 879.922851562 561.907226562 879.922851562 749.548828125 c 4
 879.922851562 873.444335938 828.189453125 986.107421875 745.311523438 1066.953125 c 6
 849 964.71875 l 6
 929.734375 884 979.90625 772.71875 979.921875 650.546875 c 4
 979.921875 462.46875 861 300.21875 694.78125 235.46875 c 4
 611.8125 203.8125 507.3125 192.734375 417.3125 234.15625 c 4
 385.807412978 248.802427579 366.736438781 264.785672068 346.28125 285.265625 c 5
 346.28125 214.71875 l 5
 99 214.71875 l 5
 0 313.71875 l 1029
247.297851562 1598 m 5
 346.282226562 1499 l 5
 346.282226562 1170.828125 l 5
 346.243164062 1169.73242188 l 5
 308.949483846 1153.97198798 268.412524088 1124.16278636 246.297851562 1101.43945312 c 5
 246.297851563 1266.62695312 246.297851562 1431.81445313 246.297851562 1597.00195312 c 1028
343.96875 551.703125 m 5
 272.563476562 585.555664062 223.188476562 658.29296875 223.188476562 742.564453125 c 4
 223.188476562 859.157226562 317.704101562 953.672851562 434.296875 953.672851562 c 4
 518.50390625 953.672851562 591.194335938 904.373046875 625.0859375 833.0625 c 5
 623.921875 833.189453125 l 5
 596.484375 846.330078125 565.75 853.689453125 533.296875 853.689453125 c 4
 417.25 853.673828125 323.188476562 759.611328125 323.188476562 643.580078125 c 4
 323.188476562 611.126953125 330.547851562 580.376953125 343.672851562 552.939453125 c 5
 343.96875 551.703125 l 5
EndSplineSet
EndUndoOperation
UndoOperation
Index: 22
Type: 1
WasModified: 1
WasOrder2: 0
Layer: 2
Width: 1076
VWidth: 0
LBearingChange: 0
UnicodeEnc: 0
InstructionsLength: 0
SplineSet
1 314.719726562 m 5
 246.297851562 314.719726562 l 5
 246.282226562 387.469726562 l 5
 246.282226562 391.079101562 l 5
 248.141601562 387.985351562 l 6
 260.047851562 368.157226562 286.766601562 348.922851562 318.750976562 334.063476562 c 4
 408.391601562 292.797851562 512.641601562 303.813476562 595.422851562 335.407226562 c 4
 761.266601562 400.000976562 879.922851562 561.907226562 879.922851562 749.548828125 c 4
 879.922851562 873.444335938 828.189453125 986.107421875 745.311523438 1066.953125 c 5
 745.311523438 1066.953125 l 5
 849 964.71875 l 6
 929.734375 884 979.90625 772.71875 979.921875 650.546875 c 4
 979.921875 462.46875 861 300.21875 694.78125 235.46875 c 4
 611.8125 203.8125 507.3125 192.734375 417.3125 234.15625 c 4
 393.953125 245.015625 373.328125 258.203125 359.1875 272.34375 c 6
 346.28125 285.265625 l 5
 346.28125 214.71875 l 5
 99 214.71875 l 5
 0 313.71875 l 1029
247.297851562 1598 m 5
 346.282226562 1499 l 5
 346.282226562 1170.828125 l 5
 346.243164062 1169.73242188 l 5
 335.139648438 1165.04003906 324.18359375 1159.53515625 313.391601562 1153.17382812 c 4
 286.547851562 1137.12695312 263.329101562 1118.78320312 248.000976562 1103.18945312 c 6
 246.297851562 1101.43945312 l 5
 246.297851562 1103.89257812 l 5
 246.297851562 1597.00195312 l 1029
343.96875 551.703125 m 5
 272.563476562 585.555664062 223.188476562 658.29296875 223.188476562 742.564453125 c 4
 223.188476562 859.157226562 317.704101562 953.672851562 434.296875 953.672851562 c 4
 518.50390625 953.672851562 591.194335938 904.373046875 625.0859375 833.0625 c 5
 623.921875 833.189453125 l 5
 596.484375 846.330078125 565.75 853.689453125 533.296875 853.689453125 c 4
 417.25 853.673828125 323.188476562 759.611328125 323.188476562 643.580078125 c 4
 323.188476562 611.126953125 330.547851562 580.376953125 343.672851562 552.939453125 c 5
 343.96875 551.703125 l 5
EndSplineSet
EndUndoOperation
UndoOperation
Index: 23
Type: 1
WasModified: 1
WasOrder2: 0
Layer: 2
Width: 1076
VWidth: 0
LBearingChange: 0
UnicodeEnc: 0
InstructionsLength: 0
EndUndoOperation
UndoOperation
Index: 24
Type: 3
WasModified: 1
WasOrder2: 0
Layer: 2
EndUndoOperation
UndoOperation
Index: 25
Type: 1
WasModified: 1
WasOrder2: 0
Layer: 2
Width: 1076
VWidth: 0
LBearingChange: 0
UnicodeEnc: 0
InstructionsLength: 0
SplineSet
595.828125 539.96875 m 4
 479.78125 539.953125 385.71875 445.890625 385.71875 329.859375 c 4
 385.71875 297.40625 393.078125 266.65625 406.203125 239.21875 c 5
 433.65625 226.078125 464.390625 218.734375 496.84375 218.734375 c 4
 612.875 218.734375 706.9375 312.796875 706.953125 428.84375 c 4
 706.953125 461.296875 699.59375 492.03125 686.453125 519.46875 c 5
 659.015625 532.609375 628.28125 539.96875 595.828125 539.96875 c 4
62.53125 1284.28125 m 5
 309.828125 1284.28125 l 5
 408.8125 1185.28125 l 5
 408.8125 857.109375 l 5
 486.078125 889.59375 570.40625 882.9375 656.234375 851.703125 c 4
 715.296875 829.03125 768.46875 794.0625 812.546875 750 c 6
 911.53125 651 l 6
 992.265625 570.28125 1042.4375 459 1042.453125 336.828125 c 4
 1042.453125 148.75 923.53125 -13.5 757.3125 -78.25 c 4
 674.34375 -109.90625 569.84375 -120.984375 479.84375 -79.5625 c 4
 456.484375 -68.703125 435.859375 -55.515625 421.71875 -41.375 c 6
 408.8125 -28.453125 l 5
 408.8125 -99 l 5
 161.53125 -99 l 5
 62.53125 0 l 5
 62.53125 1284.28125 l 5
63.53125 1283.28125 m 5
 63.53125 1 l 5
 308.828125 1 l 5
 308.8125 73.75 l 5
 308.8125 77.359375 l 5
 310.671875 74.265625 l 6
 322.578125 54.4375 349.296875 35.203125 381.28125 20.34375 c 4
 470.921875 -20.921875 575.171875 -9.90625 657.953125 21.6875 c 4
 823.796875 86.28125 942.453125 248.1875 942.453125 435.828125 c 4
 942.453125 624.265625 822.78125 786.71875 655.875 850.765625 c 4
 557.703125 886.5 461.625 889.96875 375.921875 839.453125 c 4
 349.078125 823.40625 325.859375 805.0625 310.53125 789.46875 c 6
 308.828125 787.71875 l 5
 308.828125 790.171875 l 5
 308.828125 1283.28125 l 5
 63.53125 1283.28125 l 5
496.828125 639.953125 m 4
 613.421875 639.953125 707.9375 545.4375 707.953125 428.84375 c 4
 707.9375 312.25 613.421875 217.734375 496.84375 217.734375 c 4
 380.234375 217.734375 285.71875 312.25 285.71875 428.84375 c 4
 285.71875 545.4375 380.234375 639.953125 496.828125 639.953125 c 4
EndSplineSet
EndUndoOperation
UndoOperation
Index: 26
Type: 1
WasModified: 0
WasOrder2: 0
Layer: 2
Width: 978
VWidth: 0
LBearingChange: 0
UnicodeEnc: 0
InstructionsLength: 0
SplineSet
62.54296875 1284.27929688 m 1
 309.8203125 1284.27929688 l 1
 309.8203125 790.176757812 l 1
 325.221679688 805.830078125 348.484375 824.213867188 375.41796875 840.326171875 c 0
 461.44921875 891.015625 557.866210938 887.515625 656.227539062 851.70703125 c 0
 823.529296875 787.508789062 943.45703125 624.696289062 943.45703125 435.82421875 c 0
 943.45703125 247.741210938 824.528320312 85.5009765625 658.321289062 20.7529296875 c 0
 575.359375 -10.9052734375 470.84375 -21.9775390625 380.859375 19.431640625 c 0
 348.784179688 34.337890625 321.892578125 53.6220703125 309.8203125 73.751953125 c 1
 309.8203125 0 l 1
 62.54296875 0 l 1
 62.54296875 1284.27929688 l 1
496.83203125 638.951171875 m 0
 380.791015625 638.951171875 286.720703125 544.880859375 286.720703125 428.83984375 c 0
 286.720703125 312.798828125 380.791015625 218.728515625 496.83203125 218.728515625 c 0
 612.874023438 218.727539062 706.9453125 312.797851562 706.9453125 428.83984375 c 0
 706.9453125 544.881835938 612.874023438 638.952148438 496.83203125 638.951171875 c 0
EndSplineSet
EndUndoOperation
UndoOperation
Index: 27
Type: 12
WasModified: 0
WasOrder2: 0
Layer: 0
EndUndoOperation
EndUndoes
Redoes
EndRedoes
EndUndoRedoHistory
Fore
SplineSet
52.9404296875 8 m 1
 151.940429688 -91.970703125 l 1
 398.940429688 -91.970703125 l 1
 398.940429688 -21.970703125 l 1
 418.940429688 -41.970703125 437.940429688 -57.970703125 469.940429688 -72.970703125 c 0
 511.940429688 -91.970703125 556.471679688 -100 600.888671875 -100 c 0
 652.430664062 -100 702.940429688 -88.970703125 747.940429688 -71.970703125 c 0
 913.940429688 -6.970703125 1032.94042969 156.029296875 1032.94042969 344.029296875 c 0
 1032.94042969 466.029296875 982.940429688 577.029296875 901.940429688 658.029296875 c 1
 797.940429688 760.029296875 l 2
 880.940429688 679.029296875 932.940429688 567.029296875 932.940429688 443.029296875 c 0
 932.940429688 255.029296875 813.940429688 93.029296875 647.940429688 28.029296875 c 0
 602.940429688 11.029296875 553.0078125 0 502 0 c 0
 424.364257812 0 328.940429688 34.029296875 298.940429688 84.029296875 c 1
 298.940429688 59.029296875 298.940429688 33 298.940429688 8 c 1
 52.9404296875 8 l 1
298.940429688 1208 m 1
 298.940429688 1043 298.940429688 959.029296875 298.940429688 794.029296875 c 1
 320.940429688 817.029296875 361.940429688 847.029296875 398.940429688 863.029296875 c 1
 398.940429688 973.029296875 398.940429688 1000 398.940429688 1110 c 1
 298.940429688 1208 l 1
396.940429688 245.029296875 m 1
 325.940429688 279.029296875 275.940429688 352.029296875 275.940429688 436.029296875 c 0
 275.940429688 553.029296875 369.940429688 647.029296875 486.940429688 647.029296875 c 0
 570.940429688 647.029296875 643.940429688 597.029296875 677.940429688 526.029296875 c 1
 676.940429688 526.029296875 l 1
 649.940429688 539.029296875 617.940429688 547.029296875 585.940429688 547.029296875 c 0
 469.940429688 547.029296875 375.940429688 453.029296875 375.940429688 337.029296875 c 0
 375.940429688 305.029296875 383.940429688 273.029296875 396.940429688 246.029296875 c 1
 396.940429688 245.029296875 l 1
EndSplineSet
EndChar

StartChar: c
Encoding: 99 99 28
Width: 869
VWidth: 0
Flags: MW
LayerCount: 2
UndoRedoHistory
Layer: 1
Undoes
UndoOperation
Index: 0
Type: 12
WasModified: 0
WasOrder2: 0
Layer: 0
EndUndoOperation
EndUndoes
Redoes
EndRedoes
EndUndoRedoHistory
Fore
SplineSet
492 -22.099609375 m 4
 225 -22.099609375 47 186.08984375 47 402.875 c 4
 47 597.6953125 182 760.044921875 369 811.615234375 c 4
 410 823.075195312 451 827.849609375 492 827.849609375 c 4
 641 827.849609375 775 759.08984375 859 643.53515625 c 5
 655 509.834960938 l 5
 617 562.360351562 557 591.96484375 493 591.96484375 c 4
 375 591.96484375 294 503.150390625 294 402.875 c 4
 294 306.419921875 374 213.78515625 493 213.78515625 c 4
 551 213.78515625 606 237.66015625 645 282.544921875 c 5
 836 132.610351562 l 5
 750 32.3349609375 623 -22.099609375 492 -22.099609375 c 4
EndSplineSet
EndChar

StartChar: e
Encoding: 101 101 30
Width: 992
VWidth: 0
Flags: MW
LayerCount: 2
UndoRedoHistory
Layer: 1
Undoes
UndoOperation
Index: 0
Type: 12
WasModified: 0
WasOrder2: 0
Layer: 0
EndUndoOperation
EndUndoes
Redoes
EndRedoes
EndUndoRedoHistory
Fore
SplineSet
516 -23.599609375 m 0
 236 -23.599609375 47 180.650390625 47 402.950195312 c 0
 47 435.25 51 468.5 59 501.75 c 0
 105 685.099609375 278 827.599609375 492 827.599609375 c 0
 757 827.599609375 937 623.349609375 937 402.950195312 c 0
 937 387.75 938 372.549804688 938 357.349609375 c 1
 300 357.349609375 l 1
 323 259.5 404 193 528 193 c 0
 598 193 669 218.650390625 702 281.349609375 c 1
 926 188.25 l 1
 854 51.4501953125 689 -23.599609375 516 -23.599609375 c 0
663 506.5 m 1
 663 536.900390625 620 636.650390625 492 636.650390625 c 0
 387 636.650390625 322 535.950195312 321 506.5 c 1
 663 506.5 l 1
EndSplineSet
EndChar

StartChar: f
Encoding: 102 102 31
Width: 697
VWidth: 0
Flags: MW
LayerCount: 2
UndoRedoHistory
Layer: 1
Undoes
UndoOperation
Index: 0
Type: 12
WasModified: 0
WasOrder2: 0
Layer: 0
EndUndoOperation
EndUndoes
Redoes
EndRedoes
EndUndoRedoHistory
Fore
SplineSet
440.181547312 1249.2516896 m 0
 542.51447799 1249.2516896 659 1192 728 1071 c 5
 540 964 l 1
 505 1025 480.810097828 1033.63949548 452.168481125 1033.63949548 c 1
 452 1034 l 1
 426 1034 410.937488128 1021.8454072 410.937488128 957.331742008 c 0
 410.937488128 954.886632407 411 918 411 915 c 2
 411 765 l 1
 588 765 l 1
 588 564 l 1
 411 564 l 1
 411 0 l 1
 164 0 l 1
 164 564 l 1
 47 564 l 1
 47 765 l 1
 164 765 l 1
 164 830 164 895 164 960 c 0
 164 1088 237 1244 417 1248 c 0
 425 1249 432.334689585 1249.2516896 440.181547312 1249.2516896 c 0
EndSplineSet
EndChar

StartChar: g
Encoding: 103 103 32
Width: 1013
VWidth: 0
Flags: MW
LayerCount: 2
UndoRedoHistory
Layer: 1
Undoes
UndoOperation
Index: 0
Type: 12
WasModified: 0
WasOrder2: 0
Layer: 0
EndUndoOperation
EndUndoes
Redoes
EndRedoes
EndUndoRedoHistory
Fore
SplineSet
693.958984375 828.07421875 m 1
 941.236328125 828.07421875 l 1
 941.236328125 -100.01171875 l 6
 942.364257812 -247.58984375 845.086914062 -352.64453125 717.416015625 -405.3359375 c 4
 653.580078125 -431.681640625 585.4375 -445.16796875 517.1171875 -445.82421875 c 4
 448.796875 -446.48046875 380.301757812 -434.301757812 315.78125 -409.33984375 c 4
 186.739257812 -359.415039062 96.302734375 -257.706054688 80.1171875 -121.009765625 c 5
 327.39453125 -121.009765625 l 5
 332.015625 -175.41015625 449.073242188 -225.302734375 516.84375 -224.587890625 c 4
 586.044921875 -223.857421875 655.18359375 -177.8515625 693.958984375 -119.40625 c 5
 693.958984375 -1.0546875 l 1
 639.579101562 -24.9140625 579.655273438 -38.189453125 516.84375 -38.189453125 c 0
 272.489257812 -38.189453125 71.75390625 128.546875 71.75390625 372.900390625 c 0
 71.75390625 617.25390625 272.489257812 818 516.84375 818 c 0
 579.65625 818 650.91015625 799.499023438 693.958984375 766.859375 c 1
 693.958984375 828.07421875 l 1
515.85546875 584.646484375 m 0
 406.862304688 584.646484375 318.404296875 496.1875 318.404296875 387.1953125 c 0
 318.404296875 387.194335938 318.404296875 387.193359375 318.404296875 387.193359375 c 0
 318.404296875 278.200195312 406.862304688 189.7421875 515.85546875 189.7421875 c 0
 602.8515625 189.8203125 689.046875 258.747070312 708.255859375 343.595703125 c 0
 712.4375 357.706054688 714.666015625 372.2578125 714.666015625 386.900390625 c 0
 714.666015625 402.876953125 712.146484375 418.84375 707.38671875 434.328125 c 0
 687.012695312 517.211914062 601.20703125 584.5546875 515.85546875 584.646484375 c 0
EndSplineSet
EndChar

StartChar: h
Encoding: 104 104 33
Width: 960
VWidth: 0
Flags: MW
LayerCount: 2
UndoRedoHistory
Layer: 1
Undoes
UndoOperation
Index: 0
Type: 12
WasModified: 0
WasOrder2: 0
Layer: 0
EndUndoOperation
EndUndoes
Redoes
EndRedoes
EndUndoRedoHistory
Fore
SplineSet
482 602 m 0
 371 602 319 558 319 436 c 2
 319 -1 l 1
 72 -1 l 1
 72 1266 l 5
 319 1266 l 5
 319 766 l 1
 374 807 444 829 508 829 c 0
 570 829 631 814 686 781 c 0
 802 711 895 588 895 455 c 2
 895 2 l 1
 648 2 l 1
 648 418 l 2
 648 485 591 602 482 602 c 0
EndSplineSet
EndChar

StartChar: i
Encoding: 105 105 34
Width: 393
VWidth: 0
Flags: MW
LayerCount: 2
UndoRedoHistory
Layer: 1
Undoes
UndoOperation
Index: 0
Type: 12
WasModified: 0
WasOrder2: 0
Layer: 0
EndUndoOperation
EndUndoes
Redoes
EndRedoes
EndUndoRedoHistory
Fore
SplineSet
194 1196 m 0
 271 1196 332 1134 332 1057 c 0
 332 980 271 919 194 919 c 0
 117 919 55 980 55 1057 c 0
 55 1134 117 1196 194 1196 c 0
70 810 m 5
 317 810 l 5
 317 0 l 5
 70 0 l 5
 70 810 l 5
EndSplineSet
Validated: 1
EndChar

StartChar: j
Encoding: 106 106 35
Width: 598
VWidth: 0
Flags: MW
LayerCount: 2
UndoRedoHistory
Layer: 1
Undoes
UndoOperation
Index: 0
Type: 12
WasModified: 0
WasOrder2: 0
Layer: 0
EndUndoOperation
EndUndoes
Redoes
EndRedoes
EndUndoRedoHistory
Fore
SplineSet
445 1066 m 4
 445 989 383 927 306 927 c 4
 229 927 168 989 168 1066 c 4
 168 1143 229 1205 306 1205 c 4
 383 1205 445 1143 445 1066 c 4
182 811 m 5
 429 811 l 5
 429 -108 l 5
 424 -286 262 -434 73 -434 c 4
 26 -434 -22 -425 -70 -405 c 5
 24 -177 l 5
 39 -183 55 -186 71 -186 c 4
 128 -186 182 -153 182 -105 c 6
 182 811 l 5
EndSplineSet
EndChar

StartChar: k
Encoding: 107 107 36
Width: 898
VWidth: 0
Flags: MW
LayerCount: 2
UndoRedoHistory
Layer: 1
Undoes
UndoOperation
Index: 0
Type: 12
WasModified: 0
WasOrder2: 0
Layer: 0
EndUndoOperation
EndUndoes
Redoes
EndRedoes
EndUndoRedoHistory
Fore
SplineSet
72 1265 m 5
 319 1265 l 5
 319 574 l 5
 357 574 l 5
 532 811 l 5
 818 811 l 5
 561 454 l 5
 871 0 l 5
 584 0 l 5
 357 348 l 5
 319 348 l 5
 319 -2 l 5
 72 -2 l 5
 72 1265 l 5
EndSplineSet
Validated: 1
EndChar

StartChar: l
Encoding: 108 108 37
Width: 398
VWidth: 0
Flags: HMW
LayerCount: 2
UndoRedoHistory
Layer: 1
Undoes
UndoOperation
Index: 0
Type: 12
WasModified: 0
WasOrder2: 0
Layer: 0
EndUndoOperation
EndUndoes
Redoes
EndRedoes
EndUndoRedoHistory
Fore
SplineSet
72 1268 m 5
 319 1268 l 5
 319 0 l 5
 72 0 l 5
 72 1268 l 5
EndSplineSet
Validated: 1
EndChar

StartChar: m
Encoding: 109 109 38
Width: 1336
VWidth: 0
Flags: MW
LayerCount: 2
UndoRedoHistory
Layer: 1
Undoes
UndoOperation
Index: 0
Type: 12
WasModified: 0
WasOrder2: 0
Layer: 0
EndUndoOperation
EndUndoes
Redoes
EndRedoes
EndUndoRedoHistory
Fore
SplineSet
440 819 m 0
 538 819 616 770 671 708 c 1
 732 773 820 819 920 819 c 0
 1053 819 1150 728 1201 638 c 0
 1244 561 1273 454 1273 351 c 0
 1273 341 1272 332 1272 322 c 1
 1272 1 l 1
 1025 1 l 1
 1025 391 l 1
 1025 482 990 569 913 569 c 0
 836 569 794 465 794 396 c 0
 794 356 796 245 796 130 c 0
 796 74 794 47 794 1 c 1
 546 1 l 1
 546 381 l 2
 546 469 518 569 441 569 c 0
 366 569 317 497 317 395 c 2
 317 1 l 1
 70 1 l 1
 70 811 l 1
 299 811 l 1
 299 767 l 1
 326 790 396 819 440 819 c 0
EndSplineSet
Validated: 1
EndChar

StartChar: n
Encoding: 110 110 39
Width: 959
VWidth: 0
Flags: MW
LayerCount: 2
UndoRedoHistory
Layer: 1
Undoes
UndoOperation
Index: 0
Type: 12
WasModified: 0
WasOrder2: 0
Layer: 0
EndUndoOperation
EndUndoes
Redoes
EndRedoes
EndUndoRedoHistory
Fore
SplineSet
480 582 m 0
 369 582 317 516 317 410 c 2
 317 0 l 1
 70 0 l 1
 70 818 l 1
 317 818 l 1
 317 746 l 1
 371 784 442 819 506 819 c 0
 568 819 629 804 684 771 c 0
 800 701 893 571 893 445 c 2
 893 0 l 1
 646 0 l 1
 646 408 l 2
 646 475 589 582 480 582 c 0
EndSplineSet
EndChar

StartChar: o
Encoding: 111 111 40
Width: 992
VWidth: 0
Flags: MW
LayerCount: 2
UndoRedoHistory
Layer: 1
Undoes
UndoOperation
Index: 0
Type: 12
WasModified: 0
WasOrder2: 0
Layer: 0
EndUndoOperation
EndUndoes
Redoes
EndRedoes
EndUndoRedoHistory
Fore
SplineSet
492 824.75 m 4
 736 824.75 937 633.799804688 937 402 c 4
 937 170.200195312 736 -20.75 492 -20.75 c 4
 248 -20.75 47 170.200195312 47 402 c 4
 47 633.799804688 248 824.75 492 824.75 c 4
492 590.099609375 m 4
 381 590.099609375 294 507.450195312 294 402 c 4
 294 296.549804688 381 213.900390625 492 213.900390625 c 4
 603 213.900390625 690 296.549804688 690 402 c 4
 690 507.450195312 603 590.099609375 492 590.099609375 c 4
EndSplineSet
EndChar

